<?xml version="1.0" encoding="utf-8"?>
<!-- Generator: Adobe Illustrator 18.0.0, SVG Export Plug-In . SVG Version: 6.00 Build 0)  -->
<!DOCTYPE svg PUBLIC "-//W3C//DTD SVG 1.1//EN" "http://www.w3.org/Graphics/SVG/1.1/DTD/svg11.dtd">
<svg version="1.1" id="Layer_1" xmlns="http://www.w3.org/2000/svg" xmlns:xlink="http://www.w3.org/1999/xlink" x="0px" y="0px"
	 viewBox="0 0 680 600" enable-background="new 0 0 680 600" xml:space="preserve">
<g>
	<path fill="#3399CC" stroke="#3399CC" stroke-width="4" stroke-miterlimit="10" d="M119.2,4C106.5,4,5,4,5,4v35.8
		c0,0,153.3,0,169.1,0C152.8,39.8,151.5,4,119.2,4z"/>
	<rect x="5" y="39.8" fill="none" stroke="#3399CC" stroke-width="4" stroke-miterlimit="10" width="362" height="554.7"/>
	<g>
		<path fill="#FFFFFF" d="M15.5,12.3h7c4.2,0,7.6,1.5,7.6,6.2c0,4.5-3.5,6.5-7.6,6.5h-2.7v6.5h-4.4V12.3z M22.3,21.6
			c2.4,0,3.5-1.1,3.5-3.1s-1.2-2.8-3.5-2.8h-2.4v5.8H22.3z"/>
		<path fill="#FFFFFF" d="M34.5,16.9h3.6l0.4,3.2h0.1c1.5-2.4,3.6-3.6,6-3.6c1.3,0,2,0.2,2.8,0.6l-0.9,3.6c-0.9-0.3-1.5-0.4-2.6-0.4
			c-1.8,0-3.7,0.9-4.9,3.6v7.6h-4.4V16.9z"/>
		<path fill="#FFFFFF" d="M57.8,16.6c3.9,0,7.5,2.8,7.5,7.7c0,4.9-3.6,7.7-7.5,7.7s-7.5-2.8-7.5-7.7C50.3,19.4,53.9,16.6,57.8,16.6z
			 M57.8,28.4c2,0,3-1.6,3-4.2c0-2.5-1-4.2-3-4.2s-3,1.6-3,4.2C54.7,26.8,55.7,28.4,57.8,28.4z"/>
		<path fill="#FFFFFF" d="M77.1,16.6c2.3,0,4.3,0.8,5.5,2l-2,2.7c-1.1-0.8-2.2-1.2-3.3-1.2c-2.5,0-4.3,1.6-4.3,4.2
			c0,2.5,1.7,4.2,4.1,4.2c1.5,0,2.8-0.7,3.9-1.4l1.8,2.8c-1.8,1.5-4.1,2.2-6.1,2.2c-4.6,0-8.2-2.8-8.2-7.7
			C68.6,19.4,72.6,16.6,77.1,16.6z"/>
		<path fill="#FFFFFF" d="M93.7,16.6c4.5,0,6.9,3.1,6.9,7c0,0.8-0.1,1.6-0.2,1.9h-9.9c0.3,2.2,2.1,3.1,4.3,3.1c1.3,0,2.5-0.4,3.8-1
			l1.4,2.6c-1.7,1.1-3.9,1.7-5.8,1.7c-4.6,0-8.1-2.8-8.1-7.7C86,19.5,89.8,16.6,93.7,16.6z M96.6,22.7c0-1.7-0.9-2.8-2.9-2.8
			c-1.6,0-2.9,0.9-3.3,2.8H96.6z"/>
		<path fill="#FFFFFF" d="M105.7,27c1.7,1.1,3.4,1.7,5.3,1.7c2,0,2.8-0.5,2.8-1.2c0-0.9-1.6-1.4-3.9-2c-2.6-0.7-5.2-2-5.2-4.3
			c0-2.7,2.6-4.6,6.8-4.6c2.6,0,4.8,1,6.3,2l-2,2.6c-1.3-0.8-2.8-1.4-4.3-1.4c-1.8,0-2.5,0.4-2.5,1.2c0,0.9,1.7,1.3,3.8,1.9
			c2.9,0.8,5.4,1.9,5.4,4.4c0,2.7-2.5,4.7-7.2,4.7c-2.6,0-5.3-1-7.2-2.3L105.7,27z"/>
		<path fill="#FFFFFF" d="M123.5,27c1.7,1.1,3.4,1.7,5.3,1.7c2,0,2.8-0.5,2.8-1.2c0-0.9-1.6-1.4-3.9-2c-2.6-0.7-5.2-2-5.2-4.3
			c0-2.7,2.6-4.6,6.8-4.6c2.6,0,4.8,1,6.3,2l-2,2.6c-1.3-0.8-2.8-1.4-4.3-1.4c-1.8,0-2.5,0.4-2.5,1.2c0,0.9,1.7,1.3,3.8,1.9
			c2.9,0.8,5.4,1.9,5.4,4.4c0,2.7-2.5,4.7-7.2,4.7c-2.6,0-5.3-1-7.2-2.3L123.5,27z"/>
	</g>
</g>
<g>
	<path fill="#3399CC" stroke="#3399CC" stroke-width="4" stroke-miterlimit="10" d="M242,59.8c-12.6,0-199.5,0-199.5,0v28.1
		c0,0,238.6,0,254.4,0C275.7,87.9,274.4,59.8,242,59.8z"/>
	<rect x="42.6" y="87.9" fill="none" stroke="#3399CC" stroke-width="4" stroke-miterlimit="10" width="285.1" height="246.8"/>
	<g>
		<path fill="#FFFFFF" d="M49.6,67.7h9.6v2.8h-6.3v3.4h5.4v2.8h-5.4v5.6h-3.3V67.7z"/>
		<path fill="#FFFFFF" d="M62.3,71.1H70v11h-3.3v-8.5h-4.4V71.1z M66,67.5c0-1.2,0.9-2,2.2-2c1.3,0,2.2,0.8,2.2,2s-0.9,2-2.2,2
			C66.9,69.5,66,68.7,66,67.5z"/>
		<path fill="#FFFFFF" d="M75.3,66.6h6.5V78c0,1.4,0.9,1.8,1.8,1.8c0.5,0,1-0.1,1.7-0.4l0.7,2.4c-1.2,0.4-1.9,0.6-3.3,0.6
			c-2.8,0-4.2-1.8-4.2-4.6v-8.7h-3.2V66.6z"/>
		<path fill="#FFFFFF" d="M94.2,70.9c3.4,0,5.2,2.3,5.2,5.3c0,0.6-0.1,1.2-0.1,1.4h-7.4c0.2,1.6,1.6,2.3,3.2,2.3
			c1,0,1.9-0.3,2.8-0.8l1.1,2c-1.2,0.8-2.9,1.3-4.4,1.3c-3.4,0-6.1-2.1-6.1-5.8C88.4,73,91.2,70.9,94.2,70.9z M96.4,75.4
			c0-1.2-0.7-2.1-2.2-2.1c-1.2,0-2.2,0.7-2.5,2.1H96.4z"/>
		<path fill="#FFFFFF" d="M115.3,67.7h3.9c4.2,0,7,2.2,7,7.2s-2.8,7.3-6.8,7.3h-4.1V67.7z M119.1,79.5c2.3,0,3.8-1.2,3.8-4.7
			s-1.5-4.5-3.8-4.5h-0.5v9.2H119.1z"/>
		<path fill="#FFFFFF" d="M134.1,70.9c3.4,0,5.2,2.3,5.2,5.3c0,0.6-0.1,1.2-0.1,1.4h-7.4c0.2,1.6,1.6,2.3,3.2,2.3
			c1,0,1.9-0.3,2.8-0.8l1.1,2c-1.2,0.8-2.9,1.3-4.4,1.3c-3.4,0-6.1-2.1-6.1-5.8C128.4,73,131.2,70.9,134.1,70.9z M136.4,75.4
			c0-1.2-0.7-2.1-2.2-2.1c-1.2,0-2.2,0.7-2.5,2.1H136.4z"/>
		<path fill="#FFFFFF" d="M143.2,78.7c1.3,0.8,2.5,1.3,4,1.3c1.5,0,2.1-0.4,2.1-0.9c0-0.7-1.2-1-3-1.5c-1.9-0.5-3.9-1.5-3.9-3.2
			c0-2,1.9-3.4,5.1-3.4c2,0,3.6,0.8,4.8,1.5l-1.5,2c-1-0.6-2.1-1-3.2-1c-1.4,0-1.9,0.3-1.9,0.9c0,0.7,1.3,1,2.8,1.4
			c2.2,0.6,4.1,1.4,4.1,3.3c0,2-1.9,3.6-5.4,3.6c-2,0-4-0.8-5.4-1.7L143.2,78.7z"/>
		<path fill="#FFFFFF" d="M161.7,70.9c1.7,0,3.2,0.6,4.1,1.5l-1.5,2c-0.8-0.6-1.6-0.9-2.4-0.9c-1.9,0-3.2,1.2-3.2,3.1
			s1.3,3.1,3.1,3.1c1.2,0,2.1-0.5,2.9-1l1.3,2.1c-1.3,1.1-3,1.6-4.6,1.6c-3.5,0-6.1-2.1-6.1-5.8S158.3,70.9,161.7,70.9z"/>
		<path fill="#FFFFFF" d="M173.8,77.2c1.5,0,2.6,1.2,2.6,2.6c0,1.5-1,2.6-2.6,2.6s-2.6-1.1-2.6-2.6
			C171.3,78.4,172.3,77.2,173.8,77.2z"/>
		<path fill="#FFFFFF" d="M198.8,70.4h-4.3v-2.8h12v2.8h-4.3v11.7h-3.3V70.4z"/>
		<path fill="#FFFFFF" d="M215.8,75.1c-0.1-1-0.9-1.6-2.4-1.6c-1.1,0-2.1,0.4-3.4,1l-1.2-2.1c1.5-0.9,3.3-1.5,5.2-1.5
			c3.1,0,5,1.6,5,5v6.3h-2.7l-0.2-1.2H216c-1.1,0.8-2.5,1.5-3.9,1.5c-2.2,0-3.6-1.5-3.6-3.3C208.5,76.6,210.6,75.4,215.8,75.1z
			 M213.2,79.9c1,0,1.8-0.4,2.6-1V77c-3.2,0.2-4.1,0.9-4.1,1.8C211.6,79.6,212.2,79.9,213.2,79.9z"/>
		<path fill="#FFFFFF" d="M222.1,66.6h3.3v3.8l-0.1,1.7c0.9-0.8,2-1.3,3.1-1.3c2.8,0,4.4,2.2,4.4,5.6c0,3.8-2.3,6-4.8,6
			c-1,0-2.1-0.5-3-1.5h-0.1l-0.3,1.2h-2.6V66.6z M227.3,79.8c1.2,0,2.2-1,2.2-3.2c0-2-0.6-3-2-3c-0.7,0-1.4,0.3-2,1V79
			C226,79.6,226.7,79.8,227.3,79.8z"/>
		<path fill="#FFFFFF" d="M235.2,66.6h6.5V78c0,1.4,0.9,1.8,1.8,1.8c0.5,0,1-0.1,1.7-0.4l0.7,2.4c-1.2,0.4-1.9,0.6-3.3,0.6
			c-2.8,0-4.2-1.8-4.2-4.6v-8.7h-3.2V66.6z"/>
		<path fill="#FFFFFF" d="M254.1,70.9c3.4,0,5.2,2.3,5.2,5.3c0,0.6-0.1,1.2-0.1,1.4h-7.4c0.2,1.6,1.6,2.3,3.2,2.3
			c1,0,1.9-0.3,2.8-0.8l1.1,2c-1.2,0.8-2.9,1.3-4.4,1.3c-3.4,0-6.1-2.1-6.1-5.8C248.4,73,251.2,70.9,254.1,70.9z M256.3,75.4
			c0-1.2-0.7-2.1-2.2-2.1c-1.2,0-2.2,0.7-2.5,2.1H256.3z"/>
	</g>
</g>
<g>
	<path fill="#3399CC" stroke="#3399CC" stroke-width="4" stroke-miterlimit="10" d="M151.8,359.3c-12.6,0-109.2,0-109.2,0v28.1
		c0,0,148.4,0,164.1,0C185.4,387.4,184.2,359.3,151.8,359.3z"/>
	<rect x="42.6" y="387.4" fill="none" stroke="#3399CC" stroke-width="4" stroke-miterlimit="10" width="285.2" height="187"/>
	<g>
		<path fill="#FFFFFF" d="M47.6,367.1H51l1.7,6.8c0.4,1.6,0.7,3,1.2,4.6H54c0.4-1.6,0.8-3.1,1.2-4.6l1.7-6.8h3.3l-4.4,14.5h-3.9
			L47.6,367.1z"/>
		<path fill="#FFFFFF" d="M69.2,374.5c-0.1-1-0.9-1.6-2.4-1.6c-1.1,0-2.1,0.4-3.4,1l-1.2-2.1c1.5-0.9,3.3-1.5,5.2-1.5
			c3.1,0,5,1.6,5,5v6.3h-2.7l-0.2-1.2h-0.1c-1.1,0.8-2.5,1.5-3.9,1.5c-2.2,0-3.6-1.5-3.6-3.3C61.9,376.1,63.9,374.8,69.2,374.5z
			 M66.6,379.4c1,0,1.8-0.4,2.6-1v-1.8c-3.2,0.2-4.1,0.9-4.1,1.8C65,379,65.6,379.4,66.6,379.4z"/>
		<path fill="#FFFFFF" d="M76.5,370.6h2.7l0.3,2.4h0.1c1.1-1.8,2.7-2.7,4.5-2.7c1,0,1.5,0.2,2.1,0.4l-0.7,2.7
			c-0.7-0.2-1.1-0.3-2-0.3c-1.4,0-2.8,0.7-3.7,2.7v5.7h-3.3V370.6z"/>
		<path fill="#FFFFFF" d="M89,370.6h7.7v11h-3.3v-8.5H89V370.6z M92.7,367c0-1.2,0.9-2,2.2-2c1.3,0,2.2,0.8,2.2,2c0,1.2-0.9,2-2.2,2
			C93.6,369,92.7,368.2,92.7,367z"/>
		<path fill="#FFFFFF" d="M109.2,374.5c-0.1-1-0.9-1.6-2.4-1.6c-1.1,0-2.1,0.4-3.4,1l-1.2-2.1c1.5-0.9,3.3-1.5,5.2-1.5
			c3.1,0,5,1.6,5,5v6.3h-2.7l-0.2-1.2h-0.1c-1.1,0.8-2.5,1.5-3.9,1.5c-2.2,0-3.6-1.5-3.6-3.3C101.9,376.1,103.9,374.8,109.2,374.5z
			 M106.6,379.4c1,0,1.8-0.4,2.6-1v-1.8c-3.2,0.2-4.1,0.9-4.1,1.8C105,379,105.6,379.4,106.6,379.4z"/>
		<path fill="#FFFFFF" d="M115.5,366h3.3v3.8l-0.1,1.7c0.9-0.8,2-1.3,3.1-1.3c2.8,0,4.4,2.2,4.4,5.6c0,3.8-2.3,6-4.8,6
			c-1,0-2.1-0.5-3-1.5h-0.1l-0.3,1.2h-2.6V366z M120.6,379.2c1.2,0,2.2-1,2.2-3.2c0-2-0.6-3-2-3c-0.7,0-1.4,0.3-2,1v4.5
			C119.3,379,120.1,379.2,120.6,379.2z"/>
		<path fill="#FFFFFF" d="M128.6,366h6.5v11.4c0,1.4,0.9,1.8,1.8,1.8c0.5,0,1-0.1,1.7-0.4l0.7,2.4c-1.2,0.4-1.9,0.6-3.3,0.6
			c-2.8,0-4.2-1.8-4.2-4.6v-8.7h-3.2V366z"/>
		<path fill="#FFFFFF" d="M147.5,370.3c3.4,0,5.2,2.3,5.2,5.3c0,0.6-0.1,1.2-0.1,1.4h-7.4c0.2,1.6,1.6,2.3,3.2,2.3
			c1,0,1.9-0.3,2.8-0.8l1.1,2c-1.2,0.8-2.9,1.3-4.4,1.3c-3.4,0-6.1-2.1-6.1-5.8C141.7,372.5,144.5,370.3,147.5,370.3z M149.7,374.9
			c0-1.2-0.7-2.1-2.2-2.1c-1.2,0-2.2,0.7-2.5,2.1H149.7z"/>
		<path fill="#FFFFFF" d="M156.5,378.2c1.3,0.8,2.5,1.3,4,1.3c1.5,0,2.1-0.4,2.1-0.9c0-0.7-1.2-1-3-1.5c-1.9-0.5-3.9-1.5-3.9-3.2
			c0-2,1.9-3.4,5.1-3.4c2,0,3.6,0.8,4.8,1.5l-1.5,2c-1-0.6-2.1-1-3.2-1c-1.4,0-1.9,0.3-1.9,0.9c0,0.7,1.3,1,2.8,1.4
			c2.2,0.6,4.1,1.4,4.1,3.3c0,2-1.9,3.6-5.4,3.6c-2,0-4-0.8-5.4-1.7L156.5,378.2z"/>
	</g>
</g>
<g>
	<path fill="#3399CC" d="M663.2,224.3H513.9c-7.5,0-13.6-6.1-13.6-13.6V99.3c0-7.5,6.1-13.6,13.6-13.6h149.3
		c7.5,0,13.6,6.1,13.6,13.6v111.5C676.7,218.3,670.6,224.3,663.2,224.3z"/>
	<polygon fill="#FFFFFF" points="538.1,191.1 525.5,178.5 550.7,153.3 525.5,128.1 538.1,115.5 575.9,153.3 	"/>
	<rect x="587.5" y="170.9" fill="#FFFFFF" width="57.3" height="16.9"/>
</g>
<g>
	<path fill="#3399CC" d="M675.3,374.5h-27.1c-12.4,0-22.5-10.1-22.5-22.5v-32.5h-99.9c-13.8,0-25,11.2-25,25v174.8
		c0,13.8,11.2,25,25,25h124.8c13.8,0,25-11.2,25-25V382C675.6,379.4,675.5,376.9,675.3,374.5z"/>
	<path fill="#FFFFFF" d="M619.5,519.3h-87.4c-3.4,0-6.2-2.8-6.2-6.2c0-3.4,2.8-6.2,6.2-6.2h87.4c3.4,0,6.2,2.8,6.2,6.2
		C625.7,516.5,622.9,519.3,619.5,519.3z"/>
	<path fill="#FFFFFF" d="M644.4,496.8H532.1c-3.4,0-6.2-2.8-6.2-6.2c0-3.4,2.8-6.2,6.2-6.2h112.3c3.4,0,6.2,2.8,6.2,6.2
		C650.7,494,647.9,496.8,644.4,496.8z"/>
	<path fill="#FFFFFF" d="M525.8,450.6c0-3.4,2.8-6.2,6.2-6.2h62.4c3.4,0,6.2,2.8,6.2,6.2c0,3.4-2.8,6.2-6.2,6.2h-62.4
		C528.6,456.9,525.8,454.1,525.8,450.6z"/>
	<path fill="#FFFFFF" d="M644.4,434.4H532.1c-3.4,0-6.2-2.8-6.2-6.2s2.8-6.2,6.2-6.2h112.3c3.4,0,6.2,2.8,6.2,6.2
		S647.9,434.4,644.4,434.4z"/>
	<path fill="#FFFFFF" d="M644.4,411.9H532.1c-3.4,0-6.2-2.8-6.2-6.2s2.8-6.2,6.2-6.2h112.3c3.4,0,6.2,2.8,6.2,6.2
		S647.9,411.9,644.4,411.9z"/>
	<path fill="#3399CC" d="M647.2,363.5h25.5c-8.1-33.7-37.9-44.9-37.9-44.9h0V351C634.7,357.9,640.3,363.5,647.2,363.5z"/>
</g>
<g>
	<path fill="#666666" d="M68.6,411.1c-1.3-0.6-2.3-0.7-3.6-0.7c-2.8,0-3.9,1.5-3.9,4.1v1.4h6.5v2.2H61v13.4h-2.6V418H54v-2l4.5-0.2
		v-1.3c0-3.8,2-6.3,6.3-6.3c1.5,0,3,0.3,4.5,0.9L68.6,411.1z"/>
	<path fill="#666666" d="M79.5,415.5c4.1,0,7.7,3,7.7,8.2c0,5.2-3.6,8.2-7.7,8.2s-7.7-3-7.7-8.2C71.8,418.5,75.4,415.5,79.5,415.5z
		 M79.5,429.7c3,0,5-2.4,5-6c0-3.6-2-6-5-6c-3,0-5,2.4-5,6C74.6,427.3,76.6,429.7,79.5,429.7z"/>
	<path fill="#666666" d="M98.8,415.5c4.1,0,7.7,3,7.7,8.2c0,5.2-3.6,8.2-7.7,8.2s-7.7-3-7.7-8.2C91.1,418.5,94.7,415.5,98.8,415.5z
		 M98.8,429.7c3,0,5-2.4,5-6c0-3.6-2-6-5-6c-3,0-5,2.4-5,6C93.8,427.3,95.8,429.7,98.8,429.7z"/>
	<path fill="#666666" d="M125.7,433.7v2.3h-15.4v-2.3H125.7z"/>
	<path fill="#666666" d="M130.6,408.6h2.6v6.2l-0.1,3c1.5-1.4,3.5-2.4,5.3-2.4c4.2,0,6.5,3.1,6.5,7.9c0,5.3-3.3,8.4-7.1,8.4
		c-1.5,0-3.4-0.8-4.8-2.1H133l-0.2,1.7h-2.1V408.6z M137.5,429.6c2.7,0,4.7-2.3,4.7-6.2c0-3.4-1.3-5.7-4.4-5.7c-1.4,0-3,0.7-4.6,2.3
		v7.8C134.8,429.1,136.4,429.6,137.5,429.6z"/>
	<path fill="#666666" d="M160.8,421.6c-0.1-2.1-1.1-3.9-4.1-3.9c-2,0-4,1-5.5,1.9l-1-1.8c1.6-1,4.2-2.2,6.9-2.2
		c4.3,0,6.3,2.5,6.3,6.4v9.6h-2.1l-0.2-2.1H161c-1.7,1.3-3.9,2.5-6.2,2.5c-2.9,0-5.3-1.6-5.3-4.4
		C149.5,423.9,152.8,422.2,160.8,421.6z M155.5,429.7c1.8,0,3.5-0.8,5.3-2.3v-4.1c-6.7,0.5-8.7,1.9-8.7,3.9
		C152.1,429,153.7,429.7,155.5,429.7z"/>
	<path fill="#666666" d="M170.9,415.9h2.2l0.2,3.7h0.1c1.6-2.5,4.1-4.1,7-4.1c1.2,0,2.1,0.2,3.1,0.6l-0.6,2.3
		c-1.1-0.4-1.7-0.5-2.9-0.5c-2.3,0-4.6,1.2-6.4,4.5v9.1h-2.6V415.9z"/>
	<path fill="#666666" d="M226.6,416.4h13.8v2h-13.8V416.4z M226.6,423.3h13.8v2h-13.8V423.3z"/>
	<path fill="#666666" d="M279.9,425.8h-3.2v5.6h-2.5v-5.6h-10.6v-1.8l10.2-13.1h2.8v12.7h3.2V425.8z M274.2,423.7v-6.4
		c0-1.1,0.1-2.5,0.2-3.6h-0.2c-0.6,1-1.4,2-2.1,3l-5.6,7H274.2z"/>
	<path fill="#666666" d="M284,429.9c6.9-6.1,10.8-9.7,10.8-13.1c0-2.3-1.4-4-4.5-4c-1.9,0-3.6,1.1-4.9,2.5l-1.5-1.5
		c1.8-1.9,3.9-3.1,6.7-3.1c4.1,0,6.7,2.4,6.7,6c0,3.9-3.9,7.7-9.4,12.7c1.3-0.1,2.6-0.2,3.8-0.2h6.7v2.3H284V429.9z"/>
	<path fill="#666666" d="M54.3,466.2c1.7,1.3,3.7,2.1,6.4,2.1c2.8,0,4.2-1.1,4.2-2.4c0-1.2-1.3-2.1-5.1-3c-3.2-0.8-5.9-2.2-5.9-4.4
		c0-2.5,2.2-4.4,6.5-4.4c2.3,0,4.7,0.9,6.3,2l-1.3,1.7c-1.4-1-3-1.6-5-1.6c-2.9,0-3.9,1-3.9,2.2c0,1.3,1.9,2.1,4.7,2.8
		c4.2,1.1,6.2,2.3,6.2,4.7c0,2.5-2.5,4.7-6.9,4.7c-3,0-5.7-1.1-7.6-2.4L54.3,466.2z"/>
	<path fill="#666666" d="M76.5,456.5h-4.4v-2l4.5-0.2L77,450h2.2v4.4h7.7v2.2h-7.7v7.4c0,2.8,0.9,4.3,3.9,4.3c1.5,0,2.7-0.3,3.8-0.7
		l0.6,1.9c-1.4,0.5-3.2,0.9-4.9,0.9c-4.5,0-6-2.6-6-6.4V456.5z"/>
	<path fill="#666666" d="M98.2,454c1.9,0,3.3,0.8,4.7,2l-0.1-2.9v-6h2.6V470h-2.2l-0.2-2.1h-0.1c-1.3,1.3-3.1,2.4-5.1,2.4
		c-4.1,0-6.8-3-6.8-8.2C91.1,457.1,94.5,454,98.2,454z M98.4,468.1c1.5,0,3-0.8,4.4-2.3V458c-1.4-1.3-2.8-1.8-4.1-1.8
		c-2.7,0-4.9,2.4-4.9,6C93.8,465.9,95.5,468.1,98.4,468.1z"/>
	<path fill="#666666" d="M125.7,472.2v2.3h-15.4v-2.3H125.7z"/>
	<path fill="#666666" d="M130.6,454.4h9.9V470h-2.6v-13.4h-7.3V454.4z M136.7,449.1c0-1.3,0.9-2.1,2.1-2.1c1.2,0,2.1,0.8,2.1,2.1
		c0,1.2-0.9,2-2.1,2C137.6,451.2,136.7,450.4,136.7,449.1z"/>
	<path fill="#666666" d="M149.9,454.4h2.2l0.2,2.7h0.1c1.6-1.7,3.4-3,5.9-3c3.7,0,5.4,2.2,5.4,6.3v9.7h-2.6v-9.3c0-3-1-4.4-3.6-4.4
		c-1.9,0-3.1,0.9-4.9,2.8V470h-2.6V454.4z"/>
	<path fill="#666666" d="M226.6,455h13.8v2h-13.8V455z M226.6,461.8h13.8v2h-13.8V461.8z"/>
	<path fill="#666666" d="M264.7,459.7c0-6.9,2.8-10.6,7.3-10.6s7.3,3.7,7.3,10.6c0,6.8-2.8,10.7-7.3,10.7S264.7,466.5,264.7,459.7z
		 M267.2,459.7c0,5.9,2,8.6,4.9,8.6s4.9-2.7,4.9-8.6c0-5.9-2-8.4-4.9-8.4S267.2,453.8,267.2,459.7z M270.1,459.4
		c0-1.3,0.9-2.1,2-2.1c1.1,0,2,0.8,2,2.1c0,1.3-0.9,2.2-2,2.2C271,461.6,270.1,460.8,270.1,459.4z"/>
	<path fill="#666666" d="M54.3,504.7c1.7,1.3,3.7,2.1,6.4,2.1c2.8,0,4.2-1.1,4.2-2.4c0-1.2-1.3-2.1-5.1-3c-3.2-0.8-5.9-2.2-5.9-4.4
		c0-2.5,2.2-4.4,6.5-4.4c2.3,0,4.7,0.9,6.3,2l-1.3,1.7c-1.4-1-3-1.6-5-1.6c-2.9,0-3.9,1-3.9,2.2c0,1.3,1.9,2.1,4.7,2.8
		c4.2,1.1,6.2,2.3,6.2,4.7c0,2.5-2.5,4.7-6.9,4.7c-3,0-5.7-1.1-7.6-2.4L54.3,504.7z"/>
	<path fill="#666666" d="M76.5,495h-4.4v-2l4.5-0.2l0.4-4.4h2.2v4.4h7.7v2.2h-7.7v7.4c0,2.8,0.9,4.3,3.9,4.3c1.5,0,2.7-0.3,3.8-0.7
		l0.6,1.9c-1.4,0.5-3.2,0.9-4.9,0.9c-4.5,0-6-2.6-6-6.4V495z"/>
	<path fill="#666666" d="M98.2,492.5c1.9,0,3.3,0.8,4.7,2l-0.1-2.9v-6h2.6v22.8h-2.2l-0.2-2.1h-0.1c-1.3,1.3-3.1,2.4-5.1,2.4
		c-4.1,0-6.8-3-6.8-8.2C91.1,495.6,94.5,492.5,98.2,492.5z M98.4,506.6c1.5,0,3-0.8,4.4-2.3v-7.8c-1.4-1.3-2.8-1.8-4.1-1.8
		c-2.7,0-4.9,2.4-4.9,6C93.8,504.4,95.5,506.6,98.4,506.6z"/>
	<path fill="#666666" d="M125.7,510.7v2.3h-15.4v-2.3H125.7z"/>
	<path fill="#666666" d="M137.3,492.5c4.1,0,7.7,3,7.7,8.2c0,5.2-3.6,8.2-7.7,8.2s-7.7-3-7.7-8.2
		C129.6,495.5,133.2,492.5,137.3,492.5z M137.3,506.7c3,0,5-2.4,5-6c0-3.6-2-6-5-6c-3,0-5,2.4-5,6
		C132.3,504.3,134.3,506.7,137.3,506.7z"/>
	<path fill="#666666" d="M163.1,508.5H161l-0.2-2.7h-0.1c-1.6,1.8-3.4,3.1-5.8,3.1c-3.7,0-5.4-2.2-5.4-6.3v-9.7h2.7v9.3
		c0,3,1,4.4,3.6,4.4c1.8,0,3.1-0.9,4.8-2.9v-10.8h2.6V508.5z"/>
	<path fill="#666666" d="M172.8,495h-4.4v-2l4.5-0.2l0.4-4.4h2.2v4.4h7.7v2.2h-7.7v7.4c0,2.8,0.9,4.3,3.9,4.3c1.5,0,2.7-0.3,3.8-0.7
		l0.6,1.9c-1.4,0.5-3.2,0.9-4.9,0.9c-4.5,0-6-2.6-6-6.4V495z"/>
	<path fill="#666666" d="M226.6,493.5h13.8v2h-13.8V493.5z M226.6,500.3h13.8v2h-13.8V500.3z"/>
	<path fill="#666666" d="M279.4,506.3v2.2h-13.8v-2.2h5.8v-15.1H267v-1.7c2.2-0.3,3.8-0.8,5-1.5h2v18.3H279.4z"/>
	<path fill="#666666" d="M53.3,524.1h8v17.8c0,2.3,1.2,3.2,3,3.2c0.9,0,1.8-0.2,3-0.7l0.7,2c-1.4,0.5-2.5,0.9-4.2,0.9
		c-3.3,0-5.1-1.9-5.1-5.6v-15.5h-5.3V524.1z"/>
	<path fill="#666666" d="M79.5,531c4.1,0,7.7,3,7.7,8.2c0,5.2-3.6,8.2-7.7,8.2s-7.7-3-7.7-8.2C71.8,534,75.4,531,79.5,531z
		 M79.5,545.2c3,0,5-2.4,5-6c0-3.6-2-6-5-6c-3,0-5,2.4-5,6C74.6,542.8,76.6,545.2,79.5,545.2z"/>
	<path fill="#666666" d="M94,546.4v-0.1c-0.8-0.4-1.6-1.3-1.6-2.6c0-1,0.7-2.1,1.9-2.9v-0.1c-1.1-0.8-1.9-2.2-1.9-4
		c0-3.4,2.8-5.6,6.1-5.6c0.9,0,1.6,0.1,2.3,0.4h6.4v2h-4.2c0.7,0.8,1.4,1.9,1.4,3.3c0,3.3-2.7,5.4-6,5.4c-0.8,0-1.8-0.2-2.6-0.6
		c-0.8,0.5-1.2,1.1-1.2,1.8c0,1.3,1.2,1.8,3.2,1.8h3.5c4,0,5.9,1,5.9,3.7c0,2.9-3.4,5.5-8.7,5.5c-4.6,0-7.2-1.6-7.2-4.3
		C91.5,548.6,92.4,547.3,94,546.4z M98.9,552.3c3.6,0,5.9-1.6,5.9-3.2c0-1.5-1.2-1.9-3.6-1.9h-3c-0.9,0-1.7-0.1-2.4-0.3
		c-1.5,0.8-2,1.7-2,2.6C93.8,551.2,95.5,552.3,98.9,552.3z M102.1,536.6c0-2.2-1.6-3.7-3.6-3.7c-2,0-3.6,1.5-3.6,3.7
		c0,2.2,1.6,3.7,3.6,3.7C100.5,540.3,102.1,538.8,102.1,536.6z"/>
	<path fill="#666666" d="M125.7,549.2v2.3h-15.4v-2.3H125.7z"/>
	<path fill="#666666" d="M145.6,526.6c-1.3-0.6-2.3-0.7-3.6-0.7c-2.8,0-3.9,1.5-3.9,4.1v1.4h6.5v2.2H138V547h-2.6v-13.4H131v-2
		l4.5-0.2v-1.3c0-3.8,2-6.3,6.3-6.3c1.5,0,3,0.3,4.5,0.9L145.6,526.6z"/>
	<path fill="#666666" d="M149.8,531.4h9.9V547h-2.6v-13.4h-7.3V531.4z M156,526.1c0-1.3,0.9-2.1,2.1-2.1c1.2,0,2.1,0.8,2.1,2.1
		c0,1.2-0.9,2-2.1,2C156.9,528.2,156,527.4,156,526.1z"/>
	<path fill="#666666" d="M168.8,524.1h8v17.8c0,2.3,1.2,3.2,3,3.2c0.9,0,1.8-0.2,3-0.7l0.7,2c-1.4,0.5-2.5,0.9-4.2,0.9
		c-3.3,0-5.1-1.9-5.1-5.6v-15.5h-5.3V524.1z"/>
	<path fill="#666666" d="M195.6,531c4.5,0,7.1,2.9,7.1,7.3c0,0.5,0,1.1-0.1,1.5h-12.2c0.1,3.3,2.6,5.4,6,5.4c1.8,0,3.3-0.5,4.7-1.4
		l0.9,1.7c-1.5,1-3.5,1.8-6,1.8c-4.6,0-8.4-3-8.4-8.2S191.5,531,195.6,531z M200.2,537.9c0-3.1-1.7-4.8-4.6-4.8
		c-2.5,0-4.8,1.8-5.3,4.8H200.2z"/>
	<path fill="#666666" d="M226.6,532h13.8v2h-13.8V532z M226.6,538.8h13.8v2h-13.8V538.8z"/>
	<path fill="#666666" d="M265.6,542.7c1.3,1.3,3.2,2.4,5.9,2.4c2.8,0,4.9-1.5,4.9-3.8c0-2.4-2.1-4.1-7.4-4.1v-2
		c4.8,0,6.7-1.7,6.7-3.8c0-2-1.7-3.2-4.2-3.2c-1.9,0-3.7,0.9-5,2.1l-1.4-1.7c1.7-1.5,3.9-2.6,6.5-2.6c3.9,0,6.8,1.9,6.8,5.2
		c0,2.5-1.8,4-4.4,4.9v0.1c2.7,0.6,5.1,2.4,5.1,5.2c0,3.6-3.3,5.8-7.4,5.8c-3.5,0-5.9-1.4-7.4-2.9L265.6,542.7z"/>
</g>
<g>
	<line fill="none" stroke="#3399CC" stroke-width="2" stroke-miterlimit="10" x1="112" y1="335" x2="112" y2="88"/>
	<line fill="none" stroke="#3399CC" stroke-width="2" stroke-miterlimit="10" x1="42" y1="150" x2="327" y2="150"/>
	<line fill="none" stroke="#3399CC" stroke-width="2" stroke-miterlimit="10" x1="42" y1="211" x2="327" y2="211"/>
	<line fill="none" stroke="#3399CC" stroke-width="2" stroke-miterlimit="10" x1="42" y1="273" x2="327" y2="273"/>
	<g>
		<path fill="#666666" d="M68.3,119.5c0-8.6,3.5-13.2,9.2-13.2s9.2,4.6,9.2,13.2c0,8.5-3.5,13.3-9.2,13.3S68.3,128,68.3,119.5z
			 M71.4,119.5c0,7.3,2.5,10.7,6.1,10.7s6.1-3.4,6.1-10.7c0-7.4-2.5-10.5-6.1-10.5S71.4,112.1,71.4,119.5z M75,119.2
			c0-1.6,1.2-2.6,2.5-2.6s2.5,1,2.5,2.6c0,1.7-1.2,2.7-2.5,2.7S75,120.9,75,119.2z"/>
	</g>
	<g>
		<path fill="#666666" d="M86.6,189.5v2.7H69.4v-2.7h7.2v-18.8h-5.4v-2.1c2.7-0.4,4.7-1,6.3-1.9h2.4v22.8H86.6z"/>
	</g>
	<g>
		<path fill="#666666" d="M68.4,254.4c8.6-7.6,13.4-12.1,13.4-16.4c0-2.9-1.8-5-5.6-5c-2.4,0-4.5,1.4-6.1,3.1l-1.9-1.9
			c2.3-2.3,4.8-3.9,8.4-3.9c5.1,0,8.3,3,8.3,7.5c0,4.8-4.8,9.6-11.8,15.9c1.6-0.1,3.2-0.2,4.8-0.2h8.4v2.8h-18V254.4z"/>
	</g>
	<g>
		<path fill="#666666" d="M69.4,312.8c1.7,1.6,4,3,7.3,3c3.5,0,6.1-1.8,6.1-4.7c0-3-2.6-5.1-9.3-5.1v-2.5c6,0,8.4-2.1,8.4-4.8
			c0-2.5-2.1-4-5.2-4c-2.4,0-4.6,1.1-6.3,2.6l-1.8-2.1c2.1-1.8,4.9-3.2,8.2-3.2c4.8,0,8.4,2.4,8.4,6.5c0,3.1-2.3,5-5.4,6.1v0.2
			c3.4,0.7,6.3,3,6.3,6.5c0,4.5-4.2,7.3-9.2,7.3c-4.4,0-7.3-1.7-9.2-3.6L69.4,312.8z"/>
	</g>
	<g>
		<path fill="#666666" d="M121.4,124.5c1.5,1.5,3.5,2.5,5.7,2.5c2.8,0,4.4-1.3,4.4-3.2c0-2-1.5-2.6-3.5-3.5l-2.8-1.2
			c-2-0.8-4.3-2.2-4.3-5.1c0-3,2.7-5.2,6.4-5.2c2.5,0,4.6,1,6.1,2.4l-1.3,1.6c-1.3-1.1-2.8-1.9-4.7-1.9c-2.4,0-3.9,1.1-3.9,2.9
			c0,1.9,1.8,2.6,3.5,3.3l2.8,1.2c2.4,1,4.3,2.3,4.3,5.2c0,3.1-2.6,5.6-7,5.6c-2.9,0-5.4-1.1-7.1-2.9L121.4,124.5z"/>
		<path fill="#666666" d="M143.7,111.2h-6.5v-2.1h15.5v2.1h-6.5v17.6h-2.5V111.2z"/>
		<path fill="#666666" d="M156.5,109.1h4.8c5.9,0,9.1,3.5,9.1,9.7c0,6.3-3.2,9.9-9,9.9h-4.9V109.1z M161.1,126.7
			c4.5,0,6.7-2.9,6.7-7.9c0-4.9-2.2-7.7-6.7-7.7H159v15.6H161.1z"/>
		<path fill="#666666" d="M192.8,126.7h4.9v-15.4h-4.9v-2.1h12.3v2.1h-4.9v15.4h4.9v2.1h-12.3V126.7z"/>
		<path fill="#666666" d="M210.4,109.1h2.5l6.4,12.4l2,4h0.1c-0.1-2-0.3-4.2-0.3-6.2v-10.2h2.4v19.7h-2.5l-6.4-12.4l-2-4h-0.1
			c0.1,2,0.3,4.1,0.3,6.1v10.3h-2.4V109.1z"/>
	</g>
	<g>
		<path fill="#666666" d="M121.4,185c1.5,1.5,3.5,2.5,5.7,2.5c2.8,0,4.4-1.3,4.4-3.2c0-2-1.5-2.6-3.5-3.5l-2.8-1.2
			c-2-0.8-4.3-2.2-4.3-5.1c0-3,2.7-5.2,6.4-5.2c2.5,0,4.6,1,6.1,2.4l-1.3,1.6c-1.3-1.1-2.8-1.9-4.7-1.9c-2.4,0-3.9,1.1-3.9,2.9
			c0,1.9,1.8,2.6,3.5,3.3l2.8,1.2c2.4,1,4.3,2.3,4.3,5.2c0,3.1-2.6,5.6-7,5.6c-2.9,0-5.4-1.1-7.1-2.9L121.4,185z"/>
		<path fill="#666666" d="M143.7,171.7h-6.5v-2.1h15.5v2.1h-6.5v17.6h-2.5V171.7z"/>
		<path fill="#666666" d="M156.5,169.6h4.8c5.9,0,9.1,3.5,9.1,9.7c0,6.3-3.2,9.9-9,9.9h-4.9V169.6z M161.1,187.2
			c4.5,0,6.7-2.9,6.7-7.9c0-4.9-2.2-7.7-6.7-7.7H159v15.6H161.1z"/>
		<path fill="#666666" d="M191.4,179.3c0-6.3,3.1-10.1,7.6-10.1s7.6,3.8,7.6,10.1c0,6.3-3.1,10.3-7.6,10.3S191.4,185.7,191.4,179.3z
			 M203.9,179.3c0-4.9-2-7.9-5-7.9c-3,0-5,3-5,7.9c0,4.9,2,8.1,5,8.1C201.9,187.4,203.9,184.2,203.9,179.3z"/>
		<path fill="#666666" d="M210.3,169.6h2.5v12.3c0,4.1,1.8,5.5,4.1,5.5c2.4,0,4.2-1.5,4.2-5.5v-12.3h2.4v12.2c0,5.6-2.8,7.8-6.6,7.8
			c-3.9,0-6.7-2.2-6.7-7.8V169.6z"/>
		<path fill="#666666" d="M233.7,171.7h-6.5v-2.1h15.5v2.1h-6.5v17.6h-2.5V171.7z"/>
	</g>
	<g>
		<path fill="#666666" d="M121.4,247.3c1.5,1.5,3.5,2.5,5.7,2.5c2.8,0,4.4-1.3,4.4-3.2c0-2-1.5-2.6-3.5-3.5l-2.8-1.2
			c-2-0.8-4.3-2.2-4.3-5.1c0-3,2.7-5.2,6.4-5.2c2.5,0,4.6,1,6.1,2.4l-1.3,1.6c-1.3-1.1-2.8-1.9-4.7-1.9c-2.4,0-3.9,1.1-3.9,2.9
			c0,1.9,1.8,2.6,3.5,3.3l2.8,1.2c2.4,1,4.3,2.3,4.3,5.2c0,3.1-2.6,5.6-7,5.6c-2.9,0-5.4-1.1-7.1-2.9L121.4,247.3z"/>
		<path fill="#666666" d="M143.7,234h-6.5v-2.1h15.5v2.1h-6.5v17.6h-2.5V234z"/>
		<path fill="#666666" d="M156.5,231.9h4.8c5.9,0,9.1,3.5,9.1,9.7c0,6.3-3.2,9.9-9,9.9h-4.9V231.9z M161.1,249.5
			c4.5,0,6.7-2.9,6.7-7.9c0-4.9-2.2-7.7-6.7-7.7H159v15.6H161.1z"/>
		<path fill="#666666" d="M193.4,231.9h12.1v2.1h-9.6v6.2h8.1v2.1h-8.1v7.1h9.9v2.1h-12.4V231.9z"/>
		<path fill="#666666" d="M221.7,251.6l-4.7-8.3h-3.5v8.3h-2.5v-19.7h6.1c4,0,6.9,1.4,6.9,5.5c0,3.1-1.7,4.9-4.4,5.6l5,8.6H221.7z
			 M213.4,241.2h3.3c3.1,0,4.7-1.3,4.7-3.8c0-2.6-1.7-3.5-4.7-3.5h-3.3V241.2z"/>
		<path fill="#666666" d="M239.7,251.6l-4.7-8.3h-3.5v8.3h-2.5v-19.7h6.1c4,0,6.9,1.4,6.9,5.5c0,3.1-1.7,4.9-4.4,5.6l5,8.6H239.7z
			 M231.4,241.2h3.3c3.1,0,4.7-1.3,4.7-3.8c0-2.6-1.7-3.5-4.7-3.5h-3.3V241.2z"/>
	</g>
	<g>
		<path fill="#666666" d="M125.7,296.9h-6.5v-2.1h15.5v2.1h-6.5v17.6h-2.5V296.9z"/>
		<path fill="#666666" d="M145.4,299.6c4.2,0,6.6,2.7,6.6,6.8c0,0.5,0,1-0.1,1.4h-11.4c0.1,3.1,2.4,5.1,5.6,5.1
			c1.7,0,3.1-0.5,4.4-1.3l0.9,1.6c-1.4,0.9-3.3,1.7-5.6,1.7c-4.3,0-7.8-2.9-7.8-7.6S141.6,299.6,145.4,299.6z M149.7,306.1
			c0-2.9-1.6-4.5-4.3-4.5c-2.4,0-4.5,1.7-4.9,4.5H149.7z"/>
		<path fill="#666666" d="M161.4,307l-5.1-7h2.7l2.3,3.2c0.5,0.8,1.1,1.6,1.7,2.5h0.1c0.5-0.8,1.1-1.7,1.6-2.5l2.2-3.1h2.6l-5.2,7.2
			l5.6,7.3h-2.7l-2.5-3.4c-0.6-0.8-1.3-1.8-1.9-2.6h-0.1c-0.6,0.9-1.2,1.7-1.8,2.6l-2.4,3.4h-2.6L161.4,307z"/>
		<path fill="#666666" d="M178.1,301.9H174v-1.9l4.2-0.1l0.3-4.1h2v4.1h7.2v2h-7.2v6.9c0,2.6,0.9,4,3.7,4c1.4,0,2.5-0.3,3.5-0.7
			l0.5,1.8c-1.3,0.5-3,0.9-4.6,0.9c-4.2,0-5.6-2.4-5.6-6V301.9z"/>
		<path fill="#666666" d="M212,294.8h12v2.1h-9.5v6.7h8.1v2.1h-8.1v8.8H212V294.8z"/>
		<path fill="#666666" d="M228.6,299.9h9.2v14.6h-2.5v-12.6h-6.8V299.9z M234.4,295c0-1.2,0.8-1.9,2-1.9c1.1,0,2,0.8,2,1.9
			c0,1.1-0.9,1.9-2,1.9C235.2,296.9,234.4,296.2,234.4,295z"/>
		<path fill="#666666" d="M246.3,293.2h7.4v16.6c0,2.1,1.1,3,2.8,3c0.8,0,1.7-0.2,2.8-0.7l0.6,1.9c-1.3,0.5-2.3,0.9-3.9,0.9
			c-3.1,0-4.8-1.8-4.8-5.2v-14.5h-5V293.2z"/>
		<path fill="#666666" d="M271.4,299.6c4.2,0,6.6,2.7,6.6,6.8c0,0.5,0,1-0.1,1.4h-11.4c0.1,3.1,2.4,5.1,5.6,5.1
			c1.7,0,3.1-0.5,4.4-1.3l0.9,1.6c-1.4,0.9-3.3,1.7-5.6,1.7c-4.3,0-7.8-2.9-7.8-7.6S267.6,299.6,271.4,299.6z M275.7,306.1
			c0-2.9-1.6-4.5-4.3-4.5c-2.4,0-4.5,1.7-4.9,4.5H275.7z"/>
	</g>
</g>
<circle fill="#3399CC" cx="299.1" cy="119.6" r="15.2"/>
<circle fill="#3399CC" cx="299.1" cy="181.3" r="15.2"/>
<circle fill="#3399CC" cx="299.1" cy="243" r="15.2"/>
<circle fill="#3399CC" cx="299.1" cy="305.9" r="15.2"/>
<line fill="none" stroke="#3399CC" stroke-width="6" stroke-linecap="round" stroke-miterlimit="10" x1="298.7" y1="120" x2="483.8" y2="134.8"/>
<line fill="none" stroke="#3399CC" stroke-width="6" stroke-linecap="round" stroke-miterlimit="10" x1="299" y1="181.3" x2="483.8" y2="151.7"/>
<line fill="none" stroke="#3399CC" stroke-width="6" stroke-linecap="round" stroke-miterlimit="10" x1="299" y1="243" x2="483.8" y2="171.9"/>
<line fill="none" stroke="#3399CC" stroke-width="6" stroke-linecap="round" stroke-miterlimit="10" x1="299.1" y1="305.9" x2="483.8" y2="434.4"/>
</svg>
