<?xml version="1.0" encoding="utf-8"?>
<!-- Generator: Adobe Illustrator 18.0.0, SVG Export Plug-In . SVG Version: 6.00 Build 0)  -->
<!DOCTYPE svg PUBLIC "-//W3C//DTD SVG 1.1//EN" "http://www.w3.org/Graphics/SVG/1.1/DTD/svg11.dtd">
<svg version="1.1" xmlns="http://www.w3.org/2000/svg" xmlns:xlink="http://www.w3.org/1999/xlink" x="0px" y="0px"
	 viewBox="0 0 680 169.3" enable-background="new 0 0 680 169.3" xml:space="preserve">
<g id="Layer_8">
	<rect x="10" y="33.5" fill="#D6D7FF" stroke="#000000" stroke-width="2" stroke-miterlimit="10" width="110" height="110"/>
	<g>
		<path d="M3.7,157.3c0-5.6,2.3-8.6,6-8.6s6,3,6,8.6c0,5.5-2.3,8.7-6,8.7S3.7,162.8,3.7,157.3z M5.7,157.3c0,4.8,1.6,6.9,4,6.9
			s4-2.2,4-6.9c0-4.8-1.6-6.8-4-6.8S5.7,152.5,5.7,157.3z M8.1,157.1c0-1.1,0.8-1.7,1.6-1.7s1.6,0.7,1.6,1.7c0,1.1-0.8,1.7-1.6,1.7
			S8.1,158.2,8.1,157.1z"/>
	</g>
	<g>
		<path d="M126.4,161.1h-2.6v4.6h-2v-4.6h-8.6v-1.4l8.3-10.6h2.3v10.3h2.6V161.1z M121.8,159.4v-5.1c0-0.9,0.1-2,0.1-2.9h-0.1
			c-0.5,0.8-1.1,1.6-1.7,2.4l-4.5,5.7H121.8z"/>
	</g>
	<g>
		<g>
			<path fill="#989898" d="M338.3,163.9v1.8h-11.2v-1.8h4.7v-12.2h-3.5v-1.4c1.8-0.3,3-0.7,4.1-1.2h1.6v14.8H338.3z"/>
			<path fill="#989898" d="M342.1,164.4c5.6-5,8.7-7.9,8.7-10.6c0-1.9-1.2-3.2-3.6-3.2c-1.6,0-2.9,0.9-4,2l-1.2-1.2
				c1.5-1.5,3.1-2.5,5.5-2.5c3.3,0,5.4,2,5.4,4.9c0,3.1-3.1,6.2-7.6,10.3c1-0.1,2.1-0.2,3.1-0.2h5.5v1.8h-11.7V164.4z"/>
		</g>
	</g>
	<g>
		<g>
			<path fill="#FF4D1D" d="M226.8,157.4v-0.1c-1.4-1-2.4-2.2-2.4-3.9c0-2.8,2.3-4.6,5.6-4.6c3.3,0,5.4,1.8,5.4,4.5
				c0,1.5-1.1,2.8-2.4,3.6v0.1c1.7,0.9,3.1,2.1,3.1,4.3c0,2.6-2.2,4.6-6.3,4.6c-3.8,0-6.2-1.8-6.2-4.5
				C223.7,159.4,225.1,158.2,226.8,157.4z M230,163.3c1.5,0,2.6-0.7,2.6-2.1c0-1.5-1.6-2-4-2.9c-0.9,0.7-1.6,1.6-1.6,2.6
				C227,162.5,228.3,163.3,230,163.3z M232.3,153.6c0-1.3-0.8-2.1-2.3-2.1c-1.2,0-2.2,0.6-2.2,1.9c0,1.4,1.4,2,3.3,2.7
				C231.9,155.3,232.3,154.5,232.3,153.6z"/>
		</g>
	</g>
	<g>
		<g>
			<path fill="#FF4D1D" d="M448.2,162.6v3.1h-11.8v-3.1h4.3V153h-3.4v-2.4c1.9-0.3,3.2-0.8,4.4-1.5h2.8v13.4H448.2z"/>
			<path fill="#FF4D1D" d="M461.8,153.1c-0.7-0.6-1.8-1.2-2.9-1.2c-2,0-3.8,1.3-3.9,5.2c1.2-1.1,2.7-1.8,4-1.8
				c2.9,0,5.1,1.6,5.1,5.1c0,3.4-2.8,5.5-5.9,5.5c-3.4,0-6.7-2.4-6.7-8.2c0-6.2,3.5-8.9,7.1-8.9c2.3,0,4.1,0.9,5.3,2L461.8,153.1z
				 M460.6,160.4c0-1.7-1-2.4-2.4-2.4c-1,0-2,0.4-3,1.6c0.4,2.6,1.7,3.5,3,3.5C459.4,163.1,460.6,162.3,460.6,160.4z"/>
		</g>
	</g>
	<g>
		<g>
			<path d="M546.2,164.4c5.6-5,8.7-7.9,8.7-10.6c0-1.9-1.2-3.2-3.6-3.2c-1.6,0-2.9,0.9-4,2l-1.2-1.2c1.5-1.5,3.1-2.5,5.5-2.5
				c3.3,0,5.4,2,5.4,4.9c0,3.1-3.1,6.2-7.6,10.3c1-0.1,2.1-0.2,3.1-0.2h5.5v1.8h-11.7V164.4z"/>
			<path d="M561.7,157.3c0-5.6,2.3-8.6,6-8.6c3.7,0,6,3,6,8.6c0,5.5-2.3,8.7-6,8.7C564,166,561.7,162.8,561.7,157.3z M563.7,157.3
				c0,4.8,1.6,6.9,4,6.9c2.3,0,4-2.2,4-6.9c0-4.8-1.6-6.8-4-6.8C565.3,150.5,563.7,152.5,563.7,157.3z M566,157.1
				c0-1.1,0.8-1.7,1.6-1.7c0.9,0,1.6,0.7,1.6,1.7c0,1.1-0.8,1.7-1.6,1.7C566.8,158.9,566,158.2,566,157.1z"/>
		</g>
	</g>
	<g>
		<path d="M56.1,78.4h16.8v2.9H59.5v9.3h11.3v2.9H59.5v12.4h-3.5V78.4z"/>
	</g>
	<rect x="559.9" y="33.5" fill="#D6D7FF" stroke="#000000" stroke-width="2" stroke-miterlimit="10" width="110" height="110"/>
	<g>
		<path d="M608.6,78.4h3.5v11.6h11.5V78.4h3.5v27.6h-3.5V93h-11.5v13h-3.5V78.4z"/>
	</g>
	<rect x="120" y="33.5" fill="#D9F5FF" stroke="#000000" stroke-width="2" stroke-miterlimit="10" width="110" height="110"/>
	<rect x="229.9" y="33.5" fill="#D3FFD6" stroke="#000000" stroke-width="2" stroke-miterlimit="10" width="220.6" height="110"/>
	<rect x="449.9" y="33.5" fill="#D9F5FF" stroke="#000000" stroke-width="2" stroke-miterlimit="10" width="110" height="110"/>
	<g>
		<g>
			<path d="M648.3,164.4c5.6-5,8.7-7.9,8.7-10.6c0-1.9-1.2-3.2-3.6-3.2c-1.6,0-2.9,0.9-4,2l-1.2-1.2c1.5-1.5,3.1-2.5,5.5-2.5
				c3.3,0,5.4,2,5.4,4.9c0,3.1-3.1,6.2-7.6,10.3c1-0.1,2.1-0.2,3.1-0.2h5.5v1.8h-11.7V164.4z"/>
			<path d="M676.2,161.1h-2.6v4.6h-2v-4.6H663v-1.4l8.3-10.6h2.3v10.3h2.6V161.1z M671.6,159.4v-5.1c0-0.9,0.1-2,0.1-2.9h-0.1
				c-0.5,0.8-1.1,1.6-1.7,2.4l-4.5,5.7H671.6z"/>
		</g>
	</g>
	<g>
		<path d="M331.9,78.4h8.4c6.1,0,10.2,2.1,10.2,8.1c0,5.8-4.1,8.5-10.2,8.5h-5v10.9h-3.5V78.4z M339.9,92.2c4.8,0,7.1-1.8,7.1-5.7
			c0-4-2.4-5.3-7.1-5.3h-4.5v11H339.9z"/>
	</g>
	<g>
		<path d="M497.9,78.4h16.8v2.9h-13.4v9.3h11.3v2.9h-11.3v12.4h-3.5V78.4z"/>
	</g>
	<g>
		<path d="M166.7,78.4h3.5v11.6h11.5V78.4h3.5v27.6h-3.5V93h-11.5v13h-3.5V78.4z"/>
	</g>
	<rect x="10" y="5" fill="none" stroke="#000000" stroke-width="2" stroke-miterlimit="10" width="109.7" height="28.5"/>
	<g>
		<g>
			<path d="M22.2,22.9c0.9,0.9,2.2,1.5,3.5,1.5c1.7,0,2.7-0.8,2.7-2c0-1.3-1-1.6-2.2-2.2l-1.8-0.8c-1.2-0.5-2.7-1.4-2.7-3.2
				c0-1.9,1.7-3.2,4-3.2c1.5,0,2.9,0.6,3.8,1.5l-0.8,1c-0.8-0.7-1.7-1.2-3-1.2c-1.5,0-2.4,0.7-2.4,1.8c0,1.2,1.1,1.6,2.2,2l1.7,0.7
				c1.5,0.6,2.7,1.5,2.7,3.3c0,1.9-1.6,3.5-4.3,3.5c-1.8,0-3.3-0.7-4.4-1.8L22.2,22.9z"/>
			<path d="M37.1,16.3c2.6,0,4.1,1.7,4.1,4.3c0,0.3,0,0.7-0.1,0.9h-7.1c0.1,1.9,1.5,3.2,3.5,3.2c1.1,0,1.9-0.3,2.8-0.8l0.5,1
				c-0.9,0.6-2,1.1-3.5,1.1c-2.7,0-4.9-1.8-4.9-4.7C32.5,18.1,34.8,16.3,37.1,16.3z M39.9,20.3c0-1.8-1-2.8-2.7-2.8
				c-1.5,0-2.8,1-3.1,2.8H39.9z"/>
			<path d="M44.2,16.5h1.3l0.1,1.6h0.1c1-1,2-1.8,3.4-1.8c2.1,0,3.1,1.3,3.1,3.7v5.6h-1.5v-5.4c0-1.7-0.6-2.5-2.1-2.5
				c-1.1,0-1.8,0.5-2.9,1.6v6.3h-1.5V16.5z"/>
			<path d="M57.5,17.8h-2.6v-1.2l2.6-0.1l0.2-2.5H59v2.5h4.5v1.3H59v4.3c0,1.6,0.5,2.5,2.3,2.5c0.9,0,1.6-0.2,2.2-0.4l0.3,1.1
				C63,25.6,62,25.8,61,25.8c-2.6,0-3.5-1.5-3.5-3.8V17.8z"/>
			<path d="M66.5,16.5h5.8v9.1h-1.5v-7.8h-4.2V16.5z M70.1,13.5c0-0.7,0.5-1.2,1.2-1.2c0.7,0,1.2,0.5,1.2,1.2c0,0.7-0.5,1.2-1.2,1.2
				C70.6,14.7,70.1,14.2,70.1,13.5z"/>
			<path d="M77.8,16.5h1.3l0.1,1.6h0.1c1-1,2-1.8,3.4-1.8c2.1,0,3.1,1.3,3.1,3.7v5.6h-1.5v-5.4c0-1.7-0.6-2.5-2.1-2.5
				c-1.1,0-1.8,0.5-2.9,1.6v6.3h-1.5V16.5z"/>
			<path d="M93.2,16.3c2.6,0,4.1,1.7,4.1,4.3c0,0.3,0,0.7-0.1,0.9h-7.1c0.1,1.9,1.5,3.2,3.5,3.2c1.1,0,1.9-0.3,2.8-0.8l0.5,1
				c-0.9,0.6-2,1.1-3.5,1.1c-2.7,0-4.9-1.8-4.9-4.7C88.5,18.1,90.8,16.3,93.2,16.3z M95.9,20.3c0-1.8-1-2.8-2.7-2.8
				c-1.5,0-2.8,1-3.1,2.8H95.9z"/>
			<path d="M100,12.3h4.6v10.4c0,1.3,0.7,1.9,1.8,1.9c0.5,0,1-0.1,1.7-0.4l0.4,1.2c-0.8,0.3-1.5,0.5-2.4,0.5c-1.9,0-3-1.1-3-3.3v-9
				H100V12.3z"/>
		</g>
	</g>
	<rect x="560.1" y="5" fill="none" stroke="#000000" stroke-width="2" stroke-miterlimit="10" width="109.8" height="28.5"/>
	<g>
		<g>
			<path d="M572.4,22.9c0.9,0.9,2.2,1.5,3.5,1.5c1.7,0,2.7-0.8,2.7-2c0-1.3-1-1.6-2.2-2.2l-1.8-0.8c-1.2-0.5-2.7-1.4-2.7-3.2
				c0-1.9,1.7-3.2,4-3.2c1.5,0,2.9,0.6,3.8,1.5l-0.8,1c-0.8-0.7-1.7-1.2-3-1.2c-1.5,0-2.4,0.7-2.4,1.8c0,1.2,1.1,1.6,2.2,2l1.7,0.7
				c1.5,0.6,2.7,1.5,2.7,3.3c0,1.9-1.6,3.5-4.3,3.5c-1.8,0-3.3-0.7-4.4-1.8L572.4,22.9z"/>
			<path d="M587.3,16.3c2.6,0,4.1,1.7,4.1,4.3c0,0.3,0,0.7-0.1,0.9h-7.1c0.1,1.9,1.5,3.2,3.5,3.2c1.1,0,1.9-0.3,2.8-0.8l0.5,1
				c-0.9,0.6-2,1.1-3.5,1.1c-2.7,0-4.9-1.8-4.9-4.7C582.7,18.1,585,16.3,587.3,16.3z M590,20.3c0-1.8-1-2.8-2.7-2.8
				c-1.5,0-2.8,1-3.1,2.8H590z"/>
			<path d="M594.4,16.5h1.3l0.1,1.6h0.1c1-1,2-1.8,3.4-1.8c2.1,0,3.1,1.3,3.1,3.7v5.6h-1.5v-5.4c0-1.7-0.6-2.5-2.1-2.5
				c-1.1,0-1.8,0.5-2.9,1.6v6.3h-1.5V16.5z"/>
			<path d="M607.7,17.8h-2.6v-1.2l2.6-0.1l0.2-2.5h1.3v2.5h4.5v1.3h-4.5v4.3c0,1.6,0.5,2.5,2.3,2.5c0.9,0,1.6-0.2,2.2-0.4l0.3,1.1
				c-0.8,0.3-1.9,0.5-2.9,0.5c-2.6,0-3.5-1.5-3.5-3.8V17.8z"/>
			<path d="M616.7,16.5h5.8v9.1h-1.5v-7.8h-4.2V16.5z M620.3,13.5c0-0.7,0.5-1.2,1.2-1.2c0.7,0,1.2,0.5,1.2,1.2
				c0,0.7-0.5,1.2-1.2,1.2C620.8,14.7,620.3,14.2,620.3,13.5z"/>
			<path d="M628,16.5h1.3l0.1,1.6h0.1c1-1,2-1.8,3.4-1.8c2.1,0,3.1,1.3,3.1,3.7v5.6h-1.5v-5.4c0-1.7-0.6-2.5-2.1-2.5
				c-1.1,0-1.8,0.5-2.9,1.6v6.3H628V16.5z"/>
			<path d="M643.4,16.3c2.6,0,4.1,1.7,4.1,4.3c0,0.3,0,0.7-0.1,0.9h-7.1c0.1,1.9,1.5,3.2,3.5,3.2c1.1,0,1.9-0.3,2.8-0.8l0.5,1
				c-0.9,0.6-2,1.1-3.5,1.1c-2.7,0-4.9-1.8-4.9-4.7C638.7,18.1,641,16.3,643.4,16.3z M646.1,20.3c0-1.8-1-2.8-2.7-2.8
				c-1.5,0-2.8,1-3.1,2.8H646.1z"/>
			<path d="M650.2,12.3h4.6v10.4c0,1.3,0.7,1.9,1.8,1.9c0.5,0,1-0.1,1.7-0.4l0.4,1.2c-0.8,0.3-1.5,0.5-2.4,0.5c-1.9,0-3-1.1-3-3.3
				v-9h-3.1V12.3z"/>
		</g>
	</g>
</g>
<g id="Layer_7">
</g>
<g id="Layer_6">
</g>
<g id="Layer_5">
</g>
<g id="Layer_4">
</g>
<g id="Layer_3">
</g>
<g id="Layer_2">
</g>
<g id="Layer_1">
</g>
<g id="Guids" display="none">
</g>
</svg>
