<?xml version="1.0" encoding="utf-8"?>
<!-- Generator: Adobe Illustrator 18.0.0, SVG Export Plug-In . SVG Version: 6.00 Build 0)  -->
<!DOCTYPE svg PUBLIC "-//W3C//DTD SVG 1.1//EN" "http://www.w3.org/Graphics/SVG/1.1/DTD/svg11.dtd">
<svg version="1.1" xmlns="http://www.w3.org/2000/svg" xmlns:xlink="http://www.w3.org/1999/xlink" x="0px" y="0px"
	 viewBox="0 0 680 120.7" enable-background="new 0 0 680 120.7" xml:space="preserve">
<g id="Layer_8">
</g>
<g id="Layer_7">
</g>
<g id="Layer_6">
</g>
<g id="Layer_5">
	<g>
		<rect x="604" y="32.5" fill="#FFE4E3" width="66" height="66"/>
		<g>
			<polyline fill="none" stroke="#000000" stroke-miterlimit="10" points="670,97.1 670,98.5 668.6,98.5 			"/>
			
				<line fill="none" stroke="#000000" stroke-miterlimit="10" stroke-dasharray="2.7478,2.7478" x1="665.9" y1="98.5" x2="606.8" y2="98.5"/>
			<polyline fill="none" stroke="#000000" stroke-miterlimit="10" points="605.4,98.5 604,98.5 604,97.1 			"/>
			
				<line fill="none" stroke="#000000" stroke-miterlimit="10" stroke-dasharray="2.7478,2.7478" x1="604" y1="94.3" x2="604" y2="35.2"/>
			<polyline fill="none" stroke="#000000" stroke-miterlimit="10" points="604,33.9 604,32.5 605.4,32.5 			"/>
			
				<line fill="none" stroke="#000000" stroke-miterlimit="10" stroke-dasharray="2.7478,2.7478" x1="608.1" y1="32.5" x2="667.2" y2="32.5"/>
			<polyline fill="none" stroke="#000000" stroke-miterlimit="10" points="668.6,32.5 670,32.5 670,33.9 			"/>
			
				<line fill="none" stroke="#000000" stroke-miterlimit="10" stroke-dasharray="2.7478,2.7478" x1="670" y1="36.6" x2="670" y2="95.7"/>
		</g>
	</g>
	<g>
		<path d="M628.9,66.3c0-8.4,4.2-13.5,10.1-13.5s10.1,5.1,10.1,13.5c0,8.4-4.2,13.7-10.1,13.7S628.9,74.7,628.9,66.3z M645.6,66.3
			c0-6.5-2.6-10.6-6.6-10.6s-6.6,4-6.6,10.6c0,6.6,2.6,10.8,6.6,10.8S645.6,72.8,645.6,66.3z"/>
	</g>
	<g>
		<rect x="10" y="32.5" fill="#FFE4E3" width="66" height="66"/>
		<g>
			<polyline fill="none" stroke="#000000" stroke-miterlimit="10" points="76,97.1 76,98.5 74.6,98.5 			"/>
			
				<line fill="none" stroke="#000000" stroke-miterlimit="10" stroke-dasharray="2.7478,2.7478" x1="71.9" y1="98.5" x2="12.8" y2="98.5"/>
			<polyline fill="none" stroke="#000000" stroke-miterlimit="10" points="11.4,98.5 10,98.5 10,97.1 			"/>
			
				<line fill="none" stroke="#000000" stroke-miterlimit="10" stroke-dasharray="2.7478,2.7478" x1="10" y1="94.3" x2="10" y2="35.2"/>
			<polyline fill="none" stroke="#000000" stroke-miterlimit="10" points="10,33.9 10,32.5 11.4,32.5 			"/>
			
				<line fill="none" stroke="#000000" stroke-miterlimit="10" stroke-dasharray="2.7478,2.7478" x1="14.1" y1="32.5" x2="73.2" y2="32.5"/>
			<polyline fill="none" stroke="#000000" stroke-miterlimit="10" points="74.6,32.5 76,32.5 76,33.9 			"/>
			
				<line fill="none" stroke="#000000" stroke-miterlimit="10" stroke-dasharray="2.7478,2.7478" x1="76" y1="36.6" x2="76" y2="95.7"/>
		</g>
	</g>
	<rect x="76" y="32.5" fill="#D6D7FF" stroke="#000000" stroke-miterlimit="10" width="66" height="66"/>
	<rect x="142" y="32.5" fill="#D6D7FF" stroke="#000000" stroke-miterlimit="10" width="66" height="66"/>
	<g>
		<path d="M5.6,111c0-3.9,1.6-5.9,4.1-5.9c2.6,0,4.1,2.1,4.1,5.9c0,3.8-1.6,6-4.1,6C7.1,117,5.6,114.8,5.6,111z M6.9,111
			c0,3.3,1.1,4.8,2.7,4.8c1.6,0,2.7-1.5,2.7-4.8c0-3.3-1.1-4.7-2.7-4.7C8.1,106.3,6.9,107.7,6.9,111z M8.6,110.9
			c0-0.7,0.5-1.2,1.1-1.2c0.6,0,1.1,0.5,1.1,1.2c0,0.8-0.5,1.2-1.1,1.2C9.1,112.1,8.6,111.7,8.6,110.9z"/>
	</g>
	<g>
		<path d="M80.2,113.6h-1.8v3.2H77v-3.2h-5.9v-1l5.7-7.3h1.6v7.1h1.8V113.6z M77,112.4v-3.6c0-0.6,0.1-1.4,0.1-2H77
			c-0.4,0.6-0.8,1.1-1.2,1.7l-3.1,3.9H77z"/>
	</g>
	<g>
		<g>
			<path d="M206.8,115.6v1.2h-7.7v-1.2h3.3v-8.5h-2.4v-1c1.2-0.2,2.1-0.5,2.8-0.8h1.1v10.3H206.8z"/>
			<path d="M209.4,115.9c3.9-3.4,6-5.5,6-7.4c0-1.3-0.8-2.3-2.5-2.3c-1.1,0-2,0.6-2.8,1.4l-0.8-0.8c1-1,2.2-1.7,3.8-1.7
				c2.3,0,3.7,1.4,3.7,3.4c0,2.2-2.2,4.3-5.3,7.1c0.7-0.1,1.5-0.1,2.1-0.1h3.8v1.3h-8.1V115.9z"/>
		</g>
	</g>
	<g>
		<g>
			<path d="M140.1,110.8L140.1,110.8c-1-0.7-1.7-1.5-1.7-2.8c0-1.8,1.5-3,3.5-3c2.3,0,3.6,1.3,3.6,3.1c0,1.1-0.8,2.1-1.7,2.7v0.1
				c1.3,0.6,2.3,1.4,2.3,3c0,1.7-1.5,3.1-4.1,3.1c-2.6,0-4.2-1.3-4.2-3.2C137.7,112.3,138.9,111.4,140.1,110.8z M141.9,115.9
				c1.7,0,2.7-0.8,2.7-2c0-1.6-1.6-2-3.6-2.7c-1.1,0.6-2,1.4-2,2.5C139,115,140.2,115.9,141.9,115.9z M144.2,108.2
				c0-1.1-0.8-2-2.3-2c-1.3,0-2.2,0.7-2.2,1.9c0,1.4,1.3,1.9,3,2.5C143.7,109.8,144.2,109.1,144.2,108.2z"/>
		</g>
	</g>
	<g>
		<g>
			<path fill="#FF4D1D" d="M272.9,114.7v2.1h-8.2v-2.1h3V108h-2.4v-1.6c1.3-0.2,2.2-0.6,3.1-1h1.9v9.3H272.9z"/>
			<path fill="#FF4D1D" d="M282.3,108.1c-0.5-0.4-1.3-0.8-2-0.8c-1.4,0-2.6,0.9-2.7,3.6c0.8-0.8,1.9-1.2,2.8-1.2
				c2,0,3.5,1.1,3.5,3.5c0,2.4-1.9,3.8-4.1,3.8c-2.3,0-4.6-1.7-4.6-5.7c0-4.3,2.4-6.2,4.9-6.2c1.6,0,2.9,0.6,3.6,1.4L282.3,108.1z
				 M281.4,113.2c0-1.2-0.7-1.7-1.7-1.7c-0.7,0-1.4,0.3-2.1,1.1c0.3,1.8,1.2,2.4,2.1,2.4C280.6,115,281.4,114.5,281.4,113.2z"/>
		</g>
	</g>
	<g>
		<g>
			<path fill="#989898" d="M330.1,115.9c3.9-3.4,6-5.5,6-7.4c0-1.3-0.8-2.3-2.5-2.3c-1.1,0-2,0.6-2.8,1.4l-0.8-0.8
				c1-1,2.2-1.7,3.8-1.7c2.3,0,3.7,1.4,3.7,3.4c0,2.2-2.2,4.3-5.3,7.1c0.7-0.1,1.5-0.1,2.1-0.1h3.8v1.3h-8.1V115.9z"/>
			<path fill="#989898" d="M340.9,111c0-3.9,1.6-5.9,4.1-5.9s4.1,2.1,4.1,5.9c0,3.8-1.6,6-4.1,6S340.9,114.8,340.9,111z M342.3,111
				c0,3.3,1.1,4.8,2.7,4.8s2.7-1.5,2.7-4.8c0-3.3-1.1-4.7-2.7-4.7S342.3,107.7,342.3,111z M343.9,110.9c0-0.7,0.5-1.2,1.1-1.2
				c0.6,0,1.1,0.5,1.1,1.2c0,0.8-0.5,1.2-1.1,1.2C344.4,112.1,343.9,111.7,343.9,110.9z"/>
		</g>
	</g>
	<g>
		<path d="M168.4,53.3h16v2.8h-12.7V65h10.8v2.8h-10.8v11.8h-3.3V53.3z"/>
	</g>
	<g>
		<path d="M101.2,53.3h3.4v11h11v-11h3.4v26.2h-3.4V67.2h-11v12.4h-3.4V53.3z"/>
	</g>
	<rect x="472" y="32.5" fill="#D6D7FF" stroke="#000000" stroke-miterlimit="10" width="66" height="66"/>
	<rect x="538" y="32.5" fill="#D6D7FF" stroke="#000000" stroke-miterlimit="10" width="66" height="66"/>
	<g>
		<path d="M564.4,53.3h16v2.8h-12.7V65h10.8v2.8h-10.8v11.8h-3.3V53.3z"/>
	</g>
	<g>
		<path d="M497.2,53.3h3.4v11h11v-11h3.4v26.2h-3.4V67.2h-11v12.4h-3.4V53.3z"/>
	</g>
	<rect x="208" y="32.5" fill="#D9F5FF" stroke="#000000" stroke-miterlimit="10" width="66" height="66"/>
	<rect x="274" y="32.5" fill="#D3FFD6" stroke="#000000" stroke-miterlimit="10" width="132.4" height="66"/>
	<rect x="406" y="32.5" fill="#D9F5FF" stroke="#000000" stroke-miterlimit="10" width="66" height="66"/>
	<g>
		<g>
			<path d="M463,115.9c3.9-3.4,6-5.5,6-7.4c0-1.3-0.8-2.3-2.5-2.3c-1.1,0-2,0.6-2.8,1.4l-0.8-0.8c1-1,2.2-1.7,3.8-1.7
				c2.3,0,3.7,1.4,3.7,3.4c0,2.2-2.2,4.3-5.3,7.1c0.7-0.1,1.5-0.1,2.1-0.1h3.8v1.3H463V115.9z"/>
			<path d="M476.2,110.8L476.2,110.8c-1-0.7-1.7-1.5-1.7-2.8c0-1.8,1.5-3,3.5-3c2.3,0,3.6,1.3,3.6,3.1c0,1.1-0.8,2.1-1.7,2.7v0.1
				c1.3,0.6,2.2,1.4,2.2,3c0,1.7-1.5,3.1-4.1,3.1c-2.6,0-4.2-1.3-4.2-3.2C473.7,112.3,475,111.4,476.2,110.8z M478,115.9
				c1.7,0,2.7-0.8,2.7-2c0-1.6-1.6-2-3.6-2.7c-1.1,0.6-2,1.4-2,2.5C475.1,115,476.2,115.9,478,115.9z M480.3,108.2
				c0-1.1-0.8-2-2.3-2c-1.3,0-2.2,0.7-2.2,1.9c0,1.4,1.3,1.9,3,2.5C479.8,109.8,480.3,109.1,480.3,108.2z"/>
		</g>
	</g>
	<g>
		<g>
			<path fill="#FF4D1D" d="M396.5,115.3c3.3-2.8,5.5-4.7,5.5-6.3c0-1.1-0.7-1.7-1.9-1.7c-0.9,0-1.7,0.6-2.3,1.2l-1.4-1.4
				c1.2-1.2,2.3-1.8,4.1-1.8c2.4,0,4,1.4,4,3.6c0,1.9-2,4-4.2,5.9c0.6-0.1,1.5-0.1,2.1-0.1h2.7v2.2h-8.6V115.3z"/>
			<path fill="#FF4D1D" d="M416.3,114.1h-1.4v2.7h-2.5v-2.7h-5.5v-1.8l4.8-6.9h3.2v6.7h1.4V114.1z M412.3,112v-1.9
				c0-0.7,0.1-1.8,0.1-2.5h-0.1c-0.4,0.6-0.8,1.3-1.2,1.9l-1.7,2.5H412.3z"/>
		</g>
	</g>
	<g>
		<path d="M529.4,114.4c0.8,0.7,1.8,1.4,3.3,1.4c1.6,0,2.8-0.8,2.8-2.1c0-1.4-1.2-2.3-4.2-2.3v-1.1c2.7,0,3.8-0.9,3.8-2.1
			c0-1.1-0.9-1.8-2.3-1.8c-1.1,0-2.1,0.5-2.8,1.2l-0.8-0.9c1-0.8,2.2-1.4,3.7-1.4c2.2,0,3.8,1.1,3.8,2.9c0,1.4-1,2.3-2.4,2.7v0.1
			c1.5,0.3,2.8,1.3,2.8,2.9c0,2-1.9,3.3-4.2,3.3c-2,0-3.3-0.8-4.1-1.6L529.4,114.4z"/>
		<path d="M539.7,115.9c3.9-3.4,6-5.5,6-7.4c0-1.3-0.8-2.3-2.5-2.3c-1.1,0-2,0.6-2.8,1.4l-0.8-0.8c1-1,2.2-1.7,3.8-1.7
			c2.3,0,3.7,1.4,3.7,3.4c0,2.2-2.2,4.3-5.3,7.1c0.7-0.1,1.5-0.1,2.1-0.1h3.8v1.3h-8.1V115.9z"/>
	</g>
	<g>
		<path d="M595,114.4c0.8,0.7,1.8,1.4,3.3,1.4c1.6,0,2.8-0.8,2.8-2.1c0-1.4-1.2-2.3-4.2-2.3v-1.1c2.7,0,3.8-0.9,3.8-2.1
			c0-1.1-0.9-1.8-2.3-1.8c-1.1,0-2.1,0.5-2.8,1.2l-0.8-0.9c1-0.8,2.2-1.4,3.7-1.4c2.2,0,3.8,1.1,3.8,2.9c0,1.4-1,2.3-2.4,2.7v0.1
			c1.5,0.3,2.8,1.3,2.8,2.9c0,2-1.9,3.3-4.2,3.3c-2,0-3.3-0.8-4.1-1.6L595,114.4z"/>
		<path d="M612.5,107.2c-0.6-0.6-1.4-0.9-2.3-0.9c-1.8,0-3.5,1.2-3.5,4.9c0.9-0.9,2.1-1.5,3.3-1.5c2.1,0,3.6,1.2,3.6,3.5
			c0,2.2-1.8,3.7-3.8,3.7c-2.5,0-4.4-1.8-4.4-5.5c0-4.6,2.3-6.4,4.8-6.4c1.4,0,2.4,0.5,3.2,1.2L612.5,107.2z M612.2,113.3
			c0-1.6-0.9-2.4-2.4-2.4c-0.9,0-2,0.4-2.9,1.5c0.2,2.2,1.3,3.4,3,3.4C611.1,115.8,612.2,114.8,612.2,113.3z"/>
	</g>
	<g>
		<path d="M667,113.6h-1.8v3.2h-1.4v-3.2h-5.9v-1l5.7-7.3h1.6v7.1h1.8V113.6z M663.8,112.4v-3.6c0-0.6,0.1-1.4,0.1-2h-0.1
			c-0.4,0.6-0.8,1.1-1.2,1.7l-3.1,3.9H663.8z"/>
		<path d="M669.3,111c0-3.9,1.6-5.9,4.1-5.9s4.1,2.1,4.1,5.9c0,3.8-1.6,6-4.1,6S669.3,114.8,669.3,111z M670.7,111
			c0,3.3,1.1,4.8,2.7,4.8s2.7-1.5,2.7-4.8c0-3.3-1.1-4.7-2.7-4.7S670.7,107.7,670.7,111z M672.3,110.9c0-0.7,0.5-1.2,1.1-1.2
			c0.6,0,1.1,0.5,1.1,1.2c0,0.8-0.5,1.2-1.1,1.2C672.8,112.1,672.3,111.7,672.3,110.9z"/>
	</g>
	<g>
		<path d="M332.3,53.3h8c5.8,0,9.7,2,9.7,7.7c0,5.5-3.9,8.1-9.7,8.1h-4.7v10.4h-3.3V53.3z M339.9,66.4c4.6,0,6.8-1.7,6.8-5.4
			c0-3.8-2.2-5-6.8-5h-4.3v10.4H339.9z"/>
	</g>
	<g>
		<path d="M432.4,53.3h16v2.8h-12.7V65h10.8v2.8h-10.8v11.8h-3.3V53.3z"/>
	</g>
	<g>
		<path d="M232.2,53.3h3.4v11h11v-11h3.4v26.2h-3.4V67.2h-11v12.4h-3.4V53.3z"/>
	</g>
	<g>
		<path d="M31.9,66.3c0-8.4,4.2-13.5,10.1-13.5s10.1,5.1,10.1,13.5C52.1,74.7,47.9,80,42,80S31.9,74.7,31.9,66.3z M48.6,66.3
			c0-6.5-2.6-10.6-6.6-10.6s-6.6,4-6.6,10.6c0,6.6,2.6,10.8,6.6,10.8S48.6,72.8,48.6,66.3z"/>
	</g>
	<rect x="76" y="4.1" fill="none" stroke="#000000" stroke-width="1.3419" stroke-miterlimit="10" width="132" height="28.4"/>
	<g>
		<g>
			<path d="M87.2,23.3c1.2,1.2,2.8,2,4.5,2c2.2,0,3.5-1,3.5-2.6c0-1.6-1.2-2.1-2.8-2.8l-2.3-1c-1.6-0.6-3.4-1.8-3.4-4.1
				c0-2.4,2.2-4.2,5.2-4.2c2,0,3.7,0.8,4.8,1.9l-1.1,1.3c-1-0.9-2.2-1.5-3.8-1.5c-1.9,0-3.1,0.9-3.1,2.3c0,1.5,1.5,2.1,2.8,2.6
				l2.2,1c1.9,0.8,3.5,1.9,3.5,4.2c0,2.5-2.1,4.5-5.6,4.5c-2.3,0-4.3-0.9-5.7-2.3L87.2,23.3z"/>
			<path d="M106.4,14.8c3.3,0,5.3,2.2,5.3,5.5c0,0.4,0,0.8-0.1,1.1h-9.1c0.1,2.5,1.9,4.1,4.5,4.1c1.4,0,2.5-0.4,3.6-1.1l0.7,1.3
				c-1.2,0.7-2.6,1.4-4.5,1.4c-3.5,0-6.3-2.3-6.3-6.1S103.4,14.8,106.4,14.8z M109.9,19.9c0-2.3-1.3-3.6-3.5-3.6
				c-1.9,0-3.6,1.3-3.9,3.6H109.9z"/>
			<path d="M115.4,15h1.6l0.2,2h0.1c1.2-1.3,2.6-2.3,4.4-2.3c2.8,0,4,1.6,4,4.7v7.2h-2v-7c0-2.2-0.8-3.3-2.7-3.3
				c-1.4,0-2.3,0.7-3.7,2.1v8.1h-2V15z"/>
			<path d="M132.5,16.7h-3.3v-1.5l3.4-0.1l0.3-3.3h1.6V15h5.7v1.6h-5.7v5.5c0,2.1,0.7,3.2,3,3.2c1.1,0,2-0.2,2.8-0.5l0.4,1.4
				c-1.1,0.4-2.4,0.7-3.7,0.7c-3.4,0-4.5-1.9-4.5-4.8V16.7z"/>
			<path d="M144.2,15h7.4v11.7h-2V16.7h-5.4V15z M148.8,11.1c0-0.9,0.7-1.5,1.6-1.5c0.9,0,1.6,0.6,1.6,1.5c0,0.9-0.7,1.5-1.6,1.5
				C149.4,12.6,148.8,12,148.8,11.1z"/>
			<path d="M158.6,15h1.6l0.2,2h0.1c1.2-1.3,2.6-2.3,4.4-2.3c2.8,0,4,1.6,4,4.7v7.2h-2v-7c0-2.2-0.8-3.3-2.7-3.3
				c-1.4,0-2.3,0.7-3.7,2.1v8.1h-2V15z"/>
			<path d="M178.4,14.8c3.3,0,5.3,2.2,5.3,5.5c0,0.4,0,0.8-0.1,1.1h-9.1c0.1,2.5,1.9,4.1,4.5,4.1c1.4,0,2.5-0.4,3.6-1.1l0.7,1.3
				c-1.2,0.7-2.6,1.4-4.5,1.4c-3.5,0-6.3-2.3-6.3-6.1S175.4,14.8,178.4,14.8z M181.9,19.9c0-2.3-1.3-3.6-3.5-3.6
				c-1.9,0-3.6,1.3-3.9,3.6H181.9z"/>
			<path d="M187.1,9.6h6v13.3c0,1.7,0.9,2.4,2.3,2.4c0.7,0,1.3-0.2,2.2-0.6l0.5,1.5c-1.1,0.4-1.9,0.7-3.1,0.7
				c-2.5,0-3.8-1.4-3.8-4.2V11.2h-4V9.6z"/>
		</g>
	</g>
	<rect x="472.2" y="3.8" fill="none" stroke="#000000" stroke-width="1.3482" stroke-miterlimit="10" width="131.8" height="28.7"/>
	<g>
		<g>
			<path d="M483.2,23.3c1.2,1.2,2.8,2,4.5,2c2.2,0,3.5-1,3.5-2.6c0-1.6-1.2-2.1-2.8-2.8l-2.3-1c-1.6-0.6-3.4-1.8-3.4-4.1
				c0-2.4,2.2-4.2,5.2-4.2c2,0,3.7,0.8,4.8,1.9l-1.1,1.3c-1-0.9-2.2-1.5-3.8-1.5c-1.9,0-3.1,0.9-3.1,2.3c0,1.5,1.5,2.1,2.8,2.6
				l2.2,1c1.9,0.8,3.5,1.9,3.5,4.2c0,2.5-2.1,4.5-5.6,4.5c-2.3,0-4.3-0.9-5.7-2.3L483.2,23.3z"/>
			<path d="M502.4,14.8c3.3,0,5.3,2.2,5.3,5.5c0,0.4,0,0.8-0.1,1.1h-9.1c0.1,2.5,1.9,4.1,4.5,4.1c1.4,0,2.5-0.4,3.6-1.1l0.7,1.3
				c-1.2,0.7-2.6,1.4-4.5,1.4c-3.5,0-6.3-2.3-6.3-6.1S499.4,14.8,502.4,14.8z M505.9,19.9c0-2.3-1.3-3.6-3.5-3.6
				c-1.9,0-3.6,1.3-3.9,3.6H505.9z"/>
			<path d="M511.4,15h1.6l0.2,2h0.1c1.2-1.3,2.6-2.3,4.4-2.3c2.8,0,4,1.6,4,4.7v7.2h-2v-7c0-2.2-0.8-3.3-2.7-3.3
				c-1.4,0-2.3,0.7-3.7,2.1v8.1h-2V15z"/>
			<path d="M528.5,16.7h-3.3v-1.5l3.4-0.1l0.3-3.3h1.6V15h5.7v1.6h-5.7v5.5c0,2.1,0.7,3.2,3,3.2c1.1,0,2-0.2,2.8-0.5l0.4,1.4
				c-1.1,0.4-2.4,0.7-3.7,0.7c-3.4,0-4.5-1.9-4.5-4.8V16.7z"/>
			<path d="M540.2,15h7.4v11.7h-2V16.7h-5.4V15z M544.8,11.1c0-0.9,0.7-1.5,1.6-1.5c0.9,0,1.6,0.6,1.6,1.5c0,0.9-0.7,1.5-1.6,1.5
				C545.4,12.6,544.8,12,544.8,11.1z"/>
			<path d="M554.6,15h1.6l0.2,2h0.1c1.2-1.3,2.6-2.3,4.4-2.3c2.8,0,4,1.6,4,4.7v7.2h-2v-7c0-2.2-0.8-3.3-2.7-3.3
				c-1.4,0-2.3,0.7-3.7,2.1v8.1h-2V15z"/>
			<path d="M574.4,14.8c3.3,0,5.3,2.2,5.3,5.5c0,0.4,0,0.8-0.1,1.1h-9.1c0.1,2.5,1.9,4.1,4.5,4.1c1.4,0,2.5-0.4,3.6-1.1l0.7,1.3
				c-1.2,0.7-2.6,1.4-4.5,1.4c-3.5,0-6.3-2.3-6.3-6.1S571.4,14.8,574.4,14.8z M577.9,19.9c0-2.3-1.3-3.6-3.5-3.6
				c-1.9,0-3.6,1.3-3.9,3.6H577.9z"/>
			<path d="M583.1,9.6h6v13.3c0,1.7,0.9,2.4,2.3,2.4c0.7,0,1.3-0.2,2.2-0.6l0.5,1.5c-1.1,0.4-1.9,0.7-3.1,0.7
				c-2.5,0-3.8-1.4-3.8-4.2V11.2h-4V9.6z"/>
		</g>
	</g>
</g>
<g id="Layer_4">
</g>
<g id="Layer_3">
</g>
<g id="Layer_2">
</g>
<g id="Layer_1">
</g>
<g id="Guids" display="none">
</g>
</svg>
