<?xml version="1.0" encoding="utf-8"?>
<!-- Generator: Adobe Illustrator 18.0.0, SVG Export Plug-In . SVG Version: 6.00 Build 0)  -->
<!DOCTYPE svg PUBLIC "-//W3C//DTD SVG 1.1//EN" "http://www.w3.org/Graphics/SVG/1.1/DTD/svg11.dtd">
<svg version="1.1" xmlns="http://www.w3.org/2000/svg" xmlns:xlink="http://www.w3.org/1999/xlink" x="0px" y="0px"
	 viewBox="0 0 680 280.7" enable-background="new 0 0 680 280.7" xml:space="preserve">
<g id="Layer_8">
</g>
<g id="Layer_7">
	
		<rect x="537.9" y="118.3" fill="#D6D7FF" stroke="#000000" stroke-width="2" stroke-miterlimit="10" width="131.9" height="131.9"/>
	<g>
		<g>
			<path d="M13.8,271.1v1.8H2.6v-1.8h4.7v-12.2H3.8v-1.4c1.8-0.3,3-0.7,4.1-1.2h1.6v14.8H13.8z"/>
			<path d="M17.6,271.6c5.6-5,8.7-7.9,8.7-10.6c0-1.9-1.2-3.3-3.6-3.3c-1.6,0-2.9,0.9-4,2l-1.2-1.2C19,257,20.6,256,23,256
				c3.3,0,5.4,1.9,5.4,4.9c0,3.1-3.1,6.2-7.6,10.3c1-0.1,2.1-0.2,3.1-0.2h5.5v1.8H17.6V271.6z"/>
		</g>
	</g>
	<g>
		<g>
			<path fill="#FF4D1D" d="M140.8,269.8v3.1H129v-3.1h4.3v-9.5h-3.4v-2.4c1.9-0.3,3.2-0.8,4.4-1.5h2.8v13.4H140.8z"/>
			<path fill="#FF4D1D" d="M154.4,260.3c-0.7-0.6-1.8-1.2-2.9-1.2c-2,0-3.8,1.3-3.9,5.2c1.2-1.1,2.7-1.8,4-1.8
				c2.9,0,5.1,1.6,5.1,5.1c0,3.4-2.8,5.5-5.9,5.5c-3.4,0-6.7-2.4-6.7-8.2c0-6.2,3.5-8.9,7.1-8.9c2.3,0,4.1,0.9,5.3,2L154.4,260.3z
				 M153.1,267.6c0-1.7-1-2.4-2.4-2.4c-1,0-2,0.4-3,1.6c0.4,2.6,1.7,3.5,3,3.5C151.9,270.3,153.1,269.5,153.1,267.6z"/>
		</g>
	</g>
	<g>
		<g>
			<path fill="#989898" d="M259.9,271.6c5.6-5,8.7-7.9,8.7-10.6c0-1.9-1.2-3.3-3.6-3.3c-1.6,0-2.9,0.9-4,2l-1.2-1.2
				c1.5-1.5,3.1-2.5,5.5-2.5c3.3,0,5.4,1.9,5.4,4.9c0,3.1-3.1,6.2-7.6,10.3c1-0.1,2.1-0.2,3.1-0.2h5.5v1.8h-11.7V271.6z"/>
			<path fill="#989898" d="M275.4,264.5c0-5.6,2.3-8.6,6-8.6c3.7,0,6,3,6,8.6c0,5.5-2.3,8.7-6,8.7
				C277.7,273.2,275.4,270,275.4,264.5z M277.4,264.5c0,4.8,1.6,6.9,4,6.9c2.3,0,4-2.2,4-6.9c0-4.8-1.6-6.8-4-6.8
				C279.1,257.7,277.4,259.7,277.4,264.5z M279.8,264.3c0-1.1,0.8-1.7,1.6-1.7c0.9,0,1.6,0.6,1.6,1.7c0,1.1-0.8,1.7-1.6,1.7
				C280.5,266.1,279.8,265.4,279.8,264.3z"/>
		</g>
	</g>
	<g>
		<path d="M598.6,171.9h3.5v11.6h11.5v-11.6h3.5v27.6h-3.5v-13h-11.5v13h-3.5V171.9z"/>
	</g>
	<rect x="10.1" y="118.3" fill="#D9F5FF" stroke="#000000" stroke-width="2" stroke-miterlimit="10" width="131.9" height="131.9"/>
	<rect x="142" y="118.3" fill="#D3FFD6" stroke="#000000" stroke-width="2" stroke-miterlimit="10" width="264.6" height="131.9"/>
	
		<rect x="405.9" y="118.3" fill="#D9F5FF" stroke="#000000" stroke-width="2" stroke-miterlimit="10" width="131.9" height="131.9"/>
	<g>
		<g>
			<path d="M523.5,271.6c5.6-5,8.7-7.9,8.7-10.6c0-1.9-1.2-3.3-3.6-3.3c-1.6,0-2.9,0.9-4,2l-1.2-1.2c1.5-1.5,3.1-2.5,5.5-2.5
				c3.3,0,5.4,1.9,5.4,4.9c0,3.1-3.1,6.2-7.6,10.3c1-0.1,2.1-0.2,3.1-0.2h5.5v1.8h-11.7V271.6z"/>
			<path d="M542.5,264.2v-0.1c-1.4-0.9-2.5-2.1-2.5-3.9c0-2.5,2.2-4.3,5.1-4.3c3.2,0,5.1,1.8,5.1,4.4c0,1.6-1.1,3-2.5,4v0.1
				c1.8,0.9,3.2,2,3.2,4.3c0,2.5-2.2,4.4-6,4.4c-3.7,0-6.1-1.9-6.1-4.6C539,266.3,540.8,265,542.5,264.2z M545.1,271.6
				c2.5,0,3.8-1.2,3.8-2.9c0-2.3-2.3-2.9-5.2-3.9c-1.6,0.9-2.8,2-2.8,3.6C540.9,270.3,542.6,271.6,545.1,271.6z M548.4,260.5
				c0-1.6-1.2-2.9-3.4-2.9c-1.8,0-3.1,1.1-3.1,2.7c0,2,1.9,2.8,4.4,3.6C547.7,262.8,548.4,261.7,548.4,260.5z"/>
		</g>
	</g>
	<g>
		<g>
			<path d="M648.8,269.4c1.1,1,2.6,2,4.8,2c2.3,0,4-1.2,4-3c0-2-1.7-3.3-6-3.3v-1.6c3.9,0,5.4-1.4,5.4-3.1c0-1.6-1.4-2.6-3.4-2.6
				c-1.6,0-3,0.7-4.1,1.7l-1.1-1.4c1.4-1.2,3.2-2.1,5.3-2.1c3.1,0,5.5,1.5,5.5,4.2c0,2-1.5,3.3-3.5,4v0.1c2.2,0.5,4.1,1.9,4.1,4.2
				c0,2.9-2.7,4.7-6,4.7c-2.9,0-4.8-1.1-6-2.3L648.8,269.4z"/>
			<path d="M663.7,271.6c5.6-5,8.7-7.9,8.7-10.6c0-1.9-1.2-3.3-3.6-3.3c-1.6,0-2.9,0.9-4,2l-1.2-1.2c1.5-1.5,3.1-2.5,5.5-2.5
				c3.3,0,5.4,1.9,5.4,4.9c0,3.1-3.1,6.2-7.6,10.3c1-0.1,2.1-0.2,3.1-0.2h5.5v1.8h-11.7V271.6z"/>
		</g>
	</g>
	<g>
		<g>
			<path fill="#FF4D1D" d="M392.6,270.7c4.7-4,7.9-6.8,7.9-9.2c0-1.6-1-2.5-2.7-2.5c-1.3,0-2.4,0.8-3.3,1.7l-2.1-2.1
				c1.7-1.7,3.4-2.6,5.9-2.6c3.5,0,5.8,2.1,5.8,5.3c0,2.8-2.9,5.7-6.1,8.6c0.9-0.1,2.1-0.2,3-0.2h3.9v3.2h-12.4V270.7z"/>
			<path fill="#FF4D1D" d="M421.2,268.9h-2.1v4h-3.6v-4h-8v-2.6l6.9-9.9h4.6v9.6h2.1V268.9z M415.6,266v-2.8c0-1,0.1-2.6,0.1-3.6
				h-0.1c-0.5,0.9-1.2,1.9-1.8,2.8l-2.5,3.6H415.6z"/>
		</g>
	</g>
	<g>
		<path d="M266,171.9h8.4c6.1,0,10.2,2.1,10.2,8.1c0,5.8-4.1,8.5-10.2,8.5h-5v10.9H266V171.9z M274,185.6c4.8,0,7.1-1.8,7.1-5.7
			c0-4-2.4-5.3-7.1-5.3h-4.5v11H274z"/>
	</g>
	<g>
		<path d="M465,171.9h16.8v2.9h-13.4v9.3h11.3v2.9h-11.3v12.4H465V171.9z"/>
	</g>
	<g>
		<path d="M66.8,171.9h3.5v11.6h11.5v-11.6h3.5v27.6h-3.5v-13H70.3v13h-3.5V171.9z"/>
	</g>
	<g>
		<g>
			<path fill="none" stroke="#000000" stroke-width="2" stroke-miterlimit="10" d="M10.2,107.3c0,0,8.2-60,66.2-60
				c27.1,0,45.5,24.7,54.1,39.4"/>
			<g>
				<path d="M136,97.4c-4.5-4-11-8.6-16.4-10.7l10-1.4l6.8-7.5C135.1,83.5,135.2,91.4,136,97.4z"/>
			</g>
		</g>
	</g>
	<circle cx="10.2" cy="107.3" r="7"/>
	<circle cx="141.2" cy="107.3" r="7"/>
	<g>
		<g>
			<path fill="none" stroke="#000000" stroke-width="2" stroke-miterlimit="10" d="M406.2,107.3c0,0,8.2-60,66.2-60
				c42.4,0,58,34.9,63.4,53.8"/>
			<g>
				<path d="M538.4,112.8c-3.3-5.1-8.4-11.2-13.1-14.6l10,1.3l8.5-5.5C541.1,99.1,539.2,106.8,538.4,112.8z"/>
			</g>
		</g>
	</g>
	<circle cx="406.2" cy="107.3" r="7"/>
	<g>
		<g>
			<path fill="none" stroke="#000000" stroke-width="2" stroke-miterlimit="10" d="M141.2,107.3c0,0,14.2-102.4,133.2-102.4
				C366.1,4.9,392,58.1,399,82.3"/>
			<g>
				<path d="M401.5,94.1c-3.3-5.1-8.3-11.2-13-14.6l10,1.3l8.5-5.4C404.3,80.5,402.3,88.1,401.5,94.1z"/>
			</g>
		</g>
	</g>
</g>
<g id="Layer_6">
</g>
<g id="Layer_5">
</g>
<g id="Layer_4">
</g>
<g id="Layer_3">
</g>
<g id="Layer_2">
</g>
<g id="Layer_1">
</g>
<g id="Guids" display="none">
</g>
</svg>
