<?xml version="1.0" encoding="utf-8"?>
<!-- Generator: Adobe Illustrator 18.0.0, SVG Export Plug-In . SVG Version: 6.00 Build 0)  -->
<!DOCTYPE svg PUBLIC "-//W3C//DTD SVG 1.1//EN" "http://www.w3.org/Graphics/SVG/1.1/DTD/svg11.dtd">
<svg version="1.1" xmlns="http://www.w3.org/2000/svg" xmlns:xlink="http://www.w3.org/1999/xlink" x="0px" y="0px"
	 viewBox="0 0 680 238.7" enable-background="new 0 0 680 238.7" xml:space="preserve">
<g id="Layer_8">
</g>
<g id="Layer_7">
</g>
<g id="Layer_6">
	<rect x="9.7" y="75.3" fill="#D6D7FF" stroke="#000000" stroke-width="2" stroke-miterlimit="10" width="132.1" height="132.1"/>
	<g>
		<g>
			<path d="M140.5,228.1v1.8h-11.2v-1.8h4.7v-12.2h-3.5v-1.4c1.8-0.3,3-0.7,4.1-1.2h1.6v14.8H140.5z"/>
			<path d="M144.2,228.6c5.6-5,8.7-7.9,8.7-10.6c0-1.9-1.2-3.3-3.6-3.3c-1.6,0-2.9,0.9-4,2l-1.2-1.2c1.5-1.5,3.1-2.5,5.5-2.5
				c3.3,0,5.4,1.9,5.4,4.9c0,3.1-3.1,6.2-7.6,10.3c1-0.1,2.1-0.2,3.1-0.2h5.5v1.8h-11.7V228.6z"/>
		</g>
	</g>
	<g>
		<g>
			<path d="M7.4,221.2v-0.1c-1.4-0.9-2.5-2.1-2.5-3.9c0-2.5,2.2-4.3,5.1-4.3c3.3,0,5.1,1.8,5.1,4.4c0,1.6-1.1,3-2.5,4v0.1
				c1.8,0.9,3.2,2,3.2,4.3c0,2.5-2.2,4.4-6,4.4c-3.7,0-6.1-1.9-6.1-4.6C3.8,223.3,5.6,222,7.4,221.2z M10,228.6
				c2.5,0,3.8-1.2,3.8-2.9c0-2.3-2.3-2.9-5.2-3.9c-1.6,0.9-2.8,2-2.8,3.6C5.8,227.3,7.4,228.6,10,228.6z M13.3,217.5
				c0-1.6-1.2-2.9-3.4-2.9c-1.8,0-3.1,1.1-3.1,2.7c0,2,1.9,2.8,4.4,3.6C12.6,219.8,13.3,218.7,13.3,217.5z"/>
		</g>
	</g>
	<g>
		<g>
			<path fill="#FF4D1D" d="M272.5,226.8v3.1h-11.8v-3.1h4.3v-9.5h-3.4v-2.4c1.9-0.3,3.2-0.8,4.4-1.5h2.8v13.4H272.5z"/>
			<path fill="#FF4D1D" d="M286,217.3c-0.7-0.6-1.8-1.2-2.9-1.2c-2,0-3.8,1.3-3.9,5.2c1.2-1.1,2.7-1.8,4-1.8c2.9,0,5.1,1.6,5.1,5.1
				c0,3.4-2.8,5.5-5.9,5.5c-3.4,0-6.7-2.4-6.7-8.2c0-6.2,3.5-8.9,7.1-8.9c2.3,0,4.1,0.9,5.3,2L286,217.3z M284.8,224.6
				c0-1.7-1-2.4-2.4-2.4c-1,0-2,0.4-3,1.6c0.4,2.6,1.7,3.5,3,3.5C283.6,227.3,284.8,226.5,284.8,224.6z"/>
		</g>
	</g>
	<g>
		<g>
			<path fill="#989898" d="M391.5,228.6c5.6-5,8.7-7.9,8.7-10.6c0-1.9-1.2-3.3-3.6-3.3c-1.6,0-2.9,0.9-4,2l-1.2-1.2
				c1.5-1.5,3.1-2.5,5.5-2.5c3.3,0,5.4,1.9,5.4,4.9c0,3.1-3.1,6.2-7.6,10.3c1-0.1,2.1-0.2,3.1-0.2h5.5v1.8h-11.7V228.6z"/>
			<path fill="#989898" d="M407.1,221.5c0-5.6,2.3-8.6,6-8.6c3.7,0,6,3,6,8.6c0,5.5-2.3,8.7-6,8.7
				C409.3,230.2,407.1,227,407.1,221.5z M409.1,221.5c0,4.8,1.6,6.9,4,6.9c2.3,0,4-2.2,4-6.9c0-4.8-1.6-6.8-4-6.8
				C410.7,214.7,409.1,216.7,409.1,221.5z M411.4,221.3c0-1.1,0.8-1.7,1.6-1.7c0.9,0,1.6,0.6,1.6,1.7c0,1.1-0.8,1.7-1.6,1.7
				C412.2,223.1,411.4,222.4,411.4,221.3z"/>
		</g>
	</g>
	<g>
		<path d="M66.8,124.9h16.8v2.9H70.3v9.3h11.3v2.9H70.3v12.4h-3.5V124.9z"/>
	</g>
	<rect x="141.7" y="75.3" fill="#D9F5FF" stroke="#000000" stroke-width="2" stroke-miterlimit="10" width="132.1" height="132.1"/>
	<rect x="273.8" y="75.3" fill="#D3FFD6" stroke="#000000" stroke-width="2" stroke-miterlimit="10" width="264.9" height="132.1"/>
	<rect x="537.9" y="75.3" fill="#D9F5FF" stroke="#000000" stroke-width="2" stroke-miterlimit="10" width="132.1" height="132.1"/>
	<g>
		<g>
			<path d="M649.2,228.6c5.6-5,8.7-7.9,8.7-10.6c0-1.9-1.2-3.3-3.6-3.3c-1.6,0-2.9,0.9-4,2l-1.2-1.2c1.5-1.5,3.1-2.5,5.5-2.5
				c3.3,0,5.4,1.9,5.4,4.9c0,3.1-3.1,6.2-7.6,10.3c1-0.1,2.1-0.2,3.1-0.2h5.5v1.8h-11.7V228.6z"/>
			<path d="M668.2,221.2v-0.1c-1.4-0.9-2.5-2.1-2.5-3.9c0-2.5,2.2-4.3,5.1-4.3c3.2,0,5.1,1.8,5.1,4.4c0,1.6-1.1,3-2.5,4v0.1
				c1.8,0.9,3.2,2,3.2,4.3c0,2.5-2.2,4.4-6,4.4c-3.7,0-6.1-1.9-6.1-4.6C664.6,223.3,666.4,222,668.2,221.2z M670.8,228.6
				c2.5,0,3.8-1.2,3.8-2.9c0-2.3-2.3-2.9-5.2-3.9c-1.6,0.9-2.8,2-2.8,3.6C666.6,227.3,668.2,228.6,670.8,228.6z M674.1,217.5
				c0-1.6-1.2-2.9-3.4-2.9c-1.8,0-3.1,1.1-3.1,2.7c0,2,1.9,2.8,4.4,3.6C673.4,219.8,674.1,218.7,674.1,217.5z"/>
		</g>
	</g>
	<g>
		<g>
			<path fill="#FF4D1D" d="M524.3,227.7c4.7-4,7.9-6.8,7.9-9.2c0-1.6-1-2.5-2.7-2.5c-1.3,0-2.4,0.8-3.3,1.7l-2.1-2.1
				c1.7-1.7,3.4-2.6,5.9-2.6c3.5,0,5.8,2.1,5.8,5.3c0,2.8-2.9,5.7-6.1,8.6c0.9-0.1,2.1-0.2,3-0.2h3.9v3.2h-12.4V227.7z"/>
			<path fill="#FF4D1D" d="M552.9,225.9h-2.1v4h-3.6v-4h-8v-2.6l6.9-9.9h4.6v9.6h2.1V225.9z M547.2,223v-2.8c0-1,0.1-2.6,0.1-3.6
				h-0.1c-0.5,0.9-1.2,1.9-1.8,2.8L543,223H547.2z"/>
		</g>
	</g>
	<g>
		<path d="M397.9,124.9h8.4c6.1,0,10.2,2.1,10.2,8.1c0,5.8-4.1,8.5-10.2,8.5h-5v10.9h-3.5V124.9z M405.9,138.7
			c4.8,0,7.1-1.8,7.1-5.7c0-4-2.4-5.3-7.1-5.3h-4.5v11H405.9z"/>
	</g>
	<g>
		<path d="M600,124.9h16.8v2.9h-13.4v9.3h11.3v2.9h-11.3v12.4H600V124.9z"/>
	</g>
	<g>
		<path d="M199.5,124.9h3.5v11.6h11.5v-11.6h3.5v27.6h-3.5v-13H203v13h-3.5V124.9z"/>
	</g>
	<g>
		<g>
			<path fill="none" stroke="#000000" stroke-width="2" stroke-miterlimit="10" d="M142.3,64.3c0,0-8.2-60-66.2-60
				c-42.4,0-58,34.9-63.4,53.8"/>
			<g>
				<path d="M10.1,69.8c-0.8-6-2.7-13.7-5.5-18.8l8.5,5.5l10-1.3C18.5,58.6,13.5,64.7,10.1,69.8z"/>
			</g>
		</g>
	</g>
	<circle cx="142.3" cy="64.3" r="7"/>
</g>
<g id="Layer_5">
</g>
<g id="Layer_4">
</g>
<g id="Layer_3">
</g>
<g id="Layer_2">
</g>
<g id="Layer_1">
</g>
<g id="Guids" display="none">
</g>
</svg>
