<?xml version="1.0" encoding="utf-8"?>
<!-- Generator: Adobe Illustrator 18.0.0, SVG Export Plug-In . SVG Version: 6.00 Build 0)  -->
<!DOCTYPE svg PUBLIC "-//W3C//DTD SVG 1.1//EN" "http://www.w3.org/Graphics/SVG/1.1/DTD/svg11.dtd">
<svg version="1.1" xmlns="http://www.w3.org/2000/svg" xmlns:xlink="http://www.w3.org/1999/xlink" x="0px" y="0px"
	 viewBox="0 0 680 99.7" enable-background="new 0 0 680 99.7" xml:space="preserve">
<g id="Layer_8">
</g>
<g id="Layer_7">
</g>
<g id="Layer_6">
</g>
<g id="Layer_5">
</g>
<g id="Layer_4">
	<g>
		<rect x="604" y="10" fill="#FFE4E3" width="66" height="66"/>
		<g>
			<polyline fill="none" stroke="#000000" stroke-miterlimit="10" points="670,74.6 670,76 668.6,76 			"/>
			
				<line fill="none" stroke="#000000" stroke-miterlimit="10" stroke-dasharray="2.7478,2.7478" x1="665.9" y1="76" x2="606.8" y2="76"/>
			<polyline fill="none" stroke="#000000" stroke-miterlimit="10" points="605.4,76 604,76 604,74.6 			"/>
			
				<line fill="none" stroke="#000000" stroke-miterlimit="10" stroke-dasharray="2.7478,2.7478" x1="604" y1="71.9" x2="604" y2="12.8"/>
			<polyline fill="none" stroke="#000000" stroke-miterlimit="10" points="604,11.4 604,10 605.4,10 			"/>
			
				<line fill="none" stroke="#000000" stroke-miterlimit="10" stroke-dasharray="2.7478,2.7478" x1="608.1" y1="10" x2="667.2" y2="10"/>
			<polyline fill="none" stroke="#000000" stroke-miterlimit="10" points="668.6,10 670,10 670,11.4 			"/>
			
				<line fill="none" stroke="#000000" stroke-miterlimit="10" stroke-dasharray="2.7478,2.7478" x1="670" y1="14.1" x2="670" y2="73.2"/>
		</g>
	</g>
	<g>
		<path d="M630.9,42.8c0-8.4,4.2-13.5,10.1-13.5s10.1,5.1,10.1,13.5c0,8.4-4.2,13.7-10.1,13.7S630.9,51.3,630.9,42.8z M647.6,42.8
			c0-6.5-2.6-10.6-6.6-10.6s-6.6,4-6.6,10.6c0,6.6,2.6,10.8,6.6,10.8S647.6,49.4,647.6,42.8z"/>
	</g>
	<g>
		<rect x="10" y="10" fill="#FFE4E3" width="66" height="66"/>
		<g>
			<polyline fill="none" stroke="#000000" stroke-miterlimit="10" points="76,74.6 76,76 74.6,76 			"/>
			
				<line fill="none" stroke="#000000" stroke-miterlimit="10" stroke-dasharray="2.7478,2.7478" x1="71.9" y1="76" x2="12.8" y2="76"/>
			<polyline fill="none" stroke="#000000" stroke-miterlimit="10" points="11.4,76 10,76 10,74.6 			"/>
			
				<line fill="none" stroke="#000000" stroke-miterlimit="10" stroke-dasharray="2.7478,2.7478" x1="10" y1="71.9" x2="10" y2="12.8"/>
			<polyline fill="none" stroke="#000000" stroke-miterlimit="10" points="10,11.4 10,10 11.4,10 			"/>
			
				<line fill="none" stroke="#000000" stroke-miterlimit="10" stroke-dasharray="2.7478,2.7478" x1="14.1" y1="10" x2="73.2" y2="10"/>
			<polyline fill="none" stroke="#000000" stroke-miterlimit="10" points="74.6,10 76,10 76,11.4 			"/>
			
				<line fill="none" stroke="#000000" stroke-miterlimit="10" stroke-dasharray="2.7478,2.7478" x1="76" y1="14.1" x2="76" y2="73.2"/>
		</g>
	</g>
	<rect x="76" y="10" fill="#D9F5FF" stroke="#000000" stroke-miterlimit="10" width="66" height="66"/>
	<rect x="142" y="10" fill="#D3FFD6" stroke="#000000" stroke-miterlimit="10" width="132.4" height="66"/>
	<rect x="274" y="10" fill="#D9F5FF" stroke="#000000" stroke-miterlimit="10" width="66" height="66"/>
	<g>
		<path d="M5.6,89.6c0-3.9,1.6-5.9,4.1-5.9c2.6,0,4.1,2.1,4.1,5.9c0,3.8-1.6,6-4.1,6C7.1,95.6,5.6,93.4,5.6,89.6z M6.9,89.6
			c0,3.3,1.1,4.8,2.7,4.8c1.6,0,2.7-1.5,2.7-4.8c0-3.3-1.1-4.7-2.7-4.7C8.1,84.8,6.9,86.2,6.9,89.6z M8.6,89.4
			c0-0.7,0.5-1.2,1.1-1.2c0.6,0,1.1,0.5,1.1,1.2c0,0.8-0.5,1.2-1.1,1.2C9.1,90.6,8.6,90.2,8.6,89.4z"/>
	</g>
	<g>
		<path d="M80.2,92.2h-1.8v3.2H77v-3.2h-5.9v-1l5.7-7.3h1.6V91h1.8V92.2z M77,91v-3.6c0-0.6,0.1-1.4,0.1-2H77
			c-0.4,0.6-0.8,1.1-1.2,1.7L72.7,91H77z"/>
	</g>
	<g>
		<g>
			<path fill="#989898" d="M206.8,94.1v1.2h-7.7v-1.2h3.3v-8.5h-2.4v-1c1.2-0.2,2.1-0.5,2.8-0.8h1.1v10.3H206.8z"/>
			<path fill="#989898" d="M209.4,94.5c3.9-3.4,6-5.5,6-7.4c0-1.3-0.8-2.3-2.5-2.3c-1.1,0-2,0.6-2.8,1.4l-0.8-0.8
				c1-1,2.2-1.7,3.8-1.7c2.3,0,3.7,1.4,3.7,3.4c0,2.2-2.2,4.3-5.3,7.1c0.7-0.1,1.5-0.1,2.1-0.1h3.8v1.3h-8.1V94.5z"/>
		</g>
	</g>
	<g>
		<g>
			<path fill="#FF4D1D" d="M139.7,89.6L139.7,89.6c-1-0.7-1.7-1.6-1.7-2.8c0-1.9,1.6-3.2,3.9-3.2c2.3,0,3.7,1.2,3.7,3.1
				c0,1.1-0.7,1.9-1.6,2.5v0.1c1.2,0.6,2.1,1.4,2.1,3c0,1.8-1.5,3.2-4.3,3.2c-2.6,0-4.3-1.3-4.3-3.1C137.6,91,138.5,90.2,139.7,89.6
				z M141.9,93.7c1.1,0,1.8-0.5,1.8-1.4c0-1-1.1-1.4-2.8-2c-0.6,0.5-1.1,1.1-1.1,1.8C139.8,93.1,140.7,93.7,141.9,93.7z M143.5,87
				c0-0.9-0.6-1.5-1.6-1.5c-0.8,0-1.5,0.4-1.5,1.3c0,0.9,0.9,1.4,2.3,1.8C143.2,88.2,143.5,87.6,143.5,87z"/>
		</g>
	</g>
	<g>
		<g>
			<path fill="#FF4D1D" d="M272.9,93.2v2.1h-8.2v-2.1h3v-6.6h-2.4V85c1.3-0.2,2.2-0.6,3.1-1h1.9v9.3H272.9z"/>
			<path fill="#FF4D1D" d="M282.3,86.6c-0.5-0.4-1.3-0.8-2-0.8c-1.4,0-2.6,0.9-2.7,3.6c0.8-0.8,1.9-1.2,2.8-1.2c2,0,3.5,1.1,3.5,3.5
				c0,2.4-1.9,3.8-4.1,3.8c-2.3,0-4.6-1.7-4.6-5.7c0-4.3,2.4-6.2,4.9-6.2c1.6,0,2.9,0.6,3.6,1.4L282.3,86.6z M281.4,91.7
				c0-1.2-0.7-1.7-1.7-1.7c-0.7,0-1.4,0.3-2.1,1.1c0.3,1.8,1.2,2.4,2.1,2.4C280.6,93.6,281.4,93,281.4,91.7z"/>
		</g>
	</g>
	<g>
		<path d="M330.1,94.5c3.9-3.4,6-5.5,6-7.4c0-1.3-0.8-2.3-2.5-2.3c-1.1,0-2,0.6-2.8,1.4l-0.8-0.8c1-1,2.2-1.7,3.8-1.7
			c2.3,0,3.7,1.4,3.7,3.4c0,2.2-2.2,4.3-5.3,7.1c0.7-0.1,1.5-0.1,2.1-0.1h3.8v1.3h-8.1V94.5z"/>
		<path d="M340.9,89.6c0-3.9,1.6-5.9,4.1-5.9s4.1,2.1,4.1,5.9c0,3.8-1.6,6-4.1,6S340.9,93.4,340.9,89.6z M342.3,89.6
			c0,3.3,1.1,4.8,2.7,4.8s2.7-1.5,2.7-4.8c0-3.3-1.1-4.7-2.7-4.7S342.3,86.2,342.3,89.6z M343.9,89.4c0-0.7,0.5-1.2,1.1-1.2
			c0.6,0,1.1,0.5,1.1,1.2c0,0.8-0.5,1.2-1.1,1.2C344.4,90.6,343.9,90.2,343.9,89.4z"/>
	</g>
	<g>
		<path d="M200.3,29.8h8c5.8,0,9.7,2,9.7,7.7c0,5.5-3.9,8.1-9.7,8.1h-4.7v10.4h-3.3V29.8z M207.9,42.9c4.6,0,6.8-1.7,6.8-5.4
			c0-3.8-2.2-5-6.8-5h-4.3v10.4H207.9z"/>
	</g>
	<g>
		<path d="M300.4,29.8h16v2.8h-12.7v8.9h10.8v2.8h-10.8v11.8h-3.3V29.8z"/>
	</g>
	<g>
		<path d="M100.2,29.8h3.4v11h11v-11h3.4v26.2h-3.4V43.7h-11v12.4h-3.4V29.8z"/>
	</g>
	<rect x="340" y="10" fill="#D9F5FF" stroke="#000000" stroke-miterlimit="10" width="66" height="66"/>
	<rect x="406" y="10" fill="#D3FFD6" stroke="#000000" stroke-miterlimit="10" width="132.4" height="66"/>
	<rect x="538" y="10" fill="#D9F5FF" stroke="#000000" stroke-miterlimit="10" width="66" height="66"/>
	<g>
		<g>
			<path fill="#989898" d="M463,94.5c3.9-3.4,6-5.5,6-7.4c0-1.3-0.8-2.3-2.5-2.3c-1.1,0-2,0.6-2.8,1.4l-0.8-0.8c1-1,2.2-1.7,3.8-1.7
				c2.3,0,3.7,1.4,3.7,3.4c0,2.2-2.2,4.3-5.3,7.1c0.7-0.1,1.5-0.1,2.1-0.1h3.8v1.3H463V94.5z"/>
			<path fill="#989898" d="M476.2,89.3L476.2,89.3c-1-0.7-1.7-1.5-1.7-2.8c0-1.8,1.5-3,3.5-3c2.3,0,3.6,1.3,3.6,3.1
				c0,1.1-0.8,2.1-1.7,2.7v0.1c1.3,0.6,2.2,1.4,2.2,3c0,1.7-1.5,3.1-4.1,3.1c-2.6,0-4.2-1.3-4.2-3.2C473.7,90.8,475,89.9,476.2,89.3
				z M478,94.5c1.7,0,2.7-0.8,2.7-2c0-1.6-1.6-2-3.6-2.7c-1.1,0.6-2,1.4-2,2.5C475.1,93.5,476.2,94.5,478,94.5z M480.3,86.8
				c0-1.1-0.8-2-2.3-2c-1.3,0-2.2,0.7-2.2,1.9c0,1.4,1.3,1.9,3,2.5C479.8,88.4,480.3,87.6,480.3,86.8z"/>
		</g>
	</g>
	<g>
		<g>
			<path fill="#FF4D1D" d="M396.5,93.8c3.3-2.8,5.5-4.7,5.5-6.3c0-1.1-0.7-1.7-1.9-1.7c-0.9,0-1.7,0.6-2.3,1.2l-1.4-1.4
				c1.2-1.2,2.3-1.8,4.1-1.8c2.4,0,4,1.4,4,3.6c0,1.9-2,4-4.2,5.9c0.6-0.1,1.5-0.1,2.1-0.1h2.7v2.2h-8.6V93.8z"/>
			<path fill="#FF4D1D" d="M416.3,92.6h-1.4v2.7h-2.5v-2.7h-5.5v-1.8l4.8-6.9h3.2v6.7h1.4V92.6z M412.3,90.6v-1.9
				c0-0.7,0.1-1.8,0.1-2.5h-0.1c-0.4,0.6-0.8,1.3-1.2,1.9l-1.7,2.5H412.3z"/>
		</g>
	</g>
	<g>
		<g>
			<path fill="#FF4D1D" d="M529.6,92.3c0.8,0.7,1.7,1.2,2.8,1.2c1.2,0,2.1-0.5,2.1-1.4c0-1-0.8-1.6-3.5-1.6v-1.9
				c2.3,0,3.1-0.6,3.1-1.5c0-0.8-0.6-1.3-1.7-1.3c-0.9,0-1.6,0.4-2.4,1l-1.3-1.6c1.1-0.9,2.4-1.5,3.9-1.5c2.5,0,4.2,1.1,4.2,3.1
				c0,1.2-0.8,2-2.2,2.5v0.1c1.4,0.4,2.6,1.3,2.6,2.8c0,2.1-2.1,3.3-4.5,3.3c-2,0-3.4-0.6-4.3-1.6L529.6,92.3z"/>
			<path fill="#FF4D1D" d="M539.4,93.8c3.3-2.8,5.5-4.7,5.5-6.3c0-1.1-0.7-1.7-1.9-1.7c-0.9,0-1.7,0.6-2.3,1.2l-1.4-1.4
				c1.2-1.2,2.3-1.8,4.1-1.8c2.4,0,4,1.4,4,3.6c0,1.9-2,4-4.2,5.9c0.6-0.1,1.5-0.1,2.1-0.1h2.7v2.2h-8.6V93.8z"/>
		</g>
	</g>
	<g>
		<path d="M595,93c0.8,0.7,1.8,1.4,3.3,1.4c1.6,0,2.8-0.8,2.8-2.1c0-1.4-1.2-2.3-4.2-2.3v-1.1c2.7,0,3.8-0.9,3.8-2.1
			c0-1.1-0.9-1.8-2.3-1.8c-1.1,0-2.1,0.5-2.8,1.2l-0.8-0.9c1-0.8,2.2-1.4,3.7-1.4c2.2,0,3.8,1.1,3.8,2.9c0,1.4-1,2.3-2.4,2.7v0.1
			c1.5,0.3,2.8,1.3,2.8,2.9c0,2-1.9,3.3-4.2,3.3c-2,0-3.3-0.8-4.1-1.6L595,93z"/>
		<path d="M612.5,85.8c-0.6-0.6-1.4-0.9-2.3-0.9c-1.8,0-3.5,1.2-3.5,4.9c0.9-0.9,2.1-1.5,3.3-1.5c2.1,0,3.6,1.2,3.6,3.5
			c0,2.2-1.8,3.7-3.8,3.7c-2.5,0-4.4-1.8-4.4-5.5c0-4.6,2.3-6.4,4.8-6.4c1.4,0,2.4,0.5,3.2,1.2L612.5,85.8z M612.2,91.9
			c0-1.6-0.9-2.4-2.4-2.4c-0.9,0-2,0.4-2.9,1.5c0.2,2.2,1.3,3.4,3,3.4C611.1,94.4,612.2,93.4,612.2,91.9z"/>
	</g>
	<g>
		<path d="M667,92.2h-1.8v3.2h-1.4v-3.2h-5.9v-1l5.7-7.3h1.6V91h1.8V92.2z M663.8,91v-3.6c0-0.6,0.1-1.4,0.1-2h-0.1
			c-0.4,0.6-0.8,1.1-1.2,1.7l-3.1,3.9H663.8z"/>
		<path d="M669.3,89.6c0-3.9,1.6-5.9,4.1-5.9s4.1,2.1,4.1,5.9c0,3.8-1.6,6-4.1,6S669.3,93.4,669.3,89.6z M670.7,89.6
			c0,3.3,1.1,4.8,2.7,4.8s2.7-1.5,2.7-4.8c0-3.3-1.1-4.7-2.7-4.7S670.7,86.2,670.7,89.6z M672.3,89.4c0-0.7,0.5-1.2,1.1-1.2
			c0.6,0,1.1,0.5,1.1,1.2c0,0.8-0.5,1.2-1.1,1.2C672.8,90.6,672.3,90.2,672.3,89.4z"/>
	</g>
	<g>
		<path d="M464.3,29.8h8c5.8,0,9.7,2,9.7,7.7c0,5.5-3.9,8.1-9.7,8.1h-4.7v10.4h-3.3V29.8z M471.9,42.9c4.6,0,6.8-1.7,6.8-5.4
			c0-3.8-2.2-5-6.8-5h-4.3v10.4H471.9z"/>
	</g>
	<g>
		<path d="M566.4,29.8h16v2.8h-12.7v8.9h10.8v2.8h-10.8v11.8h-3.3V29.8z"/>
	</g>
	<g>
		<path d="M364.2,29.8h3.4v11h11v-11h3.4v26.2h-3.4V43.7h-11v12.4h-3.4V29.8z"/>
	</g>
	<g>
		<path d="M29.9,42.8c0-8.4,4.2-13.5,10.1-13.5s10.1,5.1,10.1,13.5c0,8.4-4.2,13.7-10.1,13.7S29.9,51.3,29.9,42.8z M46.6,42.8
			c0-6.5-2.6-10.6-6.6-10.6s-6.6,4-6.6,10.6c0,6.6,2.6,10.8,6.6,10.8S46.6,49.4,46.6,42.8z"/>
	</g>
</g>
<g id="Layer_3">
</g>
<g id="Layer_2">
</g>
<g id="Layer_1">
</g>
<g id="Guids" display="none">
</g>
</svg>
