<?xml version="1.0" encoding="utf-8"?>
<!-- Generator: Adobe Illustrator 18.0.0, SVG Export Plug-In . SVG Version: 6.00 Build 0)  -->
<!DOCTYPE svg PUBLIC "-//W3C//DTD SVG 1.1//EN" "http://www.w3.org/Graphics/SVG/1.1/DTD/svg11.dtd">
<svg version="1.1" id="Layer_1" xmlns="http://www.w3.org/2000/svg" xmlns:xlink="http://www.w3.org/1999/xlink" x="0px" y="0px"
	 viewBox="0 0 680 598" enable-background="new 0 0 680 598" xml:space="preserve">
<path fill="#3399CC" stroke="#3399CC" stroke-width="4" stroke-miterlimit="10" d="M119.2,4C106.5,4,5,4,5,4v43.6
	c0,0,153.3,0,169.1,0C152.8,47.6,151.5,4,119.2,4z"/>
<rect x="5" y="47.6" fill="none" stroke="#3399CC" stroke-width="4" stroke-miterlimit="10" width="362" height="539.1"/>
<g>
	<path fill="#FFFFFF" d="M15.5,14.1h7c4.2,0,7.6,1.9,7.6,7.6c0,5.5-3.5,8-7.6,8h-2.7v8h-4.4V14.1z M22.3,25.4c2.4,0,3.5-1.3,3.5-3.7
		c0-2.5-1.2-3.4-3.5-3.4h-2.4v7.1H22.3z"/>
	<path fill="#FFFFFF" d="M34.5,19.7h3.6l0.4,3.9h0.1c1.5-2.9,3.6-4.3,6-4.3c1.3,0,2,0.3,2.8,0.7l-0.9,4.4c-0.9-0.3-1.5-0.5-2.6-0.5
		c-1.8,0-3.7,1.2-4.9,4.4v9.3h-4.4V19.7z"/>
	<path fill="#FFFFFF" d="M57.8,19.3c3.9,0,7.5,3.4,7.5,9.4S61.6,38,57.8,38s-7.5-3.4-7.5-9.4S53.9,19.3,57.8,19.3z M57.8,33.8
		c2,0,3-2,3-5.1c0-3.1-1-5.1-3-5.1s-3,2-3,5.1C54.7,31.8,55.7,33.8,57.8,33.8z"/>
	<path fill="#FFFFFF" d="M77.1,19.3c2.3,0,4.3,1,5.5,2.4l-2,3.3c-1.1-1-2.2-1.4-3.3-1.4c-2.5,0-4.3,2-4.3,5.1c0,3.1,1.7,5.1,4.1,5.1
		c1.5,0,2.8-0.8,3.9-1.7l1.8,3.4c-1.8,1.8-4.1,2.6-6.1,2.6c-4.6,0-8.2-3.4-8.2-9.4S72.6,19.3,77.1,19.3z"/>
	<path fill="#FFFFFF" d="M93.7,19.3c4.5,0,6.9,3.7,6.9,8.6c0,0.9-0.1,1.9-0.2,2.3h-9.9c0.3,2.7,2.1,3.8,4.3,3.8
		c1.3,0,2.5-0.4,3.8-1.2L100,36c-1.7,1.3-3.9,2.1-5.8,2.1c-4.6,0-8.1-3.5-8.1-9.4C86,22.8,89.8,19.3,93.7,19.3z M96.6,26.7
		c0-2-0.9-3.4-2.9-3.4c-1.6,0-2.9,1.1-3.3,3.4H96.6z"/>
	<path fill="#FFFFFF" d="M105.7,32c1.7,1.3,3.4,2.1,5.3,2.1c2,0,2.8-0.6,2.8-1.5c0-1.1-1.6-1.7-3.9-2.5c-2.6-0.9-5.2-2.4-5.2-5.2
		c0-3.3,2.6-5.6,6.8-5.6c2.6,0,4.8,1.3,6.3,2.5l-2,3.2c-1.3-1-2.8-1.7-4.3-1.7c-1.8,0-2.5,0.5-2.5,1.4c0,1.1,1.7,1.6,3.8,2.3
		c2.9,0.9,5.4,2.3,5.4,5.4c0,3.2-2.5,5.8-7.2,5.8c-2.6,0-5.3-1.2-7.2-2.7L105.7,32z"/>
	<path fill="#FFFFFF" d="M123.5,32c1.7,1.3,3.4,2.1,5.3,2.1c2,0,2.8-0.6,2.8-1.5c0-1.1-1.6-1.7-3.9-2.5c-2.6-0.9-5.2-2.4-5.2-5.2
		c0-3.3,2.6-5.6,6.8-5.6c2.6,0,4.8,1.3,6.3,2.5l-2,3.2c-1.3-1-2.8-1.7-4.3-1.7c-1.8,0-2.5,0.5-2.5,1.4c0,1.1,1.7,1.6,3.8,2.3
		c2.9,0.9,5.4,2.3,5.4,5.4c0,3.2-2.5,5.8-7.2,5.8c-2.6,0-5.3-1.2-7.2-2.7L123.5,32z"/>
</g>
<path fill="#3399CC" stroke="#3399CC" stroke-width="4" stroke-miterlimit="10" d="M234,59.8c-12.6,0-199.5,0-199.5,0v28.1
	c0,0,238.6,0,254.4,0C267.7,87.9,266.4,59.8,234,59.8z"/>
<rect x="34.6" y="87.9" fill="none" stroke="#3399CC" stroke-width="4" stroke-miterlimit="10" width="301.5" height="310.4"/>
<g>
	<path fill="#FFFFFF" d="M41.6,67.7h9.6v2.8h-6.3v3.4h5.4v2.8h-5.4v5.6h-3.3V67.7z"/>
	<path fill="#FFFFFF" d="M54.3,71.1H62v11h-3.3v-8.5h-4.4V71.1z M58,67.5c0-1.2,0.9-2,2.2-2c1.3,0,2.2,0.8,2.2,2c0,1.2-0.9,2-2.2,2
		C58.9,69.5,58,68.7,58,67.5z"/>
	<path fill="#FFFFFF" d="M67.3,66.6h6.5V78c0,1.4,0.9,1.8,1.8,1.8c0.5,0,1-0.1,1.7-0.4l0.7,2.4c-1.2,0.4-1.9,0.6-3.3,0.6
		c-2.8,0-4.2-1.8-4.2-4.6v-8.7h-3.2V66.6z"/>
	<path fill="#FFFFFF" d="M86.2,70.9c3.4,0,5.2,2.3,5.2,5.3c0,0.6-0.1,1.2-0.1,1.4h-7.4c0.2,1.6,1.6,2.3,3.2,2.3c1,0,1.9-0.3,2.8-0.8
		l1.1,2c-1.2,0.8-2.9,1.3-4.4,1.3c-3.4,0-6.1-2.1-6.1-5.8C80.4,73,83.2,70.9,86.2,70.9z M88.4,75.4c0-1.2-0.7-2.1-2.2-2.1
		c-1.2,0-2.2,0.7-2.5,2.1H88.4z"/>
	<path fill="#FFFFFF" d="M107.3,67.7h3.9c4.2,0,7,2.2,7,7.2s-2.8,7.3-6.8,7.3h-4.1V67.7z M111.1,79.5c2.3,0,3.8-1.2,3.8-4.7
		s-1.5-4.5-3.8-4.5h-0.5v9.2H111.1z"/>
	<path fill="#FFFFFF" d="M126.1,70.9c3.4,0,5.2,2.3,5.2,5.3c0,0.6-0.1,1.2-0.1,1.4h-7.4c0.2,1.6,1.6,2.3,3.2,2.3
		c1,0,1.9-0.3,2.8-0.8l1.1,2c-1.2,0.8-2.9,1.3-4.4,1.3c-3.4,0-6.1-2.1-6.1-5.8C120.4,73,123.2,70.9,126.1,70.9z M128.4,75.4
		c0-1.2-0.7-2.1-2.2-2.1c-1.2,0-2.2,0.7-2.5,2.1H128.4z"/>
	<path fill="#FFFFFF" d="M135.2,78.7c1.3,0.8,2.5,1.3,4,1.3c1.5,0,2.1-0.4,2.1-0.9c0-0.7-1.2-1-3-1.5c-1.9-0.5-3.9-1.5-3.9-3.2
		c0-2,1.9-3.4,5.1-3.4c2,0,3.6,0.8,4.8,1.5l-1.5,2c-1-0.6-2.1-1-3.2-1c-1.4,0-1.9,0.3-1.9,0.9c0,0.7,1.3,1,2.8,1.4
		c2.2,0.6,4.1,1.4,4.1,3.3c0,2-1.9,3.6-5.4,3.6c-2,0-4-0.8-5.4-1.7L135.2,78.7z"/>
	<path fill="#FFFFFF" d="M153.7,70.9c1.7,0,3.2,0.6,4.1,1.5l-1.5,2c-0.8-0.6-1.6-0.9-2.4-0.9c-1.9,0-3.2,1.2-3.2,3.1
		s1.3,3.1,3.1,3.1c1.2,0,2.1-0.5,2.9-1l1.3,2.1c-1.3,1.1-3,1.6-4.6,1.6c-3.5,0-6.1-2.1-6.1-5.8S150.3,70.9,153.7,70.9z"/>
	<path fill="#FFFFFF" d="M165.8,77.2c1.5,0,2.6,1.2,2.6,2.6c0,1.5-1,2.6-2.6,2.6s-2.6-1.1-2.6-2.6C163.3,78.4,164.3,77.2,165.8,77.2
		z"/>
	<path fill="#FFFFFF" d="M190.8,70.4h-4.3v-2.8h12v2.8h-4.3v11.7h-3.3V70.4z"/>
	<path fill="#FFFFFF" d="M207.8,75.1c-0.1-1-0.9-1.6-2.4-1.6c-1.1,0-2.1,0.4-3.4,1l-1.2-2.1c1.5-0.9,3.3-1.5,5.2-1.5
		c3.1,0,5,1.6,5,5v6.3h-2.7l-0.2-1.2H208c-1.1,0.8-2.5,1.5-3.9,1.5c-2.2,0-3.6-1.5-3.6-3.3C200.5,76.6,202.6,75.4,207.8,75.1z
		 M205.2,79.9c1,0,1.8-0.4,2.6-1V77c-3.2,0.2-4.1,0.9-4.1,1.8C203.6,79.6,204.2,79.9,205.2,79.9z"/>
	<path fill="#FFFFFF" d="M214.1,66.6h3.3v3.8l-0.1,1.7c0.9-0.8,2-1.3,3.1-1.3c2.8,0,4.4,2.2,4.4,5.6c0,3.8-2.3,6-4.8,6
		c-1,0-2.1-0.5-3-1.5h-0.1l-0.3,1.2h-2.6V66.6z M219.3,79.8c1.2,0,2.2-1,2.2-3.2c0-2-0.6-3-2-3c-0.7,0-1.4,0.3-2,1V79
		C218,79.6,218.7,79.8,219.3,79.8z"/>
	<path fill="#FFFFFF" d="M227.2,66.6h6.5V78c0,1.4,0.9,1.8,1.8,1.8c0.5,0,1-0.1,1.7-0.4l0.7,2.4c-1.2,0.4-1.9,0.6-3.3,0.6
		c-2.8,0-4.2-1.8-4.2-4.6v-8.7h-3.2V66.6z"/>
	<path fill="#FFFFFF" d="M246.1,70.9c3.4,0,5.2,2.3,5.2,5.3c0,0.6-0.1,1.2-0.1,1.4h-7.4c0.2,1.6,1.6,2.3,3.2,2.3
		c1,0,1.9-0.3,2.8-0.8l1.1,2c-1.2,0.8-2.9,1.3-4.4,1.3c-3.4,0-6.1-2.1-6.1-5.8C240.4,73,243.2,70.9,246.1,70.9z M248.3,75.4
		c0-1.2-0.7-2.1-2.2-2.1c-1.2,0-2.2,0.7-2.5,2.1H248.3z"/>
</g>
<path fill="#3399CC" stroke="#3399CC" stroke-width="4" stroke-miterlimit="10" d="M143.8,417.3c-12.6,0-109.2,0-109.2,0v28.1
	c0,0,148.4,0,164.1,0C177.4,445.4,176.2,417.3,143.8,417.3z"/>
<rect x="34.6" y="445.4" fill="none" stroke="#3399CC" stroke-width="4" stroke-miterlimit="10" width="301.1" height="127.2"/>
<g>
	<path fill="#FFFFFF" d="M39.6,425.1H43l1.7,6.8c0.4,1.6,0.7,3,1.2,4.6H46c0.4-1.6,0.8-3.1,1.2-4.6l1.7-6.8h3.3l-4.4,14.5h-3.9
		L39.6,425.1z"/>
	<path fill="#FFFFFF" d="M61.2,432.5c-0.1-1-0.9-1.6-2.4-1.6c-1.1,0-2.1,0.4-3.4,1l-1.2-2.1c1.5-0.9,3.3-1.5,5.2-1.5
		c3.1,0,5,1.6,5,5v6.3h-2.7l-0.2-1.2h-0.1c-1.1,0.8-2.5,1.5-3.9,1.5c-2.2,0-3.6-1.5-3.6-3.3C53.9,434.1,55.9,432.8,61.2,432.5z
		 M58.6,437.4c1,0,1.8-0.4,2.6-1v-1.8c-3.2,0.2-4.1,0.9-4.1,1.8C57,437,57.6,437.4,58.6,437.4z"/>
	<path fill="#FFFFFF" d="M68.5,428.6h2.7l0.3,2.4h0.1c1.1-1.8,2.7-2.7,4.5-2.7c1,0,1.5,0.2,2.1,0.4l-0.7,2.7c-0.7-0.2-1.1-0.3-2-0.3
		c-1.4,0-2.8,0.7-3.7,2.7v5.7h-3.3V428.6z"/>
	<path fill="#FFFFFF" d="M81,428.6h7.7v11h-3.3v-8.5H81V428.6z M84.7,425c0-1.2,0.9-2,2.2-2c1.3,0,2.2,0.8,2.2,2c0,1.2-0.9,2-2.2,2
		C85.6,427,84.7,426.2,84.7,425z"/>
	<path fill="#FFFFFF" d="M101.2,432.5c-0.1-1-0.9-1.6-2.4-1.6c-1.1,0-2.1,0.4-3.4,1l-1.2-2.1c1.5-0.9,3.3-1.5,5.2-1.5
		c3.1,0,5,1.6,5,5v6.3h-2.7l-0.2-1.2h-0.1c-1.1,0.8-2.5,1.5-3.9,1.5c-2.2,0-3.6-1.5-3.6-3.3C93.9,434.1,95.9,432.8,101.2,432.5z
		 M98.6,437.4c1,0,1.8-0.4,2.6-1v-1.8c-3.2,0.2-4.1,0.9-4.1,1.8C97,437,97.6,437.4,98.6,437.4z"/>
	<path fill="#FFFFFF" d="M107.5,424h3.3v3.8l-0.1,1.7c0.9-0.8,2-1.3,3.1-1.3c2.8,0,4.4,2.2,4.4,5.6c0,3.8-2.3,6-4.8,6
		c-1,0-2.1-0.5-3-1.5h-0.1l-0.3,1.2h-2.6V424z M112.6,437.2c1.2,0,2.2-1,2.2-3.2c0-2-0.6-3-2-3c-0.7,0-1.4,0.3-2,1v4.5
		C111.3,437,112.1,437.2,112.6,437.2z"/>
	<path fill="#FFFFFF" d="M120.6,424h6.5v11.4c0,1.4,0.9,1.8,1.8,1.8c0.5,0,1-0.1,1.7-0.4l0.7,2.4c-1.2,0.4-1.9,0.6-3.3,0.6
		c-2.8,0-4.2-1.8-4.2-4.6v-8.7h-3.2V424z"/>
	<path fill="#FFFFFF" d="M139.5,428.3c3.4,0,5.2,2.3,5.2,5.3c0,0.6-0.1,1.2-0.1,1.4h-7.4c0.2,1.6,1.6,2.3,3.2,2.3
		c1,0,1.9-0.3,2.8-0.8l1.1,2c-1.2,0.8-2.9,1.3-4.4,1.3c-3.4,0-6.1-2.1-6.1-5.8C133.7,430.5,136.5,428.3,139.5,428.3z M141.7,432.9
		c0-1.2-0.7-2.1-2.2-2.1c-1.2,0-2.2,0.7-2.5,2.1H141.7z"/>
	<path fill="#FFFFFF" d="M148.5,436.2c1.3,0.8,2.5,1.3,4,1.3c1.5,0,2.1-0.4,2.1-0.9c0-0.7-1.2-1-3-1.5c-1.9-0.5-3.9-1.5-3.9-3.2
		c0-2,1.9-3.4,5.1-3.4c2,0,3.6,0.8,4.8,1.5l-1.5,2c-1-0.6-2.1-1-3.2-1c-1.4,0-1.9,0.3-1.9,0.9c0,0.7,1.3,1,2.8,1.4
		c2.2,0.6,4.1,1.4,4.1,3.3c0,2-1.9,3.6-5.4,3.6c-2,0-4-0.8-5.4-1.7L148.5,436.2z"/>
</g>
<g>
	<path fill="#3399CC" d="M664.7,158.1H540.6c-6.2,0-11.3-5-11.3-11.3V54.1c0-6.2,5-11.3,11.3-11.3h124.1c6.2,0,11.3,5,11.3,11.3
		v92.7C676,153,671,158.1,664.7,158.1z"/>
	<polygon fill="#FFFFFF" points="560.8,130.4 550.3,120 571.2,99 550.3,78.1 560.8,67.6 592.2,99 	"/>
	<rect x="601.8" y="113.7" fill="#FFFFFF" width="47.6" height="14"/>
</g>
<g>
	<g>
		<path fill="#666666" d="M53.3,469.4c1.4,0,2.6,1.1,2.6,2.7c0,1.6-1.2,2.7-2.6,2.7c-1.4,0-2.6-1.1-2.6-2.7
			C50.7,470.5,51.8,469.4,53.3,469.4z"/>
		<path fill="#666666" d="M72.5,469.4c1.4,0,2.6,1.1,2.6,2.7c0,1.6-1.2,2.7-2.6,2.7c-1.4,0-2.6-1.1-2.6-2.7
			C69.9,470.5,71.1,469.4,72.5,469.4z"/>
		<path fill="#666666" d="M91.8,469.4c1.4,0,2.6,1.1,2.6,2.7c0,1.6-1.2,2.7-2.6,2.7c-1.4,0-2.6-1.1-2.6-2.7
			C89.2,470.5,90.3,469.4,91.8,469.4z"/>
		<path fill="#666666" d="M49.3,514.3v5.3h-2.6v-22.2h2.2l0.2,2h0.1c1.4-1.4,3.5-2.4,5.4-2.4c4.2,0,6.4,3.1,6.4,8
			c0,5.3-3.3,8.4-7.1,8.4c-1.4,0-3.3-0.7-4.7-2L49.3,514.3z M53.4,511.1c2.8,0,4.8-2.3,4.8-6.2c0-3.4-1.3-5.7-4.4-5.7
			c-1.4,0-3,0.7-4.6,2.3v7.8C50.8,510.6,52.4,511.1,53.4,511.1z"/>
		<path fill="#666666" d="M65.8,497.4h9.9V513h-2.6v-13.4h-7.3V497.4z M72,492.1c0-1.3,0.9-2.1,2.1-2.1c1.2,0,2.1,0.8,2.1,2.1
			c0,1.2-0.9,2-2.1,2C72.9,494.2,72,493.4,72,492.1z"/>
		<path fill="#666666" d="M87.8,514.3v5.3h-2.6v-22.2h2.2l0.2,2h0.1c1.4-1.4,3.5-2.4,5.4-2.4c4.2,0,6.4,3.1,6.4,8
			c0,5.3-3.3,8.4-7.1,8.4c-1.4,0-3.3-0.7-4.7-2L87.8,514.3z M91.9,511.1c2.8,0,4.8-2.3,4.8-6.2c0-3.4-1.3-5.7-4.4-5.7
			c-1.4,0-3,0.7-4.6,2.3v7.8C89.3,510.6,90.9,511.1,91.9,511.1z"/>
		<path fill="#666666" d="M111.6,497c4.5,0,7.1,2.9,7.1,7.3c0,0.5,0,1.1-0.1,1.5h-12.2c0.1,3.3,2.6,5.4,6,5.4c1.8,0,3.3-0.5,4.7-1.4
			l0.9,1.7c-1.5,1-3.5,1.8-6,1.8c-4.6,0-8.4-3-8.4-8.2S107.5,497,111.6,497z M116.2,503.9c0-3.1-1.7-4.8-4.6-4.8
			c-2.5,0-4.8,1.8-5.3,4.8H116.2z"/>
		<path fill="#666666" d="M138,515.2v2.3h-15.4v-2.3H138z"/>
		<path fill="#666666" d="M142.8,497.4h9.9V513h-2.6v-13.4h-7.3V497.4z M149,492.1c0-1.3,0.9-2.1,2.1-2.1c1.2,0,2.1,0.8,2.1,2.1
			c0,1.2-0.9,2-2.1,2C149.9,494.2,149,493.4,149,492.1z"/>
		<path fill="#666666" d="M162.2,497.4h2.2l0.2,2.7h0.1c1.6-1.7,3.4-3,5.9-3c3.7,0,5.4,2.2,5.4,6.3v9.7h-2.6v-9.3c0-3-1-4.4-3.6-4.4
			c-1.9,0-3.1,0.9-4.9,2.8V513h-2.6V497.4z"/>
		<path fill="#666666" d="M219.6,498h13.8v2h-13.8V498z M219.6,504.8h13.8v2h-13.8V504.8z"/>
		<path fill="#666666" d="M258.6,508.7c1.3,1.3,3.2,2.4,5.9,2.4c2.8,0,4.9-1.5,4.9-3.8c0-2.4-2.1-4.1-7.4-4.1v-2
			c4.8,0,6.7-1.7,6.7-3.8c0-2-1.7-3.2-4.2-3.2c-1.9,0-3.7,0.9-5,2.1l-1.4-1.7c1.7-1.5,3.9-2.6,6.5-2.6c3.9,0,6.8,1.9,6.8,5.2
			c0,2.5-1.8,4-4.4,4.9v0.1c2.7,0.6,5.1,2.4,5.1,5.2c0,3.6-3.3,5.8-7.4,5.8c-3.5,0-5.9-1.4-7.4-2.9L258.6,508.7z"/>
		<path fill="#666666" d="M49.3,552.8v5.3h-2.6v-22.2h2.2l0.2,2h0.1c1.4-1.4,3.5-2.4,5.4-2.4c4.2,0,6.4,3.1,6.4,8
			c0,5.3-3.3,8.4-7.1,8.4c-1.4,0-3.3-0.7-4.7-2L49.3,552.8z M53.4,549.6c2.8,0,4.8-2.3,4.8-6.2c0-3.4-1.3-5.7-4.4-5.7
			c-1.4,0-3,0.7-4.6,2.3v7.8C50.8,549.1,52.4,549.6,53.4,549.6z"/>
		<path fill="#666666" d="M65.8,535.9h9.9v15.6h-2.6V538h-7.3V535.9z M72,530.6c0-1.3,0.9-2.1,2.1-2.1c1.2,0,2.1,0.8,2.1,2.1
			c0,1.2-0.9,2-2.1,2C72.9,532.7,72,531.9,72,530.6z"/>
		<path fill="#666666" d="M87.8,552.8v5.3h-2.6v-22.2h2.2l0.2,2h0.1c1.4-1.4,3.5-2.4,5.4-2.4c4.2,0,6.4,3.1,6.4,8
			c0,5.3-3.3,8.4-7.1,8.4c-1.4,0-3.3-0.7-4.7-2L87.8,552.8z M91.9,549.6c2.8,0,4.8-2.3,4.8-6.2c0-3.4-1.3-5.7-4.4-5.7
			c-1.4,0-3,0.7-4.6,2.3v7.8C89.3,549.1,90.9,549.6,91.9,549.6z"/>
		<path fill="#666666" d="M111.6,535.5c4.5,0,7.1,2.9,7.1,7.3c0,0.5,0,1.1-0.1,1.5h-12.2c0.1,3.3,2.6,5.4,6,5.4
			c1.8,0,3.3-0.5,4.7-1.4l0.9,1.7c-1.5,1-3.5,1.8-6,1.8c-4.6,0-8.4-3-8.4-8.2S107.5,535.5,111.6,535.5z M116.2,542.4
			c0-3.1-1.7-4.8-4.6-4.8c-2.5,0-4.8,1.8-5.3,4.8H116.2z"/>
		<path fill="#666666" d="M138,553.7v2.3h-15.4v-2.3H138z"/>
		<path fill="#666666" d="M149.5,535.5c4.1,0,7.7,3,7.7,8.2c0,5.2-3.6,8.2-7.7,8.2s-7.7-3-7.7-8.2
			C141.8,538.5,145.4,535.5,149.5,535.5z M149.5,549.7c3,0,5-2.4,5-6c0-3.6-2-6-5-6c-3,0-5,2.4-5,6
			C144.6,547.3,146.6,549.7,149.5,549.7z"/>
		<path fill="#666666" d="M175.4,551.5h-2.1l-0.2-2.7h-0.1c-1.6,1.8-3.4,3.1-5.8,3.1c-3.7,0-5.4-2.2-5.4-6.3v-9.7h2.7v9.3
			c0,3,1,4.4,3.6,4.4c1.8,0,3.1-0.9,4.8-2.9v-10.8h2.6V551.5z"/>
		<path fill="#666666" d="M185,538h-4.4v-2l4.5-0.2l0.4-4.4h2.2v4.4h7.7v2.2h-7.7v7.4c0,2.8,0.9,4.3,3.9,4.3c1.5,0,2.7-0.3,3.8-0.7
			l0.6,1.9c-1.4,0.5-3.2,0.9-4.9,0.9c-4.5,0-6-2.6-6-6.4V538z"/>
		<path fill="#666666" d="M219.6,536.5h13.8v2h-13.8V536.5z M219.6,543.3h13.8v2h-13.8V543.3z"/>
		<path fill="#666666" d="M272.9,545.8h-3.2v5.6h-2.5v-5.6h-10.6v-1.8l10.2-13.1h2.8v12.7h3.2V545.8z M267.2,543.7v-6.4
			c0-1.1,0.1-2.5,0.2-3.6h-0.2c-0.6,1-1.4,2-2.1,3l-5.6,7H267.2z"/>
	</g>
</g>
<line fill="none" stroke="#3399CC" stroke-width="2" stroke-miterlimit="10" x1="104" y1="398" x2="104" y2="88"/>
<line fill="none" stroke="#3399CC" stroke-width="2" stroke-miterlimit="10" x1="34" y1="150" x2="336" y2="150"/>
<line fill="none" stroke="#3399CC" stroke-width="2" stroke-miterlimit="10" x1="34" y1="211" x2="336" y2="211"/>
<line fill="none" stroke="#3399CC" stroke-width="2" stroke-miterlimit="10" x1="34" y1="273" x2="336" y2="273"/>
<g>
	<path fill="#666666" d="M60.3,119.5c0-8.6,3.5-13.2,9.2-13.2s9.2,4.6,9.2,13.2c0,8.5-3.5,13.3-9.2,13.3S60.3,128,60.3,119.5z
		 M63.4,119.5c0,7.3,2.5,10.7,6.1,10.7s6.1-3.4,6.1-10.7c0-7.4-2.5-10.5-6.1-10.5S63.4,112.1,63.4,119.5z M67,119.2
		c0-1.6,1.2-2.6,2.5-2.6s2.5,1,2.5,2.6c0,1.7-1.2,2.7-2.5,2.7S67,120.9,67,119.2z"/>
</g>
<g>
	<path fill="#666666" d="M78.6,189.5v2.7H61.4v-2.7h7.2v-18.8h-5.4v-2.1c2.7-0.4,4.7-1,6.3-1.9h2.4v22.8H78.6z"/>
</g>
<g>
	<path fill="#666666" d="M60.4,254.4c8.6-7.6,13.4-12.1,13.4-16.4c0-2.9-1.8-5-5.6-5c-2.4,0-4.5,1.4-6.1,3.1l-1.9-1.9
		c2.3-2.3,4.8-3.9,8.4-3.9c5.1,0,8.3,3,8.3,7.5c0,4.8-4.8,9.6-11.8,15.9c1.6-0.1,3.2-0.2,4.8-0.2h8.4v2.8h-18V254.4z"/>
</g>
<g>
	<path fill="#666666" d="M61.4,312.8c1.7,1.6,4,3,7.3,3c3.5,0,6.1-1.8,6.1-4.7c0-3-2.6-5.1-9.3-5.1v-2.5c6,0,8.4-2.1,8.4-4.8
		c0-2.5-2.1-4-5.2-4c-2.4,0-4.6,1.1-6.3,2.6l-1.8-2.1c2.1-1.8,4.9-3.2,8.2-3.2c4.8,0,8.4,2.4,8.4,6.5c0,3.1-2.3,5-5.4,6.1v0.2
		c3.4,0.7,6.3,3,6.3,6.5c0,4.5-4.2,7.3-9.2,7.3c-4.4,0-7.3-1.7-9.2-3.6L61.4,312.8z"/>
</g>
<g>
	<path fill="#666666" d="M113.4,124.5c1.5,1.5,3.5,2.5,5.7,2.5c2.8,0,4.4-1.3,4.4-3.2c0-2-1.5-2.6-3.5-3.5l-2.8-1.2
		c-2-0.8-4.3-2.2-4.3-5.1c0-3,2.7-5.2,6.4-5.2c2.5,0,4.6,1,6.1,2.4l-1.3,1.6c-1.3-1.1-2.8-1.9-4.7-1.9c-2.4,0-3.9,1.1-3.9,2.9
		c0,1.9,1.8,2.6,3.5,3.3l2.8,1.2c2.4,1,4.3,2.3,4.3,5.2c0,3.1-2.6,5.6-7,5.6c-2.9,0-5.4-1.1-7.1-2.9L113.4,124.5z"/>
	<path fill="#666666" d="M135.7,111.2h-6.5v-2.1h15.5v2.1h-6.5v17.6h-2.5V111.2z"/>
	<path fill="#666666" d="M148.5,109.1h4.8c5.9,0,9.1,3.5,9.1,9.8c0,6.3-3.2,9.9-9,9.9h-4.9V109.1z M153.1,126.7
		c4.5,0,6.7-2.9,6.7-7.9c0-4.9-2.2-7.7-6.7-7.7H151v15.6H153.1z"/>
	<path fill="#666666" d="M184.8,126.7h4.9v-15.4h-4.9v-2.1h12.3v2.1h-4.9v15.4h4.9v2.1h-12.3V126.7z"/>
	<path fill="#666666" d="M202.4,109.1h2.5l6.4,12.4l2,4h0.1c-0.1-1.9-0.3-4.2-0.3-6.2v-10.2h2.4v19.7h-2.5l-6.4-12.4l-2-4h-0.1
		c0.1,2,0.3,4.1,0.3,6.2v10.3h-2.4V109.1z"/>
</g>
<g>
	<path fill="#666666" d="M113.4,185c1.5,1.5,3.5,2.5,5.7,2.5c2.8,0,4.4-1.3,4.4-3.2c0-2-1.5-2.6-3.5-3.5l-2.8-1.2
		c-2-0.8-4.3-2.2-4.3-5.1c0-3,2.7-5.2,6.4-5.2c2.5,0,4.6,1,6.1,2.4l-1.3,1.6c-1.3-1.1-2.8-1.9-4.7-1.9c-2.4,0-3.9,1.1-3.9,2.9
		c0,1.9,1.8,2.6,3.5,3.3l2.8,1.2c2.4,1,4.3,2.3,4.3,5.2c0,3.1-2.6,5.6-7,5.6c-2.9,0-5.4-1.1-7.1-2.9L113.4,185z"/>
	<path fill="#666666" d="M135.7,171.7h-6.5v-2.1h15.5v2.1h-6.5v17.6h-2.5V171.7z"/>
	<path fill="#666666" d="M148.5,169.6h4.8c5.9,0,9.1,3.5,9.1,9.8c0,6.3-3.2,9.9-9,9.9h-4.9V169.6z M153.1,187.2
		c4.5,0,6.7-2.9,6.7-7.9c0-4.9-2.2-7.7-6.7-7.7H151v15.6H153.1z"/>
	<path fill="#666666" d="M183.4,179.3c0-6.3,3.1-10.1,7.6-10.1s7.6,3.8,7.6,10.1c0,6.3-3.1,10.3-7.6,10.3S183.4,185.7,183.4,179.3z
		 M195.9,179.3c0-4.9-2-7.9-5-7.9c-3,0-5,3-5,7.9c0,4.9,2,8.1,5,8.1C193.9,187.4,195.9,184.2,195.9,179.3z"/>
	<path fill="#666666" d="M202.3,169.6h2.5v12.3c0,4.1,1.8,5.5,4.1,5.5c2.4,0,4.2-1.5,4.2-5.5v-12.3h2.4v12.2c0,5.6-2.8,7.8-6.6,7.8
		c-3.9,0-6.7-2.2-6.7-7.8V169.6z"/>
	<path fill="#666666" d="M225.7,171.7h-6.5v-2.1h15.5v2.1h-6.5v17.6h-2.5V171.7z"/>
</g>
<g>
	<path fill="#666666" d="M113.4,247.3c1.5,1.5,3.5,2.5,5.7,2.5c2.8,0,4.4-1.3,4.4-3.2c0-2-1.5-2.6-3.5-3.5l-2.8-1.2
		c-2-0.8-4.3-2.2-4.3-5.1c0-3,2.7-5.2,6.4-5.2c2.5,0,4.6,1,6.1,2.4l-1.3,1.6c-1.3-1.1-2.8-1.9-4.7-1.9c-2.4,0-3.9,1.1-3.9,2.9
		c0,1.9,1.8,2.6,3.5,3.3l2.8,1.2c2.4,1,4.3,2.3,4.3,5.2c0,3.1-2.6,5.6-7,5.6c-2.9,0-5.4-1.1-7.1-2.9L113.4,247.3z"/>
	<path fill="#666666" d="M135.7,234h-6.5v-2.1h15.5v2.1h-6.5v17.6h-2.5V234z"/>
	<path fill="#666666" d="M148.5,231.9h4.8c5.9,0,9.1,3.5,9.1,9.7c0,6.3-3.2,9.9-9,9.9h-4.9V231.9z M153.1,249.5
		c4.5,0,6.7-2.9,6.7-7.9c0-4.9-2.2-7.7-6.7-7.7H151v15.6H153.1z"/>
	<path fill="#666666" d="M185.4,231.9h12.1v2.1h-9.6v6.2h8.1v2.1h-8.1v7.1h9.9v2.1h-12.4V231.9z"/>
	<path fill="#666666" d="M213.7,251.6l-4.7-8.3h-3.5v8.3h-2.5v-19.7h6.1c4,0,6.9,1.4,6.9,5.5c0,3.1-1.7,4.9-4.4,5.6l5,8.6H213.7z
		 M205.4,241.2h3.3c3.1,0,4.7-1.3,4.7-3.8c0-2.6-1.7-3.5-4.7-3.5h-3.3V241.2z"/>
	<path fill="#666666" d="M231.7,251.6l-4.7-8.3h-3.5v8.3h-2.5v-19.7h6.1c4,0,6.9,1.4,6.9,5.5c0,3.1-1.7,4.9-4.4,5.6l5,8.6H231.7z
		 M223.4,241.2h3.3c3.1,0,4.7-1.3,4.7-3.8c0-2.6-1.7-3.5-4.7-3.5h-3.3V241.2z"/>
</g>
<line fill="none" stroke="#3399CC" stroke-width="2" stroke-miterlimit="10" x1="34" y1="335" x2="336" y2="335"/>
<g>
	<path fill="#666666" d="M79.3,373h-4v7h-3.1v-7H59v-2.2l12.8-16.3h3.5v15.8h4V373z M72.2,370.4v-7.9c0-1.4,0.1-3.1,0.2-4.5h-0.2
		c-0.8,1.2-1.8,2.5-2.6,3.7l-6.9,8.7H72.2z"/>
</g>
<g>
	<path fill="#666666" d="M113,295.5h6c4.3,0,7.3,1.5,7.3,5.8c0,4.1-2.9,6.1-7.3,6.1h-3.5v7.8H113V295.5z M118.7,305.4
		c3.4,0,5.1-1.3,5.1-4c0-2.8-1.7-3.8-5.1-3.8h-3.2v7.8H118.7z"/>
	<path fill="#666666" d="M130.6,300.6h9.2v14.6h-2.5v-12.6h-6.8V300.6z M136.4,295.7c0-1.2,0.8-1.9,2-1.9c1.1,0,2,0.8,2,1.9
		c0,1.1-0.9,1.9-2,1.9C137.2,297.6,136.4,296.9,136.4,295.7z"/>
	<path fill="#666666" d="M151.2,316.4v4.9h-2.5v-20.7h2l0.2,1.9h0.1c1.4-1.3,3.2-2.2,5-2.2c3.9,0,6,2.9,6,7.4c0,5-3.1,7.9-6.6,7.9
		c-1.4,0-3.1-0.7-4.4-1.9L151.2,316.4z M155.1,313.5c2.6,0,4.5-2.2,4.5-5.8c0-3.2-1.2-5.4-4.1-5.4c-1.3,0-2.8,0.7-4.3,2.2v7.3
		C152.5,313,154.1,313.5,155.1,313.5z"/>
	<path fill="#666666" d="M173.4,300.3c4.2,0,6.6,2.7,6.6,6.8c0,0.5,0,1-0.1,1.4h-11.4c0.1,3.1,2.4,5.1,5.6,5.1
		c1.7,0,3.1-0.5,4.4-1.3l0.9,1.6c-1.4,0.9-3.3,1.7-5.6,1.7c-4.3,0-7.8-2.9-7.8-7.6S169.6,300.3,173.4,300.3z M177.7,306.8
		c0-2.9-1.6-4.5-4.3-4.5c-2.4,0-4.5,1.7-4.9,4.5H177.7z"/>
	<path fill="#666666" d="M213.7,315.2l-4.7-8.3h-3.5v8.3h-2.5v-19.7h6.1c4,0,6.9,1.4,6.9,5.5c0,3.1-1.7,4.9-4.4,5.6l5,8.6H213.7z
		 M205.4,304.9h3.3c3.1,0,4.7-1.3,4.7-3.8c0-2.6-1.7-3.5-4.7-3.5h-3.3V304.9z"/>
	<path fill="#666666" d="M226.9,310.5c1.4,0,2.4,1,2.4,2.5c0,1.5-1.1,2.5-2.4,2.5c-1.3,0-2.4-1-2.4-2.5
		C224.5,311.5,225.6,310.5,226.9,310.5z"/>
</g>
<g>
	<path fill="#666666" d="M113,356.5h6c4.3,0,7.3,1.5,7.3,5.8c0,4.1-2.9,6.1-7.3,6.1h-3.5v7.8H113V356.5z M118.7,366.4
		c3.4,0,5.1-1.3,5.1-4c0-2.8-1.7-3.8-5.1-3.8h-3.2v7.8H118.7z"/>
	<path fill="#666666" d="M130.6,361.6h9.2v14.6h-2.5v-12.6h-6.8V361.6z M136.4,356.7c0-1.2,0.8-1.9,2-1.9c1.1,0,2,0.8,2,1.9
		c0,1.1-0.9,1.9-2,1.9C137.2,358.6,136.4,357.9,136.4,356.7z"/>
	<path fill="#666666" d="M151.2,377.4v4.9h-2.5v-20.7h2l0.2,1.9h0.1c1.4-1.3,3.2-2.2,5-2.2c3.9,0,6,2.9,6,7.4c0,5-3.1,7.9-6.6,7.9
		c-1.4,0-3.1-0.7-4.4-1.9L151.2,377.4z M155.1,374.5c2.6,0,4.5-2.2,4.5-5.8c0-3.2-1.2-5.4-4.1-5.4c-1.3,0-2.8,0.7-4.3,2.2v7.3
		C152.5,374,154.1,374.5,155.1,374.5z"/>
	<path fill="#666666" d="M173.4,361.3c4.2,0,6.6,2.7,6.6,6.8c0,0.5,0,1-0.1,1.4h-11.4c0.1,3.1,2.4,5.1,5.6,5.1
		c1.7,0,3.1-0.5,4.4-1.3l0.9,1.6c-1.4,0.9-3.3,1.7-5.6,1.7c-4.3,0-7.8-2.9-7.8-7.6S169.6,361.3,173.4,361.3z M177.7,367.8
		c0-2.9-1.6-4.5-4.3-4.5c-2.4,0-4.5,1.7-4.9,4.5H177.7z"/>
	<path fill="#666666" d="M200.2,356.5h2.5l1.6,12.4c0.1,1.6,0.3,3.2,0.4,4.9h0.1c0.4-1.6,0.9-3.2,1.3-4.9l2.1-7.3h1.8l2.1,7.3
		c0.4,1.6,0.8,3.2,1.2,4.9h0.1c0.1-1.6,0.3-3.2,0.4-4.9l1.5-12.4h2.4l-2.9,19.7h-2.8l-2.2-8.2c-0.3-1.2-0.5-2.4-0.7-3.5h-0.1
		c-0.2,1.2-0.5,2.4-0.8,3.5l-2.2,8.2h-2.7L200.2,356.5z"/>
	<path fill="#666666" d="M226.9,371.5c1.4,0,2.4,1,2.4,2.5c0,1.5-1.1,2.5-2.4,2.5c-1.3,0-2.4-1-2.4-2.5
		C224.5,372.5,225.6,371.5,226.9,371.5z"/>
</g>
<circle fill="#3399CC" cx="310.1" cy="119.6" r="15.2"/>
<circle fill="#3399CC" cx="310.1" cy="181.3" r="15.2"/>
<circle fill="#3399CC" cx="310.1" cy="243" r="15.2"/>
<circle fill="#3399CC" cx="310.1" cy="305.9" r="15.2"/>
<circle fill="#3399CC" cx="310.1" cy="364.9" r="15.2"/>
<line fill="none" stroke="#3399CC" stroke-width="6" stroke-linecap="round" stroke-miterlimit="10" x1="310.1" y1="119.6" x2="515.5" y2="78.5"/>
<line fill="none" stroke="#3399CC" stroke-width="6" stroke-linecap="round" stroke-miterlimit="10" x1="310.1" y1="181.3" x2="515.5" y2="93.2"/>
<line fill="none" stroke="#3399CC" stroke-width="6" stroke-linecap="round" stroke-miterlimit="10" x1="310.1" y1="243" x2="515.5" y2="111"/>
<path fill="none" stroke="#3399CC" stroke-width="6" stroke-linecap="round" stroke-miterlimit="10" d="M428.4,514h231.2
	c7,0,12.7-5.7,12.7-12.7v-54.2c0-7-5.7-12.7-12.7-12.7H428.4c-7,0-12.7,5.7-12.7,12.7v54.2C415.7,508.3,421.3,514,428.4,514z"/>
<path fill="#3399CC" stroke="#3399CC" stroke-width="6" stroke-linecap="round" stroke-miterlimit="10" d="M591.4,514
	c33.8,0.1,68.2,0,68.2,0c7,0,12.7-5.7,12.7-12.7v-54.2c0-7-5.7-12.7-12.7-12.7c0,0-145.2-0.1-169.4-0.1
	C537.3,442.2,536.9,505.5,591.4,514z"/>
<g>
	<g>
		<path fill="#666666" d="M445.7,447.6h6.6l4.2,32.8c0.2,4.4,0.8,8.6,1.1,12.9h0.2c1.1-4.3,2.3-8.6,3.3-12.9l5.5-19.2h4.7l5.5,19.2
			c1,4.2,2.1,8.6,3.3,12.9h0.3c0.3-4.3,0.8-8.6,1.1-12.9l4-32.8h6.3l-7.7,52.3h-7.3l-6-21.9c-0.7-3.1-1.4-6.3-1.9-9.4h-0.2
			c-0.6,3.1-1.3,6.3-2.1,9.4l-5.7,21.9h-7.2L445.7,447.6z"/>
	</g>
</g>
<g>
	<g>
		<path fill="#FFFFFF" d="M629.9,501.9l-12.6-22h-9.3v22h-6.6v-52.2h16.2c10.6,0,18.2,3.8,18.2,14.6c0,8.1-4.6,13-11.7,14.8
			l13.3,22.8H629.9z M608.1,474.5h8.7c8.1,0,12.6-3.3,12.6-10.1c0-6.8-4.5-9.3-12.6-9.3h-8.7V474.5z"/>
	</g>
</g>
<line fill="none" stroke="#3399CC" stroke-width="6" stroke-linecap="round" stroke-miterlimit="10" x1="310.1" y1="305.9" x2="612" y2="423"/>
<line fill="none" stroke="#3399CC" stroke-width="6" stroke-linecap="round" stroke-miterlimit="10" x1="310.1" y1="364.9" x2="466" y2="423"/>
</svg>
