<?xml version="1.0" encoding="utf-8"?>
<!-- Generator: Adobe Illustrator 18.0.0, SVG Export Plug-In . SVG Version: 6.00 Build 0)  -->
<!DOCTYPE svg PUBLIC "-//W3C//DTD SVG 1.1//EN" "http://www.w3.org/Graphics/SVG/1.1/DTD/svg11.dtd">
<svg version="1.1" xmlns="http://www.w3.org/2000/svg" xmlns:xlink="http://www.w3.org/1999/xlink" x="0px" y="0px"
	 viewBox="0 0 680 208" enable-background="new 0 0 680 208" xml:space="preserve">
<g id="Layer_8">
</g>
<g id="Layer_7">
</g>
<g id="Layer_6">
</g>
<g id="Layer_5">
</g>
<g id="Layer_4">
</g>
<g id="Layer_3">
</g>
<g id="Layer_2">
</g>
<g id="Layer_1">
	<rect x="10.4" y="10" fill="#D9F5FF" stroke="#000000" stroke-width="2" stroke-miterlimit="10" width="164.9" height="164.9"/>
	<rect x="175.3" y="10" fill="#D3FFD6" stroke="#000000" stroke-width="2" stroke-miterlimit="10" width="330.7" height="164.9"/>
	<rect x="505.1" y="10" fill="#D9F5FF" stroke="#000000" stroke-width="2" stroke-miterlimit="10" width="164.9" height="164.9"/>
	<g>
		<path d="M4,190.5c0-5.6,2.3-8.6,6-8.6s6,3,6,8.6c0,5.5-2.3,8.7-6,8.7S4,196,4,190.5z M6,190.5c0,4.8,1.6,6.9,4,6.9s4-2.2,4-6.9
			c0-4.8-1.6-6.8-4-6.8S6,185.7,6,190.5z M8.4,190.3c0-1.1,0.8-1.7,1.6-1.7s1.6,0.6,1.6,1.7c0,1.1-0.8,1.7-1.6,1.7
			S8.4,191.4,8.4,190.3z"/>
	</g>
	<g>
		<path fill="#FF4D1D" d="M182,194.9h-2.1v4h-3.6v-4h-8v-2.6l6.9-9.9h4.6v9.6h2.1V194.9z M176.4,192v-2.8c0-1,0.1-2.6,0.1-3.6h-0.1
			c-0.5,0.9-1.2,1.9-1.8,2.8l-2.5,3.6H176.4z"/>
	</g>
	<g>
		<g>
			<path fill="#FF4D1D" d="M503.5,195.8v3.1h-11.8v-3.1h4.3v-9.5h-3.4v-2.4c1.9-0.3,3.2-0.8,4.4-1.5h2.8v13.4H503.5z"/>
			<path fill="#FF4D1D" d="M506.6,196.7c4.7-4,7.9-6.8,7.9-9.2c0-1.6-1-2.5-2.7-2.5c-1.3,0-2.4,0.8-3.3,1.7l-2.1-2.1
				c1.7-1.7,3.4-2.6,5.9-2.6c3.5,0,5.8,2.1,5.8,5.3c0,2.8-2.9,5.7-6.1,8.6c0.9-0.1,2.1-0.2,3-0.2h3.9v3.2h-12.4V196.7z"/>
		</g>
	</g>
	<g>
		<path fill="#989898" d="M338.6,190.2v-0.1c-1.4-0.9-2.5-2.1-2.5-3.9c0-2.5,2.2-4.3,5.1-4.3c3.2,0,5.1,1.8,5.1,4.4
			c0,1.6-1.1,3-2.5,4v0.1c1.8,0.9,3.2,2,3.2,4.3c0,2.5-2.2,4.4-6,4.4c-3.7,0-6.1-1.9-6.1-4.6C335,192.3,336.8,191,338.6,190.2z
			 M341.1,197.6c2.5,0,3.8-1.2,3.8-2.9c0-2.3-2.3-2.9-5.2-3.9c-1.6,0.9-2.8,2-2.8,3.6C337,196.3,338.6,197.6,341.1,197.6z
			 M344.5,186.5c0-1.6-1.2-2.9-3.4-2.9c-1.8,0-3.1,1.1-3.1,2.7c0,2,1.9,2.8,4.4,3.6C343.7,188.8,344.5,187.7,344.5,186.5z"/>
	</g>
	<g>
		<path d="M660.1,197.1v1.8h-11.2v-1.8h4.7v-12.2h-3.5v-1.4c1.8-0.3,3-0.7,4.1-1.2h1.6v14.8H660.1z"/>
		<path d="M674.4,185.1c-0.9-0.8-2.1-1.3-3.3-1.3c-2.7,0-5,1.8-5.1,7.1c1.3-1.3,3-2.2,4.7-2.2c3.1,0,5.2,1.7,5.2,5.1
			c0,3.2-2.6,5.3-5.5,5.3c-3.6,0-6.3-2.7-6.3-8c0-6.7,3.3-9.2,6.9-9.2c2,0,3.5,0.8,4.6,1.8L674.4,185.1z M673.9,193.9
			c0-2.3-1.2-3.5-3.5-3.5c-1.3,0-2.8,0.6-4.2,2.2c0.3,3.2,1.8,4.9,4.3,4.9C672.3,197.5,673.9,196,673.9,193.9z"/>
	</g>
	<g>
		<path d="M284.7,79.2h5.6c4.1,0,6.8,1.4,6.8,5.4c0,3.9-2.7,5.7-6.8,5.7H287v7.3h-2.3V79.2z M290,88.4c3.2,0,4.8-1.2,4.8-3.8
			c0-2.7-1.6-3.5-4.8-3.5h-3v7.3H290z"/>
		<path d="M310.8,89c-0.1-1.8-1-3.4-3.6-3.4c-1.8,0-3.5,0.8-4.8,1.6l-0.9-1.6c1.4-0.9,3.7-2,6-2c3.7,0,5.5,2.2,5.5,5.6v8.3h-1.9
			l-0.2-1.8h-0.1c-1.5,1.2-3.4,2.2-5.4,2.2c-2.5,0-4.6-1.4-4.6-3.9C300.9,91,303.8,89.5,310.8,89z M306.2,96.1c1.5,0,3.1-0.7,4.6-2
			v-3.6c-5.8,0.5-7.6,1.6-7.6,3.4C303.2,95.5,304.6,96.1,306.2,96.1z"/>
		<path d="M319,101.6c1.9,0,3.1-1.2,3.7-2.9l0.4-1L316.8,84h2.3l3.3,7.5c0.5,1.2,1.1,2.6,1.7,3.9h0.1c0.5-1.3,1-2.7,1.5-3.9l3-7.5
			h2.2l-6,14.7c-1,2.7-2.7,4.7-5.8,4.7c-0.6,0-1.3-0.1-1.8-0.3l0.5-1.8C318.2,101.5,318.6,101.6,319,101.6z"/>
		<path d="M334.5,77.7h6.9v15.5c0,2,1,2.8,2.7,2.8c0.8,0,1.6-0.2,2.6-0.6l0.6,1.7c-1.2,0.4-2.2,0.8-3.7,0.8c-2.9,0-4.5-1.7-4.5-4.9
			V79.5h-4.6V77.7z"/>
		<path d="M357.5,83.7c3.6,0,6.7,2.6,6.7,7.2c0,4.5-3.1,7.1-6.7,7.1s-6.7-2.6-6.7-7.1C350.7,86.3,353.9,83.7,357.5,83.7z M357.5,96
			c2.6,0,4.3-2.1,4.3-5.2c0-3.1-1.7-5.3-4.3-5.3c-2.6,0-4.3,2.1-4.3,5.3C353.1,93.9,354.9,96,357.5,96z"/>
		<path d="M378,89c-0.1-1.8-1-3.4-3.6-3.4c-1.8,0-3.5,0.8-4.8,1.6l-0.9-1.6c1.4-0.9,3.7-2,6-2c3.7,0,5.5,2.2,5.5,5.6v8.3h-1.9
			l-0.2-1.8h-0.1c-1.5,1.2-3.4,2.2-5.4,2.2c-2.5,0-4.6-1.4-4.6-3.9C368.1,91,371,89.5,378,89z M373.4,96.1c1.5,0,3.1-0.7,4.6-2v-3.6
			c-5.8,0.5-7.6,1.6-7.6,3.4C370.4,95.5,371.8,96.1,373.4,96.1z"/>
		<path d="M390.5,83.7c1.7,0,2.9,0.7,4.1,1.8l-0.1-2.5v-5.2h2.3v19.9H395l-0.2-1.8h-0.1c-1.1,1.1-2.7,2.1-4.4,2.1
			c-3.6,0-5.9-2.6-5.9-7.1C384.3,86.4,387.3,83.7,390.5,83.7z M390.7,96c1.3,0,2.6-0.7,3.8-2v-6.8c-1.2-1.1-2.4-1.6-3.6-1.6
			c-2.4,0-4.3,2.1-4.3,5.2C386.7,94.1,388.2,96,390.7,96z"/>
	</g>
	<g>
		<path d="M540.9,79.2h11.2v2h-8.9v6.2h7.5v2h-7.5v8.2h-2.3V79.2z"/>
		<path d="M562.4,83.7c3.6,0,6.7,2.6,6.7,7.2c0,4.5-3.1,7.1-6.7,7.1s-6.7-2.6-6.7-7.1C555.6,86.3,558.8,83.7,562.4,83.7z M562.4,96
			c2.6,0,4.3-2.1,4.3-5.2c0-3.1-1.7-5.3-4.3-5.3c-2.6,0-4.3,2.1-4.3,5.3C558,93.9,559.7,96,562.4,96z"/>
		<path d="M579.2,83.7c3.6,0,6.7,2.6,6.7,7.2c0,4.5-3.1,7.1-6.7,7.1s-6.7-2.6-6.7-7.1C572.4,86.3,575.6,83.7,579.2,83.7z M579.2,96
			c2.6,0,4.3-2.1,4.3-5.2c0-3.1-1.7-5.3-4.3-5.3c-2.6,0-4.3,2.1-4.3,5.3C574.8,93.9,576.5,96,579.2,96z"/>
		<path d="M593.3,85.9h-3.8v-1.7l3.9-0.1l0.3-3.8h1.9V84h6.7v1.9h-6.7v6.5c0,2.4,0.8,3.7,3.4,3.7c1.3,0,2.3-0.3,3.3-0.6l0.5,1.7
			c-1.2,0.4-2.8,0.8-4.3,0.8c-3.9,0-5.2-2.3-5.2-5.6V85.9z"/>
		<path d="M613.2,83.7c3.9,0,6.2,2.5,6.2,6.4c0,0.5,0,1-0.1,1.3h-10.6c0.1,2.9,2.2,4.7,5.2,4.7c1.6,0,2.9-0.5,4.1-1.3l0.8,1.5
			c-1.3,0.9-3.1,1.6-5.2,1.6c-4,0-7.3-2.7-7.3-7.1C606.3,86.4,609.7,83.7,613.2,83.7z M617.3,89.7c0-2.7-1.5-4.2-4-4.2
			c-2.2,0-4.2,1.6-4.6,4.2H617.3z"/>
		<path d="M625.2,84h1.9l0.2,3.2h0.1c1.4-2.2,3.6-3.6,6.1-3.6c1,0,1.8,0.1,2.7,0.6l-0.5,2c-1-0.3-1.5-0.5-2.5-0.5
			c-2,0-4,1.1-5.6,3.9v8h-2.3V84z"/>
	</g>
	<g>
		<path d="M44.7,79.2H47v7.7h7.7v-7.7H57v18.4h-2.4V89H47v8.7h-2.4V79.2z"/>
		<path d="M68.1,83.7c3.9,0,6.2,2.5,6.2,6.4c0,0.5,0,1-0.1,1.3H63.6c0.1,2.9,2.2,4.7,5.2,4.7c1.6,0,2.9-0.5,4.1-1.3l0.8,1.5
			c-1.3,0.9-3.1,1.6-5.2,1.6c-4,0-7.3-2.7-7.3-7.1C61.2,86.4,64.6,83.7,68.1,83.7z M72.2,89.7c0-2.7-1.5-4.2-4-4.2
			c-2.2,0-4.2,1.6-4.6,4.2H72.2z"/>
		<path d="M88.2,89c-0.1-1.8-1-3.4-3.6-3.4c-1.8,0-3.5,0.8-4.8,1.6l-0.9-1.6c1.4-0.9,3.7-2,6-2c3.7,0,5.5,2.2,5.5,5.6v8.3h-1.9
			l-0.2-1.8h-0.1c-1.5,1.2-3.4,2.2-5.4,2.2c-2.5,0-4.6-1.4-4.6-3.9C78.3,91,81.2,89.5,88.2,89z M83.6,96.1c1.5,0,3.1-0.7,4.6-2v-3.6
			c-5.8,0.5-7.6,1.6-7.6,3.4C80.6,95.5,82,96.1,83.6,96.1z"/>
		<path d="M100.7,83.7c1.7,0,2.9,0.7,4.1,1.8l-0.1-2.5v-5.2h2.3v19.9h-1.9l-0.2-1.8h-0.1c-1.1,1.1-2.7,2.1-4.4,2.1
			c-3.6,0-5.9-2.6-5.9-7.1C94.5,86.4,97.5,83.7,100.7,83.7z M100.9,96c1.3,0,2.6-0.7,3.8-2v-6.8c-1.2-1.1-2.4-1.6-3.6-1.6
			c-2.4,0-4.3,2.1-4.3,5.2C96.9,94.1,98.4,96,100.9,96z"/>
		<path d="M118.5,83.7c3.9,0,6.2,2.5,6.2,6.4c0,0.5,0,1-0.1,1.3H114c0.1,2.9,2.2,4.7,5.2,4.7c1.6,0,2.9-0.5,4.1-1.3l0.8,1.5
			c-1.3,0.9-3.1,1.6-5.2,1.6c-4,0-7.3-2.7-7.3-7.1C111.6,86.4,115,83.7,118.5,83.7z M122.6,89.7c0-2.7-1.5-4.2-4-4.2
			c-2.2,0-4.2,1.6-4.6,4.2H122.6z"/>
		<path d="M130.5,84h1.9l0.2,3.2h0.1c1.4-2.2,3.6-3.6,6.1-3.6c1,0,1.8,0.1,2.7,0.6l-0.5,2c-1-0.3-1.5-0.5-2.5-0.5
			c-2,0-4,1.1-5.6,3.9v8h-2.3V84z"/>
	</g>
</g>
<g id="Guids" display="none">
</g>
</svg>
