<?xml version="1.0" encoding="utf-8"?>
<!-- Generator: Adobe Illustrator 18.0.0, SVG Export Plug-In . SVG Version: 6.00 Build 0)  -->
<!DOCTYPE svg PUBLIC "-//W3C//DTD SVG 1.1//EN" "http://www.w3.org/Graphics/SVG/1.1/DTD/svg11.dtd">
<svg version="1.1" xmlns="http://www.w3.org/2000/svg" xmlns:xlink="http://www.w3.org/1999/xlink" x="0px" y="0px"
	 viewBox="0 0 680 168.8" enable-background="new 0 0 680 168.8" xml:space="preserve">
<g id="Layer_8">
</g>
<g id="Layer_7">
</g>
<g id="Layer_6">
</g>
<g id="Layer_5">
</g>
<g id="Layer_4">
</g>
<g id="Layer_3">
</g>
<g id="Layer_2">
	<g>
		<rect x="10" y="10" fill="#FFE4E3" width="132" height="132"/>
		<g>
			<polyline fill="none" stroke="#000000" stroke-width="2" stroke-miterlimit="10" points="142,139.2 142,142 139.2,142 			"/>
			
				<line fill="none" stroke="#000000" stroke-width="2" stroke-miterlimit="10" stroke-dasharray="5.4955,5.4955" x1="133.7" y1="142" x2="15.5" y2="142"/>
			<polyline fill="none" stroke="#000000" stroke-width="2" stroke-miterlimit="10" points="12.8,142 10,142 10,139.2 			"/>
			
				<line fill="none" stroke="#000000" stroke-width="2" stroke-miterlimit="10" stroke-dasharray="5.4955,5.4955" x1="10" y1="133.7" x2="10" y2="15.5"/>
			<polyline fill="none" stroke="#000000" stroke-width="2" stroke-miterlimit="10" points="10,12.8 10,10 12.8,10 			"/>
			
				<line fill="none" stroke="#000000" stroke-width="2" stroke-miterlimit="10" stroke-dasharray="5.4955,5.4955" x1="18.3" y1="10" x2="136.5" y2="10"/>
			<polyline fill="none" stroke="#000000" stroke-width="2" stroke-miterlimit="10" points="139.2,10 142,10 142,12.8 			"/>
			
				<line fill="none" stroke="#000000" stroke-width="2" stroke-miterlimit="10" stroke-dasharray="5.4955,5.4955" x1="142" y1="18.3" x2="142" y2="136.5"/>
		</g>
	</g>
	<rect x="142" y="10" fill="#D9F5FF" stroke="#000000" stroke-width="2" stroke-miterlimit="10" width="132" height="132"/>
	<rect x="274" y="10" fill="#D3FFD6" stroke="#000000" stroke-width="2" stroke-miterlimit="10" width="264.7" height="132"/>
	<rect x="538" y="10" fill="#D9F5FF" stroke="#000000" stroke-width="2" stroke-miterlimit="10" width="132" height="132"/>
	<g>
		<path d="M4,156.5c0-5.6,2.3-8.6,6-8.6s6,3,6,8.6c0,5.5-2.3,8.7-6,8.7S4,162,4,156.5z M6,156.5c0,4.8,1.6,6.9,4,6.9s4-2.2,4-6.9
			c0-4.8-1.6-6.8-4-6.8S6,151.7,6,156.5z M8.4,156.3c0-1.1,0.8-1.7,1.6-1.7s1.6,0.6,1.6,1.7c0,1.1-0.8,1.7-1.6,1.7
			S8.4,157.4,8.4,156.3z"/>
	</g>
	<g>
		<path d="M148.4,160.3h-2.6v4.6h-2v-4.6h-8.6v-1.4l8.3-10.6h2.3v10.3h2.6V160.3z M143.8,158.6v-5.1c0-0.9,0.1-2,0.1-2.9h-0.1
			c-0.5,0.8-1.1,1.6-1.7,2.4l-4.5,5.7H143.8z"/>
	</g>
	<g>
		<g>
			<path fill="#989898" d="M404.5,163.1v1.8h-11.2v-1.8h4.7v-12.2h-3.5v-1.4c1.8-0.3,3-0.7,4.1-1.2h1.6v14.8H404.5z"/>
			<path fill="#989898" d="M408.3,163.6c5.6-5,8.7-7.9,8.7-10.6c0-1.9-1.2-3.3-3.6-3.3c-1.6,0-2.9,0.9-4,2l-1.2-1.2
				c1.5-1.5,3.1-2.5,5.5-2.5c3.3,0,5.4,1.9,5.4,4.9c0,3.1-3.1,6.2-7.6,10.3c1-0.1,2.1-0.2,3.1-0.2h5.5v1.8h-11.7V163.6z"/>
		</g>
	</g>
	<g>
		<g>
			<path fill="#FF4D1D" d="M270.9,156.6v-0.1c-1.4-1-2.4-2.2-2.4-3.9c0-2.8,2.3-4.6,5.6-4.6c3.3,0,5.4,1.8,5.4,4.5
				c0,1.5-1.1,2.8-2.4,3.6v0.1c1.7,0.9,3.1,2.1,3.1,4.3c0,2.6-2.2,4.6-6.3,4.6c-3.8,0-6.2-1.8-6.2-4.5
				C267.8,158.6,269.2,157.4,270.9,156.6z M274.1,162.5c1.5,0,2.6-0.7,2.6-2.1c0-1.5-1.6-2-4-2.9c-0.9,0.7-1.6,1.6-1.6,2.6
				C271.1,161.7,272.4,162.5,274.1,162.5z M276.4,152.8c0-1.3-0.8-2.1-2.3-2.1c-1.2,0-2.2,0.6-2.2,1.9c0,1.4,1.4,2,3.3,2.7
				C276,154.5,276.4,153.7,276.4,152.8z"/>
		</g>
	</g>
	<g>
		<g>
			<path fill="#FF4D1D" d="M536.4,161.8v3.1h-11.8v-3.1h4.3v-9.5h-3.4v-2.4c1.9-0.3,3.2-0.8,4.4-1.5h2.8v13.4H536.4z"/>
			<path fill="#FF4D1D" d="M549.9,152.3c-0.7-0.6-1.8-1.2-2.9-1.2c-2,0-3.8,1.3-3.9,5.2c1.2-1.1,2.7-1.8,4-1.8
				c2.9,0,5.1,1.6,5.1,5.1c0,3.4-2.8,5.5-5.9,5.5c-3.4,0-6.7-2.4-6.7-8.2c0-6.2,3.5-8.9,7.1-8.9c2.3,0,4.1,0.9,5.3,2L549.9,152.3z
				 M548.7,159.6c0-1.7-1-2.4-2.4-2.4c-1,0-2,0.4-3,1.6c0.4,2.6,1.7,3.5,3,3.5C547.5,162.3,548.7,161.5,548.7,159.6z"/>
		</g>
	</g>
	<g>
		<path d="M650.3,163.6c5.6-5,8.7-7.9,8.7-10.6c0-1.9-1.2-3.3-3.6-3.3c-1.6,0-2.9,0.9-4,2l-1.2-1.2c1.5-1.5,3.1-2.5,5.5-2.5
			c3.3,0,5.4,1.9,5.4,4.9c0,3.1-3.1,6.2-7.6,10.3c1-0.1,2.1-0.2,3.1-0.2h5.5v1.8h-11.7V163.6z"/>
		<path d="M665.8,156.5c0-5.6,2.3-8.6,6-8.6c3.7,0,6,3,6,8.6c0,5.5-2.3,8.7-6,8.7C668.1,165.2,665.8,162,665.8,156.5z M667.8,156.5
			c0,4.8,1.6,6.9,4,6.9c2.3,0,4-2.2,4-6.9c0-4.8-1.6-6.8-4-6.8C669.5,149.7,667.8,151.7,667.8,156.5z M670.2,156.3
			c0-1.1,0.8-1.7,1.6-1.7c0.9,0,1.6,0.6,1.6,1.7c0,1.1-0.8,1.7-1.6,1.7C670.9,158.1,670.2,157.4,670.2,156.3z"/>
	</g>
	<g>
		<path d="M350.4,64.8h5.6c4.1,0,6.8,1.4,6.8,5.4c0,3.9-2.7,5.7-6.8,5.7h-3.3v7.3h-2.3V64.8z M355.7,73.9c3.2,0,4.8-1.2,4.8-3.8
			c0-2.7-1.6-3.5-4.8-3.5h-3v7.3H355.7z"/>
		<path d="M376.5,74.5c-0.1-1.8-1-3.4-3.6-3.4c-1.8,0-3.5,0.8-4.8,1.6l-0.9-1.6c1.4-0.9,3.7-2,6-2c3.7,0,5.5,2.2,5.5,5.6v8.3h-1.9
			l-0.2-1.8h-0.1c-1.5,1.2-3.4,2.2-5.4,2.2c-2.5,0-4.6-1.4-4.6-3.9C366.6,76.6,369.5,75.1,376.5,74.5z M371.9,81.6
			c1.5,0,3.1-0.7,4.6-2V76c-5.8,0.5-7.6,1.6-7.6,3.4C368.9,81,370.3,81.6,371.9,81.6z"/>
		<path d="M384.8,87.1c1.9,0,3.1-1.2,3.7-2.9l0.4-1l-6.4-13.6h2.3l3.3,7.5c0.5,1.2,1.1,2.6,1.7,3.9h0.1c0.5-1.3,1-2.7,1.5-3.9l3-7.5
			h2.2l-6,14.7c-1,2.7-2.7,4.7-5.8,4.7c-0.6,0-1.3-0.1-1.8-0.3l0.5-1.8C383.9,87,384.3,87.1,384.8,87.1z"/>
		<path d="M400.2,63.2h6.9v15.5c0,2,1,2.8,2.7,2.8c0.8,0,1.6-0.2,2.6-0.6l0.6,1.7c-1.2,0.4-2.2,0.8-3.7,0.8c-2.9,0-4.5-1.7-4.5-4.9
			V65.1h-4.6V63.2z"/>
		<path d="M423.2,69.2c3.6,0,6.7,2.6,6.7,7.2c0,4.5-3.1,7.1-6.7,7.1s-6.7-2.6-6.7-7.1C416.5,71.8,419.6,69.2,423.2,69.2z
			 M423.2,81.6c2.6,0,4.3-2.1,4.3-5.2c0-3.1-1.7-5.3-4.3-5.3c-2.6,0-4.3,2.1-4.3,5.3C418.8,79.5,420.6,81.6,423.2,81.6z"/>
		<path d="M443.7,74.5c-0.1-1.8-1-3.4-3.6-3.4c-1.8,0-3.5,0.8-4.8,1.6l-0.9-1.6c1.4-0.9,3.7-2,6-2c3.7,0,5.5,2.2,5.5,5.6v8.3h-1.9
			l-0.2-1.8h-0.1c-1.5,1.2-3.4,2.2-5.4,2.2c-2.5,0-4.6-1.4-4.6-3.9C433.8,76.6,436.7,75.1,443.7,74.5z M439.1,81.6
			c1.5,0,3.1-0.7,4.6-2V76c-5.8,0.5-7.6,1.6-7.6,3.4C436.1,81,437.5,81.6,439.1,81.6z"/>
		<path d="M456.2,69.2c1.7,0,2.9,0.7,4.1,1.8l-0.1-2.5v-5.2h2.3v19.9h-1.9l-0.2-1.8h-0.1c-1.1,1.1-2.7,2.1-4.4,2.1
			c-3.6,0-5.9-2.6-5.9-7.1C450,71.9,453,69.2,456.2,69.2z M456.4,81.5c1.3,0,2.6-0.7,3.8-2v-6.8c-1.2-1.1-2.4-1.6-3.6-1.6
			c-2.4,0-4.3,2.1-4.3,5.2C452.4,79.6,453.9,81.5,456.4,81.5z"/>
	</g>
	<g>
		<path d="M557.4,64.8h11.2v2h-8.9v6.2h7.5v2h-7.5v8.2h-2.3V64.8z"/>
		<path d="M578.8,69.2c3.6,0,6.7,2.6,6.7,7.2c0,4.5-3.1,7.1-6.7,7.1s-6.7-2.6-6.7-7.1C572.1,71.8,575.2,69.2,578.8,69.2z
			 M578.8,81.6c2.6,0,4.3-2.1,4.3-5.2c0-3.1-1.7-5.3-4.3-5.3c-2.6,0-4.3,2.1-4.3,5.3C574.5,79.5,576.2,81.6,578.8,81.6z"/>
		<path d="M595.6,69.2c3.6,0,6.7,2.6,6.7,7.2c0,4.5-3.1,7.1-6.7,7.1s-6.7-2.6-6.7-7.1C588.9,71.8,592,69.2,595.6,69.2z M595.6,81.6
			c2.6,0,4.3-2.1,4.3-5.2c0-3.1-1.7-5.3-4.3-5.3c-2.6,0-4.3,2.1-4.3,5.3C591.3,79.5,593,81.6,595.6,81.6z"/>
		<path d="M609.8,71.4h-3.8v-1.7l3.9-0.1l0.3-3.8h1.9v3.8h6.7v1.9h-6.7v6.5c0,2.4,0.8,3.7,3.4,3.7c1.3,0,2.3-0.3,3.3-0.6l0.5,1.7
			c-1.2,0.4-2.8,0.8-4.3,0.8c-3.9,0-5.2-2.3-5.2-5.6V71.4z"/>
		<path d="M629.6,69.2c3.9,0,6.2,2.5,6.2,6.4c0,0.5,0,1-0.1,1.3h-10.6c0.1,2.9,2.2,4.7,5.2,4.7c1.6,0,2.9-0.5,4.1-1.3l0.8,1.5
			c-1.3,0.9-3.1,1.6-5.2,1.6c-4,0-7.3-2.7-7.3-7.1C622.7,71.9,626.1,69.2,629.6,69.2z M633.7,75.2c0-2.7-1.5-4.2-4-4.2
			c-2.2,0-4.2,1.6-4.6,4.2H633.7z"/>
		<path d="M641.7,69.5h1.9l0.2,3.2h0.1c1.4-2.2,3.6-3.6,6.1-3.6c1,0,1.8,0.1,2.7,0.6l-0.5,2c-1-0.3-1.5-0.5-2.5-0.5
			c-2,0-4,1.1-5.6,3.9v8h-2.3V69.5z"/>
	</g>
	<g>
		<path d="M159.8,64.8h2.4v7.7h7.7v-7.7h2.4v18.4h-2.4v-8.7h-7.7v8.7h-2.4V64.8z"/>
		<path d="M183.2,69.2c3.9,0,6.2,2.5,6.2,6.4c0,0.5,0,1-0.1,1.3h-10.6c0.1,2.9,2.2,4.7,5.2,4.7c1.6,0,2.9-0.5,4.1-1.3l0.8,1.5
			c-1.3,0.9-3.1,1.6-5.2,1.6c-4,0-7.3-2.7-7.3-7.1C176.3,71.9,179.7,69.2,183.2,69.2z M187.3,75.2c0-2.7-1.5-4.2-4-4.2
			c-2.2,0-4.2,1.6-4.6,4.2H187.3z"/>
		<path d="M203.3,74.5c-0.1-1.8-1-3.4-3.6-3.4c-1.8,0-3.5,0.8-4.8,1.6l-0.9-1.6c1.4-0.9,3.7-2,6-2c3.7,0,5.5,2.2,5.5,5.6v8.3h-1.9
			l-0.2-1.8h-0.1c-1.5,1.2-3.4,2.2-5.4,2.2c-2.5,0-4.6-1.4-4.6-3.9C193.5,76.6,196.3,75.1,203.3,74.5z M198.7,81.6
			c1.5,0,3.1-0.7,4.6-2V76c-5.8,0.5-7.6,1.6-7.6,3.4C195.7,81,197.1,81.6,198.7,81.6z"/>
		<path d="M215.9,69.2c1.7,0,2.9,0.7,4.1,1.8l-0.1-2.5v-5.2h2.3v19.9h-1.9l-0.2-1.8H220c-1.1,1.1-2.7,2.1-4.4,2.1
			c-3.6,0-5.9-2.6-5.9-7.1C209.7,71.9,212.6,69.2,215.9,69.2z M216.1,81.5c1.3,0,2.6-0.7,3.8-2v-6.8c-1.2-1.1-2.4-1.6-3.6-1.6
			c-2.4,0-4.3,2.1-4.3,5.2C212.1,79.6,213.5,81.5,216.1,81.5z"/>
		<path d="M233.6,69.2c3.9,0,6.2,2.5,6.2,6.4c0,0.5,0,1-0.1,1.3h-10.6c0.1,2.9,2.2,4.7,5.2,4.7c1.6,0,2.9-0.5,4.1-1.3l0.8,1.5
			c-1.3,0.9-3.1,1.6-5.2,1.6c-4,0-7.3-2.7-7.3-7.1C226.7,71.9,230.1,69.2,233.6,69.2z M237.7,75.2c0-2.7-1.5-4.2-4-4.2
			c-2.2,0-4.2,1.6-4.6,4.2H237.7z"/>
		<path d="M245.7,69.5h1.9l0.2,3.2h0.1c1.4-2.2,3.6-3.6,6.1-3.6c1,0,1.8,0.1,2.7,0.6l-0.5,2c-1-0.3-1.5-0.5-2.5-0.5
			c-2,0-4,1.1-5.6,3.9v8h-2.3V69.5z"/>
	</g>
	<g>
		<path d="M22.9,73.9c0-5.9,2.9-9.4,7.1-9.4s7.1,3.6,7.1,9.4c0,5.9-2.9,9.6-7.1,9.6S22.9,79.8,22.9,73.9z M34.6,73.9
			c0-4.6-1.8-7.4-4.6-7.4c-2.8,0-4.6,2.8-4.6,7.4c0,4.6,1.8,7.6,4.6,7.6C32.8,81.4,34.6,78.5,34.6,73.9z"/>
		<path d="M54.1,65.4c-1.1-0.5-2-0.6-3.2-0.6c-2.4,0-3.4,1.3-3.4,3.6v1.2h5.7v1.9h-5.7v11.7h-2.3V71.4h-3.9v-1.7l3.9-0.1v-1.1
			c0-3.3,1.7-5.5,5.5-5.5c1.3,0,2.6,0.3,3.9,0.8L54.1,65.4z"/>
		<path d="M70.9,65.4c-1.1-0.5-2-0.6-3.2-0.6c-2.4,0-3.4,1.3-3.4,3.6v1.2H70v1.9h-5.7v11.7H62V71.4h-3.9v-1.7l3.9-0.1v-1.1
			c0-3.3,1.7-5.5,5.5-5.5c1.3,0,2.6,0.3,3.9,0.8L70.9,65.4z"/>
		<path d="M75.1,79.8c1.5,1.1,3.2,1.8,5.6,1.8s3.6-1,3.6-2.1c0-1.1-1.1-1.8-4.4-2.6c-2.8-0.7-5.2-1.9-5.2-3.9c0-2.2,2-3.9,5.7-3.9
			c2,0,4.1,0.8,5.5,1.7l-1.1,1.5c-1.2-0.8-2.7-1.4-4.3-1.4c-2.5,0-3.4,0.9-3.4,2c0,1.1,1.7,1.8,4.1,2.4c3.7,0.9,5.4,2,5.4,4.1
			c0,2.2-2.2,4.1-6,4.1c-2.7,0-5-1-6.7-2.1L75.1,79.8z"/>
		<path d="M97.6,69.2c3.9,0,6.2,2.5,6.2,6.4c0,0.5,0,1-0.1,1.3H93.1c0.1,2.9,2.2,4.7,5.2,4.7c1.6,0,2.9-0.5,4.1-1.3l0.8,1.5
			c-1.3,0.9-3.1,1.6-5.2,1.6c-4,0-7.3-2.7-7.3-7.1C90.7,71.9,94.1,69.2,97.6,69.2z M101.7,75.2c0-2.7-1.5-4.2-4-4.2
			c-2.2,0-4.2,1.6-4.6,4.2H101.7z"/>
		<path d="M111.4,71.4h-3.8v-1.7l3.9-0.1l0.3-3.8h1.9v3.8h6.7v1.9h-6.7v6.5c0,2.4,0.8,3.7,3.4,3.7c1.3,0,2.3-0.3,3.3-0.6l0.5,1.7
			c-1.2,0.4-2.8,0.8-4.3,0.8c-3.9,0-5.2-2.3-5.2-5.6V71.4z"/>
	</g>
</g>
<g id="Layer_1">
</g>
<g id="Guids" display="none">
</g>
</svg>
