<?xml version="1.0" encoding="utf-8"?>
<!-- Generator: Adobe Illustrator 18.0.0, SVG Export Plug-In . SVG Version: 6.00 Build 0)  -->
<!DOCTYPE svg PUBLIC "-//W3C//DTD SVG 1.1//EN" "http://www.w3.org/Graphics/SVG/1.1/DTD/svg11.dtd">
<svg version="1.1" xmlns="http://www.w3.org/2000/svg" xmlns:xlink="http://www.w3.org/1999/xlink" x="0px" y="0px"
	 viewBox="0 0 680 105.3" enable-background="new 0 0 680 105.3" xml:space="preserve">
<g id="Layer_8">
</g>
<g id="Layer_7">
</g>
<g id="Layer_6">
</g>
<g id="Layer_5">
</g>
<g id="Layer_4">
</g>
<g id="Layer_3">
	<g>
		<rect x="10" y="10" fill="#FFE4E3" width="73.3" height="73.3"/>
		<g>
			<polyline fill="none" stroke="#000000" stroke-miterlimit="10" points="83.3,81.8 83.3,83.3 81.8,83.3 			"/>
			
				<line fill="none" stroke="#000000" stroke-miterlimit="10" stroke-dasharray="3.0531,3.0531" x1="78.7" y1="83.3" x2="13.1" y2="83.3"/>
			<polyline fill="none" stroke="#000000" stroke-miterlimit="10" points="11.6,83.3 10,83.3 10,81.8 			"/>
			
				<line fill="none" stroke="#000000" stroke-miterlimit="10" stroke-dasharray="3.0531,3.0531" x1="10" y1="78.7" x2="10" y2="13.1"/>
			<polyline fill="none" stroke="#000000" stroke-miterlimit="10" points="10,11.6 10,10 11.6,10 			"/>
			
				<line fill="none" stroke="#000000" stroke-miterlimit="10" stroke-dasharray="3.0531,3.0531" x1="14.6" y1="10" x2="80.3" y2="10"/>
			<polyline fill="none" stroke="#000000" stroke-miterlimit="10" points="81.8,10 83.3,10 83.3,11.6 			"/>
			
				<line fill="none" stroke="#000000" stroke-miterlimit="10" stroke-dasharray="3.0531,3.0531" x1="83.3" y1="14.6" x2="83.3" y2="80.3"/>
		</g>
	</g>
	<rect x="83.3" y="10" fill="#D9F5FF" stroke="#000000" stroke-miterlimit="10" width="73.3" height="73.3"/>
	<rect x="156.7" y="10" fill="#D3FFD6" stroke="#000000" stroke-miterlimit="10" width="147.1" height="73.3"/>
	<rect x="303.3" y="10" fill="#D9F5FF" stroke="#000000" stroke-miterlimit="10" width="73.3" height="73.3"/>
	<g>
		<path d="M5.9,95.6c0-3.9,1.6-5.9,4.1-5.9c2.6,0,4.1,2.1,4.1,5.9c0,3.8-1.6,6-4.1,6C7.4,101.6,5.9,99.4,5.9,95.6z M7.3,95.6
			c0,3.3,1.1,4.8,2.7,4.8c1.6,0,2.7-1.5,2.7-4.8c0-3.3-1.1-4.7-2.7-4.7C8.4,90.8,7.3,92.3,7.3,95.6z M8.9,95.4
			c0-0.7,0.5-1.2,1.1-1.2c0.6,0,1.1,0.5,1.1,1.2c0,0.8-0.5,1.2-1.1,1.2C9.4,96.6,8.9,96.2,8.9,95.4z"/>
	</g>
	<g>
		<path d="M87.8,98.2H86v3.2h-1.4v-3.2h-5.9v-1l5.7-7.3H86V97h1.8V98.2z M84.6,97v-3.6c0-0.6,0.1-1.4,0.1-2h-0.1
			c-0.4,0.6-0.8,1.1-1.2,1.7L80.3,97H84.6z"/>
	</g>
	<g>
		<g>
			<path fill="#989898" d="M229,100.1v1.2h-7.7v-1.2h3.3v-8.5h-2.4v-1c1.2-0.2,2.1-0.5,2.8-0.8h1.1v10.3H229z"/>
			<path fill="#989898" d="M231.6,100.5c3.9-3.4,6-5.5,6-7.4c0-1.3-0.8-2.3-2.5-2.3c-1.1,0-2,0.6-2.8,1.4l-0.8-0.8
				c1-1,2.2-1.7,3.8-1.7c2.3,0,3.7,1.4,3.7,3.4c0,2.2-2.2,4.3-5.3,7.1c0.7-0.1,1.5-0.1,2.1-0.1h3.8v1.3h-8.1V100.5z"/>
		</g>
	</g>
	<g>
		<g>
			<path fill="#FF4D1D" d="M154.6,95.6L154.6,95.6c-1-0.7-1.7-1.6-1.7-2.8c0-1.9,1.6-3.2,3.9-3.2c2.3,0,3.7,1.2,3.7,3.1
				c0,1.1-0.7,1.9-1.6,2.5v0.1c1.2,0.6,2.1,1.4,2.1,3c0,1.8-1.5,3.2-4.3,3.2c-2.6,0-4.3-1.3-4.3-3.1C152.4,97,153.4,96.2,154.6,95.6
				z M156.8,99.7c1.1,0,1.8-0.5,1.8-1.4c0-1-1.1-1.4-2.8-2c-0.6,0.5-1.1,1.1-1.1,1.8C154.7,99.1,155.6,99.7,156.8,99.7z M158.4,93
				c0-0.9-0.6-1.5-1.6-1.5c-0.8,0-1.5,0.4-1.5,1.3c0,0.9,0.9,1.4,2.3,1.8C158.1,94.2,158.4,93.6,158.4,93z"/>
		</g>
	</g>
	<g>
		<g>
			<path fill="#FF4D1D" d="M302.4,99.2v2.1h-8.2v-2.1h3v-6.6h-2.4V91c1.3-0.2,2.2-0.6,3.1-1h1.9v9.3H302.4z"/>
			<path fill="#FF4D1D" d="M311.8,92.6c-0.5-0.4-1.3-0.8-2-0.8c-1.4,0-2.6,0.9-2.7,3.6c0.8-0.8,1.9-1.2,2.8-1.2c2,0,3.5,1.1,3.5,3.5
				c0,2.4-1.9,3.8-4.1,3.8c-2.3,0-4.6-1.7-4.6-5.7c0-4.3,2.4-6.2,4.9-6.2c1.6,0,2.9,0.6,3.6,1.4L311.8,92.6z M310.9,97.7
				c0-1.2-0.7-1.7-1.7-1.7c-0.7,0-1.4,0.3-2.1,1.1c0.3,1.8,1.2,2.4,2.1,2.4C310.1,99.6,310.9,99,310.9,97.7z"/>
		</g>
	</g>
	<g>
		<path d="M366.8,100.5c3.9-3.4,6-5.5,6-7.4c0-1.3-0.8-2.3-2.5-2.3c-1.1,0-2,0.6-2.8,1.4l-0.8-0.8c1-1,2.2-1.7,3.8-1.7
			c2.3,0,3.7,1.4,3.7,3.4c0,2.2-2.2,4.3-5.3,7.1c0.7-0.1,1.5-0.1,2.1-0.1h3.8v1.3h-8.1V100.5z"/>
		<path d="M377.6,95.6c0-3.9,1.6-5.9,4.1-5.9s4.1,2.1,4.1,5.9c0,3.8-1.6,6-4.1,6S377.6,99.4,377.6,95.6z M379,95.6
			c0,3.3,1.1,4.8,2.7,4.8s2.7-1.5,2.7-4.8c0-3.3-1.1-4.7-2.7-4.7S379,92.3,379,95.6z M380.6,95.4c0-0.7,0.5-1.2,1.1-1.2
			c0.6,0,1.1,0.5,1.1,1.2c0,0.8-0.5,1.2-1.1,1.2C381.1,96.6,380.6,96.2,380.6,95.4z"/>
	</g>
	<g>
		<path d="M223.1,33.3h7.2c5.2,0,8.7,1.8,8.7,6.9c0,5-3.5,7.3-8.7,7.3h-4.2V57h-3V33.3z M229.9,45.2c4.1,0,6.1-1.5,6.1-4.9
			c0-3.4-2-4.5-6.1-4.5h-3.9v9.4H229.9z"/>
	</g>
	<g>
		<path d="M334.1,33.3h14.4v2.5H337v8h9.7v2.5H337V57h-3V33.3z"/>
	</g>
	<g>
		<path d="M112,33.3h3v9.9h9.9v-9.9h3V57h-3V45.8h-9.9V57h-3V33.3z"/>
	</g>
	<rect x="376.7" y="10" fill="#D9F5FF" stroke="#000000" stroke-miterlimit="10" width="73.3" height="73.3"/>
	<rect x="450" y="10" fill="#D3FFD6" stroke="#000000" stroke-miterlimit="10" width="147.1" height="73.3"/>
	<rect x="596.7" y="10" fill="#D9F5FF" stroke="#000000" stroke-miterlimit="10" width="73.1" height="73.3"/>
	<g>
		<g>
			<path fill="#989898" d="M514.4,100.5c3.9-3.4,6-5.5,6-7.4c0-1.3-0.8-2.3-2.5-2.3c-1.1,0-2,0.6-2.8,1.4l-0.8-0.8
				c1-1,2.2-1.7,3.8-1.7c2.3,0,3.7,1.4,3.7,3.4c0,2.2-2.2,4.3-5.3,7.1c0.7-0.1,1.5-0.1,2.1-0.1h3.8v1.3h-8.1V100.5z"/>
			<path fill="#989898" d="M527.5,95.3L527.5,95.3c-1-0.7-1.7-1.5-1.7-2.8c0-1.8,1.5-3,3.5-3c2.3,0,3.6,1.3,3.6,3.1
				c0,1.1-0.8,2.1-1.7,2.7v0.1c1.3,0.6,2.2,1.4,2.2,3c0,1.7-1.5,3.1-4.1,3.1c-2.6,0-4.2-1.3-4.2-3.2
				C525.1,96.8,526.3,95.9,527.5,95.3z M529.3,100.5c1.7,0,2.7-0.8,2.7-2c0-1.6-1.6-2-3.6-2.7c-1.1,0.6-2,1.4-2,2.5
				C526.4,99.5,527.6,100.5,529.3,100.5z M531.6,92.8c0-1.1-0.8-2-2.3-2c-1.3,0-2.2,0.7-2.2,1.9c0,1.4,1.3,1.9,3,2.5
				C531.1,94.4,531.6,93.6,531.6,92.8z"/>
		</g>
	</g>
	<g>
		<g>
			<path fill="#FF4D1D" d="M440.5,99.8c3.3-2.8,5.5-4.7,5.5-6.3c0-1.1-0.7-1.7-1.9-1.7c-0.9,0-1.7,0.6-2.3,1.2l-1.4-1.4
				c1.2-1.2,2.3-1.8,4.1-1.8c2.4,0,4,1.4,4,3.6c0,1.9-2,4-4.2,5.9c0.6-0.1,1.5-0.1,2.1-0.1h2.7v2.2h-8.6V99.8z"/>
			<path fill="#FF4D1D" d="M460.3,98.6h-1.4v2.7h-2.5v-2.7h-5.5v-1.8l4.8-6.9h3.2v6.7h1.4V98.6z M456.4,96.6v-1.9
				c0-0.7,0.1-1.8,0.1-2.5h-0.1c-0.4,0.6-0.8,1.3-1.2,1.9l-1.7,2.5H456.4z"/>
		</g>
	</g>
	<g>
		<g>
			<path fill="#FF4D1D" d="M588.2,98.3c0.8,0.7,1.7,1.2,2.8,1.2c1.2,0,2.1-0.5,2.1-1.4c0-1-0.8-1.6-3.5-1.6v-1.9
				c2.3,0,3.1-0.6,3.1-1.5c0-0.8-0.6-1.3-1.7-1.3c-0.9,0-1.6,0.4-2.4,1l-1.3-1.6c1.1-0.9,2.4-1.5,3.9-1.5c2.5,0,4.2,1.1,4.2,3.1
				c0,1.2-0.8,2-2.2,2.5v0.1c1.4,0.4,2.6,1.3,2.6,2.8c0,2.1-2.1,3.3-4.5,3.3c-2,0-3.4-0.6-4.3-1.6L588.2,98.3z"/>
			<path fill="#FF4D1D" d="M598.1,99.8c3.3-2.8,5.5-4.7,5.5-6.3c0-1.1-0.7-1.7-1.9-1.7c-0.9,0-1.7,0.6-2.3,1.2l-1.4-1.4
				c1.2-1.2,2.3-1.8,4.1-1.8c2.4,0,4,1.4,4,3.6c0,1.9-2,4-4.2,5.9c0.6-0.1,1.5-0.1,2.1-0.1h2.7v2.2h-8.6V99.8z"/>
		</g>
	</g>
	<g>
		<path d="M656.8,99c0.8,0.7,1.8,1.4,3.3,1.4c1.6,0,2.8-0.8,2.8-2.1c0-1.4-1.2-2.3-4.2-2.3v-1.1c2.7,0,3.8-0.9,3.8-2.1
			c0-1.1-0.9-1.8-2.3-1.8c-1.1,0-2.1,0.5-2.8,1.2l-0.8-0.9c1-0.8,2.2-1.4,3.7-1.4c2.2,0,3.8,1.1,3.8,2.9c0,1.4-1,2.3-2.4,2.7v0.1
			c1.5,0.3,2.8,1.3,2.8,2.9c0,2-1.9,3.3-4.2,3.3c-2,0-3.3-0.8-4.1-1.6L656.8,99z"/>
		<path d="M674.4,91.8c-0.6-0.6-1.4-0.9-2.3-0.9c-1.8,0-3.5,1.2-3.5,4.9c0.9-0.9,2.1-1.5,3.3-1.5c2.1,0,3.6,1.2,3.6,3.5
			c0,2.2-1.8,3.7-3.8,3.7c-2.5,0-4.4-1.8-4.4-5.5c0-4.6,2.3-6.4,4.8-6.4c1.4,0,2.4,0.5,3.2,1.2L674.4,91.8z M674.1,97.9
			c0-1.6-0.9-2.4-2.4-2.4c-0.9,0-2,0.4-2.9,1.5c0.2,2.2,1.3,3.4,3,3.4C673,100.4,674.1,99.4,674.1,97.9z"/>
	</g>
	<g>
		<path d="M516.4,33.3h7.2c5.2,0,8.7,1.8,8.7,6.9c0,5-3.5,7.3-8.7,7.3h-4.2V57h-3V33.3z M523.2,45.2c4.1,0,6.1-1.5,6.1-4.9
			c0-3.4-2-4.5-6.1-4.5h-3.9v9.4H523.2z"/>
	</g>
	<g>
		<path d="M627.4,33.3h14.4v2.5h-11.4v8h9.7v2.5h-9.7V57h-3V33.3z"/>
	</g>
	<g>
		<path d="M405.4,33.3h3v9.9h9.9v-9.9h3V57h-3V45.8h-9.9V57h-3V33.3z"/>
	</g>
	<g>
		<path d="M37.6,45c0-7.6,3.7-12.1,9.1-12.1c5.3,0,9.1,4.6,9.1,12.1c0,7.6-3.7,12.3-9.1,12.3C41.3,57.4,37.6,52.6,37.6,45z M52.6,45
			c0-5.9-2.4-9.5-6-9.5s-6,3.6-6,9.5c0,5.9,2.4,9.7,6,9.7S52.6,51,52.6,45z"/>
	</g>
</g>
<g id="Layer_2">
</g>
<g id="Layer_1">
</g>
<g id="Guids" display="none">
</g>
</svg>
