<?xml version="1.0" encoding="utf-8"?>
<!-- Generator: Adobe Illustrator 18.0.0, SVG Export Plug-In . SVG Version: 6.00 Build 0)  -->
<!DOCTYPE svg PUBLIC "-//W3C//DTD SVG 1.1//EN" "http://www.w3.org/Graphics/SVG/1.1/DTD/svg11.dtd">
<svg version="1.1" id="Layer_1" xmlns="http://www.w3.org/2000/svg" xmlns:xlink="http://www.w3.org/1999/xlink" x="0px" y="0px"
	 viewBox="0 0 680 854" enable-background="new 0 0 680 854" xml:space="preserve">
<path fill="#3399CC" stroke="#3399CC" stroke-width="4" stroke-miterlimit="10" d="M161.8,4C149.2,4,5,4,5,4v43.6c0,0,196,0,211.8,0
	C195.5,47.6,194.2,4,161.8,4z"/>
<rect x="5" y="47.6" fill="none" stroke="#3399CC" stroke-width="4" stroke-miterlimit="10" width="296.8" height="366.5"/>
<g>
	<path fill="#FFFFFF" d="M15.5,14.1h7c4.2,0,7.6,1.9,7.6,7.6c0,5.5-3.5,8-7.6,8h-2.7v8h-4.4V14.1z M22.3,25.4c2.4,0,3.5-1.3,3.5-3.7
		c0-2.5-1.2-3.4-3.5-3.4h-2.4v7.1H22.3z"/>
	<path fill="#FFFFFF" d="M34.5,19.7h3.6l0.4,3.9h0.1c1.5-2.9,3.6-4.3,6-4.3c1.3,0,2,0.3,2.8,0.7l-0.9,4.4c-0.9-0.3-1.5-0.5-2.6-0.5
		c-1.8,0-3.7,1.2-4.9,4.4v9.3h-4.4V19.7z"/>
	<path fill="#FFFFFF" d="M57.8,19.3c3.9,0,7.5,3.4,7.5,9.4s-3.6,9.4-7.5,9.4s-7.5-3.4-7.5-9.4S53.9,19.3,57.8,19.3z M57.8,33.8
		c2,0,3-2,3-5.1s-1-5.1-3-5.1s-3,2-3,5.1S55.7,33.8,57.8,33.8z"/>
	<path fill="#FFFFFF" d="M77.1,19.3c2.3,0,4.3,1,5.5,2.4l-2,3.3c-1.1-1-2.2-1.4-3.3-1.4c-2.5,0-4.3,2-4.3,5.1s1.7,5.1,4.1,5.1
		c1.5,0,2.8-0.8,3.9-1.7l1.8,3.4c-1.8,1.8-4.1,2.6-6.1,2.6c-4.6,0-8.2-3.4-8.2-9.4S72.6,19.3,77.1,19.3z"/>
	<path fill="#FFFFFF" d="M93.7,19.3c4.5,0,6.9,3.7,6.9,8.6c0,0.9-0.1,1.9-0.2,2.3h-9.9c0.3,2.7,2.1,3.8,4.3,3.8
		c1.3,0,2.5-0.4,3.8-1.2L100,36c-1.7,1.3-3.9,2.1-5.8,2.1c-4.6,0-8.1-3.5-8.1-9.4C86,22.8,89.8,19.3,93.7,19.3z M96.6,26.7
		c0-2-0.9-3.4-2.9-3.4c-1.6,0-2.9,1.1-3.3,3.4H96.6z"/>
	<path fill="#FFFFFF" d="M105.7,32c1.7,1.3,3.4,2.1,5.3,2.1c2,0,2.8-0.6,2.8-1.5c0-1.1-1.6-1.7-3.9-2.5c-2.6-0.9-5.2-2.4-5.2-5.2
		c0-3.3,2.6-5.6,6.8-5.6c2.6,0,4.8,1.3,6.3,2.5l-2,3.2c-1.3-1-2.8-1.7-4.3-1.7c-1.8,0-2.5,0.5-2.5,1.4c0,1.1,1.7,1.6,3.8,2.3
		c2.9,0.9,5.4,2.3,5.4,5.4c0,3.2-2.5,5.8-7.2,5.8c-2.6,0-5.3-1.2-7.2-2.7L105.7,32z"/>
	<path fill="#FFFFFF" d="M123.5,32c1.7,1.3,3.4,2.1,5.3,2.1c2,0,2.8-0.6,2.8-1.5c0-1.1-1.6-1.7-3.9-2.5c-2.6-0.9-5.2-2.4-5.2-5.2
		c0-3.3,2.6-5.6,6.8-5.6c2.6,0,4.8,1.3,6.3,2.5l-2,3.2c-1.3-1-2.8-1.7-4.3-1.7c-1.8,0-2.5,0.5-2.5,1.4c0,1.1,1.7,1.6,3.8,2.3
		c2.9,0.9,5.4,2.3,5.4,5.4c0,3.2-2.5,5.8-7.2,5.8c-2.6,0-5.3-1.2-7.2-2.7L123.5,32z"/>
	<path fill="#FFFFFF" d="M167.2,32h-5.8l-1.2,5.6h-4.4l6-23.5h5.2l6,23.5h-4.6L167.2,32z M166.3,27.9l-0.4-2.2
		c-0.5-2.3-1-5.1-1.5-7.6h-0.1c-0.5,2.5-1,5.2-1.5,7.6l-0.4,2.2H166.3z"/>
</g>
<path fill="#3399CC" stroke="#3399CC" stroke-width="4" stroke-miterlimit="10" d="M216,58.8c-12.6,0-199.5,0-199.5,0v28.1
	c0,0,238.6,0,254.4,0C249.7,86.9,248.4,58.8,216,58.8z"/>
<rect x="16.6" y="86.9" fill="none" stroke="#3399CC" stroke-width="4" stroke-miterlimit="10" width="269.6" height="310"/>
<g>
	<path fill="#FFFFFF" d="M23.6,66.7h9.6v2.8h-6.3v3.4h5.4v2.8h-5.4v5.6h-3.3V66.7z"/>
	<path fill="#FFFFFF" d="M36.3,70.1H44v11h-3.3v-8.5h-4.4V70.1z M40,66.5c0-1.2,0.9-2,2.2-2c1.3,0,2.2,0.8,2.2,2s-0.9,2-2.2,2
		C40.9,68.5,40,67.7,40,66.5z"/>
	<path fill="#FFFFFF" d="M49.3,65.6h6.5V77c0,1.4,0.9,1.8,1.8,1.8c0.5,0,1-0.1,1.7-0.4l0.7,2.4c-1.2,0.4-1.9,0.6-3.3,0.6
		c-2.8,0-4.2-1.8-4.2-4.6v-8.7h-3.2V65.6z"/>
	<path fill="#FFFFFF" d="M68.2,69.9c3.4,0,5.2,2.3,5.2,5.3c0,0.6-0.1,1.2-0.1,1.4h-7.4c0.2,1.6,1.6,2.3,3.2,2.3c1,0,1.9-0.3,2.8-0.8
		l1.1,2c-1.2,0.8-2.9,1.3-4.4,1.3c-3.4,0-6.1-2.1-6.1-5.8C62.4,72,65.2,69.9,68.2,69.9z M70.4,74.4c0-1.2-0.7-2.1-2.2-2.1
		c-1.2,0-2.2,0.7-2.5,2.1H70.4z"/>
	<path fill="#FFFFFF" d="M89.3,66.7h3.9c4.2,0,7,2.2,7,7.2s-2.8,7.3-6.8,7.3h-4.1V66.7z M93.1,78.5c2.3,0,3.8-1.2,3.8-4.7
		c0-3.5-1.5-4.5-3.8-4.5h-0.5v9.2H93.1z"/>
	<path fill="#FFFFFF" d="M108.1,69.9c3.4,0,5.2,2.3,5.2,5.3c0,0.6-0.1,1.2-0.1,1.4h-7.4c0.2,1.6,1.6,2.3,3.2,2.3
		c1,0,1.9-0.3,2.8-0.8l1.1,2c-1.2,0.8-2.9,1.3-4.4,1.3c-3.4,0-6.1-2.1-6.1-5.8C102.4,72,105.2,69.9,108.1,69.9z M110.4,74.4
		c0-1.2-0.7-2.1-2.2-2.1c-1.2,0-2.2,0.7-2.5,2.1H110.4z"/>
	<path fill="#FFFFFF" d="M117.2,77.7c1.3,0.8,2.5,1.3,4,1.3c1.5,0,2.1-0.4,2.1-0.9c0-0.7-1.2-1-3-1.5c-1.9-0.5-3.9-1.5-3.9-3.2
		c0-2,1.9-3.4,5.1-3.4c2,0,3.6,0.8,4.8,1.5l-1.5,2c-1-0.6-2.1-1-3.2-1c-1.4,0-1.9,0.3-1.9,0.9c0,0.7,1.3,1,2.8,1.4
		c2.2,0.6,4.1,1.4,4.1,3.3c0,2-1.9,3.6-5.4,3.6c-2,0-4-0.8-5.4-1.7L117.2,77.7z"/>
	<path fill="#FFFFFF" d="M135.7,69.9c1.7,0,3.2,0.6,4.1,1.5l-1.5,2c-0.8-0.6-1.6-0.9-2.4-0.9c-1.9,0-3.2,1.2-3.2,3.1
		c0,1.9,1.3,3.1,3.1,3.1c1.2,0,2.1-0.5,2.9-1l1.3,2.1c-1.3,1.1-3,1.6-4.6,1.6c-3.5,0-6.1-2.1-6.1-5.8S132.3,69.9,135.7,69.9z"/>
	<path fill="#FFFFFF" d="M147.8,76.2c1.5,0,2.6,1.2,2.6,2.6c0,1.5-1,2.6-2.6,2.6s-2.6-1.1-2.6-2.6C145.3,77.4,146.3,76.2,147.8,76.2
		z"/>
	<path fill="#FFFFFF" d="M172.8,69.4h-4.3v-2.8h12v2.8h-4.3v11.7h-3.3V69.4z"/>
	<path fill="#FFFFFF" d="M189.8,74.1c-0.1-1-0.9-1.6-2.4-1.6c-1.1,0-2.1,0.4-3.4,1l-1.2-2.1c1.5-0.9,3.3-1.5,5.2-1.5
		c3.1,0,5,1.6,5,5v6.3h-2.7l-0.2-1.2H190c-1.1,0.8-2.5,1.5-3.9,1.5c-2.2,0-3.6-1.5-3.6-3.3C182.5,75.6,184.6,74.4,189.8,74.1z
		 M187.2,78.9c1,0,1.8-0.4,2.6-1V76c-3.2,0.2-4.1,0.9-4.1,1.8C185.6,78.6,186.2,78.9,187.2,78.9z"/>
	<path fill="#FFFFFF" d="M196.1,65.6h3.3v3.8l-0.1,1.7c0.9-0.8,2-1.3,3.1-1.3c2.8,0,4.4,2.2,4.4,5.6c0,3.8-2.3,6-4.8,6
		c-1,0-2.1-0.5-3-1.5h-0.1l-0.3,1.2h-2.6V65.6z M201.3,78.8c1.2,0,2.2-1,2.2-3.2c0-2-0.6-3-2-3c-0.7,0-1.4,0.3-2,1V78
		C200,78.6,200.7,78.8,201.3,78.8z"/>
	<path fill="#FFFFFF" d="M209.2,65.6h6.5V77c0,1.4,0.9,1.8,1.8,1.8c0.5,0,1-0.1,1.7-0.4l0.7,2.4c-1.2,0.4-1.9,0.6-3.3,0.6
		c-2.8,0-4.2-1.8-4.2-4.6v-8.7h-3.2V65.6z"/>
	<path fill="#FFFFFF" d="M228.1,69.9c3.4,0,5.2,2.3,5.2,5.3c0,0.6-0.1,1.2-0.1,1.4h-7.4c0.2,1.6,1.6,2.3,3.2,2.3
		c1,0,1.9-0.3,2.8-0.8l1.1,2c-1.2,0.8-2.9,1.3-4.4,1.3c-3.4,0-6.1-2.1-6.1-5.8C222.4,72,225.2,69.9,228.1,69.9z M230.3,74.4
		c0-1.2-0.7-2.1-2.2-2.1c-1.2,0-2.2,0.7-2.5,2.1H230.3z"/>
</g>
<line fill="none" stroke="#3399CC" stroke-width="2" stroke-miterlimit="10" x1="86" y1="397" x2="86" y2="87"/>
<line fill="none" stroke="#3399CC" stroke-width="2" stroke-miterlimit="10" x1="16" y1="149" x2="286" y2="149"/>
<line fill="none" stroke="#3399CC" stroke-width="2" stroke-miterlimit="10" x1="16" y1="210" x2="286" y2="210"/>
<line fill="none" stroke="#3399CC" stroke-width="2" stroke-miterlimit="10" x1="16" y1="272" x2="286" y2="272"/>
<g>
	<path fill="#666666" d="M43.3,311.9c1.7,1.5,3.8,2.9,7.2,2.9c3.6,0,6.5-2.3,6.5-5.8c0-3.5-2.5-5.6-6.3-5.6c-2.1,0-3.4,0.6-5.2,1.6
		l-1.8-1.1l0.8-12.3h14.4v2.8H47.5l-0.7,7.6c1.5-0.6,2.8-1,4.7-1c4.9,0,8.8,2.5,8.8,8c0,5.5-4.6,8.6-9.4,8.6c-4.6,0-7.2-1.7-9.2-3.5
		L43.3,311.9z"/>
</g>
<g>
	<path fill="#666666" d="M100.9,123.1c1.4,0,2.4,1,2.4,2.5c0,1.5-1.1,2.5-2.4,2.5c-1.3,0-2.4-1-2.4-2.5
		C98.5,124.1,99.6,123.1,100.9,123.1z"/>
	<path fill="#666666" d="M118.9,123.1c1.4,0,2.4,1,2.4,2.5c0,1.5-1.1,2.5-2.4,2.5c-1.3,0-2.4-1-2.4-2.5
		C116.5,124.1,117.6,123.1,118.9,123.1z"/>
	<path fill="#666666" d="M136.9,123.1c1.4,0,2.4,1,2.4,2.5c0,1.5-1.1,2.5-2.4,2.5c-1.3,0-2.4-1-2.4-2.5
		C134.5,124.1,135.6,123.1,136.9,123.1z"/>
</g>
<line fill="none" stroke="#3399CC" stroke-width="2" stroke-miterlimit="10" x1="16" y1="334" x2="286" y2="334"/>
<g>
	<path fill="#666666" d="M58.5,357.8c-1.3-1.2-3.2-2-5.1-2c-4.1,0-7.7,2.8-7.8,11c2-2,4.7-3.3,7.2-3.3c4.7,0,8,2.6,8,7.9
		c0,4.9-4,8.2-8.5,8.2c-5.6,0-9.8-4.1-9.8-12.3c0-10.2,5.1-14.2,10.7-14.2c3.1,0,5.4,1.2,7.1,2.7L58.5,357.8z M57.7,371.4
		c0-3.5-1.9-5.4-5.4-5.4c-2,0-4.4,1-6.5,3.4c0.5,4.9,2.8,7.6,6.6,7.6C55.3,376.9,57.7,374.7,57.7,371.4z"/>
</g>
<g>
	<path fill="#666666" d="M95,294.8h6c4.3,0,7.3,1.5,7.3,5.8c0,4.1-2.9,6.1-7.3,6.1h-3.5v7.8H95V294.8z M100.7,304.7
		c3.4,0,5.1-1.3,5.1-4c0-2.8-1.7-3.8-5.1-3.8h-3.2v7.8H100.7z"/>
	<path fill="#666666" d="M112.6,299.9h9.2v14.6h-2.5v-12.6h-6.8V299.9z M118.4,295c0-1.2,0.8-1.9,2-1.9c1.1,0,2,0.8,2,1.9
		c0,1.1-0.9,1.9-2,1.9C119.2,296.9,118.4,296.2,118.4,295z"/>
	<path fill="#666666" d="M133.2,315.7v4.9h-2.5v-20.7h2l0.2,1.9h0.1c1.3-1.3,3.2-2.2,5-2.2c3.9,0,6,2.9,6,7.4c0,5-3.1,7.9-6.6,7.9
		c-1.4,0-3.1-0.7-4.4-1.9L133.2,315.7z M137.1,312.8c2.6,0,4.5-2.2,4.5-5.8c0-3.2-1.2-5.4-4.1-5.4c-1.3,0-2.8,0.7-4.3,2.2v7.3
		C134.5,312.3,136.1,312.8,137.1,312.8z"/>
	<path fill="#666666" d="M155.4,299.6c4.2,0,6.6,2.7,6.6,6.8c0,0.5,0,1.1-0.1,1.4h-11.4c0.1,3.1,2.4,5.1,5.6,5.1
		c1.7,0,3.1-0.5,4.4-1.3l0.9,1.6c-1.4,0.9-3.3,1.7-5.6,1.7c-4.3,0-7.8-2.9-7.8-7.6S151.6,299.6,155.4,299.6z M159.7,306.1
		c0-2.9-1.6-4.5-4.3-4.5c-2.4,0-4.5,1.7-4.9,4.5H159.7z"/>
	<path fill="#666666" d="M195.7,314.5l-4.7-8.3h-3.5v8.3h-2.5v-19.7h6.1c4,0,6.9,1.4,6.9,5.5c0,3.1-1.7,4.9-4.4,5.6l5,8.6H195.7z
		 M187.4,304.2h3.3c3.1,0,4.7-1.3,4.7-3.8c0-2.6-1.7-3.5-4.7-3.5h-3.3V304.2z"/>
	<path fill="#666666" d="M208.9,309.8c1.4,0,2.4,1,2.4,2.5c0,1.5-1.1,2.5-2.4,2.5c-1.3,0-2.4-1-2.4-2.5
		C206.5,310.8,207.6,309.8,208.9,309.8z"/>
</g>
<g>
	<path fill="#666666" d="M95,355.8h6c4.3,0,7.3,1.5,7.3,5.8c0,4.1-2.9,6.1-7.3,6.1h-3.5v7.8H95V355.8z M100.7,365.7
		c3.4,0,5.1-1.3,5.1-4c0-2.8-1.7-3.8-5.1-3.8h-3.2v7.8H100.7z"/>
	<path fill="#666666" d="M112.6,360.9h9.2v14.6h-2.5v-12.6h-6.8V360.9z M118.4,356c0-1.2,0.8-1.9,2-1.9c1.1,0,2,0.8,2,1.9
		c0,1.1-0.9,1.9-2,1.9C119.2,357.9,118.4,357.2,118.4,356z"/>
	<path fill="#666666" d="M133.2,376.7v4.9h-2.5v-20.7h2l0.2,1.9h0.1c1.3-1.3,3.2-2.2,5-2.2c3.9,0,6,2.9,6,7.4c0,5-3.1,7.9-6.6,7.9
		c-1.4,0-3.1-0.7-4.4-1.9L133.2,376.7z M137.1,373.8c2.6,0,4.5-2.2,4.5-5.8c0-3.2-1.2-5.4-4.1-5.4c-1.3,0-2.8,0.7-4.3,2.2v7.3
		C134.5,373.3,136.1,373.8,137.1,373.8z"/>
	<path fill="#666666" d="M155.4,360.6c4.2,0,6.6,2.7,6.6,6.8c0,0.5,0,1.1-0.1,1.4h-11.4c0.1,3.1,2.4,5.1,5.6,5.1
		c1.7,0,3.1-0.5,4.4-1.3l0.9,1.6c-1.4,0.9-3.3,1.7-5.6,1.7c-4.3,0-7.8-2.9-7.8-7.6S151.6,360.6,155.4,360.6z M159.7,367.1
		c0-2.9-1.6-4.5-4.3-4.5c-2.4,0-4.5,1.7-4.9,4.5H159.7z"/>
	<path fill="#666666" d="M182.2,355.8h2.5l1.6,12.4c0.1,1.7,0.3,3.2,0.4,4.9h0.1c0.4-1.6,0.9-3.2,1.3-4.9l2.1-7.3h1.8l2.1,7.3
		c0.4,1.6,0.8,3.2,1.2,4.9h0.1c0.1-1.6,0.3-3.2,0.4-4.9l1.5-12.4h2.4l-2.9,19.7h-2.8l-2.2-8.2c-0.3-1.2-0.5-2.4-0.7-3.5h-0.1
		c-0.2,1.2-0.5,2.4-0.8,3.5l-2.2,8.2h-2.7L182.2,355.8z"/>
	<path fill="#666666" d="M208.9,370.8c1.4,0,2.4,1,2.4,2.5c0,1.5-1.1,2.5-2.4,2.5c-1.3,0-2.4-1-2.4-2.5
		C206.5,371.8,207.6,370.8,208.9,370.8z"/>
</g>
<circle fill="#3399CC" cx="250.1" cy="304.9" r="15.2"/>
<g>
	<path fill="#666666" d="M43.4,187.8c1.7,1.6,4,3,7.3,3c3.5,0,6.1-1.8,6.1-4.7c0-3-2.6-5.1-9.3-5.1v-2.5c6,0,8.4-2.1,8.4-4.8
		c0-2.5-2.1-4-5.2-4c-2.4,0-4.6,1.1-6.3,2.6l-1.8-2.1c2.1-1.8,4.9-3.2,8.2-3.2c4.8,0,8.4,2.4,8.4,6.5c0,3.1-2.3,5-5.4,6.1v0.2
		c3.4,0.7,6.3,3,6.3,6.5c0,4.5-4.2,7.3-9.2,7.3c-4.4,0-7.3-1.7-9.2-3.6L43.4,187.8z"/>
</g>
<g>
	<path fill="#666666" d="M61.3,248h-4v7h-3.1v-7H41v-2.2l12.8-16.3h3.5v15.8h4V248z M54.2,245.4v-7.9c0-1.4,0.1-3.1,0.2-4.5h-0.2
		c-0.8,1.2-1.8,2.5-2.6,3.7l-6.9,8.7H54.2z"/>
</g>
<g>
	<path fill="#666666" d="M95,170.8h6c4.3,0,7.3,1.5,7.3,5.8c0,4.1-2.9,6.1-7.3,6.1h-3.5v7.8H95V170.8z M100.7,180.7
		c3.4,0,5.1-1.3,5.1-4c0-2.8-1.7-3.8-5.1-3.8h-3.2v7.8H100.7z"/>
	<path fill="#666666" d="M112.6,175.9h9.2v14.6h-2.5v-12.6h-6.8V175.9z M118.4,171c0-1.2,0.8-1.9,2-1.9c1.1,0,2,0.8,2,1.9
		c0,1.1-0.9,1.9-2,1.9C119.2,172.9,118.4,172.2,118.4,171z"/>
	<path fill="#666666" d="M133.2,191.7v4.9h-2.5v-20.7h2l0.2,1.9h0.1c1.3-1.3,3.2-2.2,5-2.2c3.9,0,6,2.9,6,7.4c0,5-3.1,7.9-6.6,7.9
		c-1.4,0-3.1-0.7-4.4-1.9L133.2,191.7z M137.1,188.8c2.6,0,4.5-2.2,4.5-5.8c0-3.2-1.2-5.4-4.1-5.4c-1.3,0-2.8,0.7-4.3,2.2v7.3
		C134.5,188.3,136.1,188.8,137.1,188.8z"/>
	<path fill="#666666" d="M155.4,175.6c4.2,0,6.6,2.7,6.6,6.8c0,0.5,0,1.1-0.1,1.4h-11.4c0.1,3.1,2.4,5.1,5.6,5.1
		c1.7,0,3.1-0.5,4.4-1.3l0.9,1.6c-1.4,0.9-3.3,1.7-5.6,1.7c-4.3,0-7.8-2.9-7.8-7.6S151.6,175.6,155.4,175.6z M159.7,182.1
		c0-2.9-1.6-4.5-4.3-4.5c-2.4,0-4.5,1.7-4.9,4.5H159.7z"/>
	<path fill="#666666" d="M195.7,190.5l-4.7-8.3h-3.5v8.3h-2.5v-19.7h6.1c4,0,6.9,1.4,6.9,5.5c0,3.1-1.7,4.9-4.4,5.6l5,8.6H195.7z
		 M187.4,180.2h3.3c3.1,0,4.7-1.3,4.7-3.8c0-2.6-1.7-3.5-4.7-3.5h-3.3V180.2z"/>
	<path fill="#666666" d="M208.9,185.8c1.4,0,2.4,1,2.4,2.5c0,1.5-1.1,2.5-2.4,2.5c-1.3,0-2.4-1-2.4-2.5
		C206.5,186.8,207.6,185.8,208.9,185.8z"/>
</g>
<g>
	<path fill="#666666" d="M95,231.8h6c4.3,0,7.3,1.5,7.3,5.8c0,4.1-2.9,6.1-7.3,6.1h-3.5v7.8H95V231.8z M100.7,241.7
		c3.4,0,5.1-1.3,5.1-4c0-2.8-1.7-3.8-5.1-3.8h-3.2v7.8H100.7z"/>
	<path fill="#666666" d="M112.6,236.9h9.2v14.6h-2.5v-12.6h-6.8V236.9z M118.4,232c0-1.2,0.8-1.9,2-1.9c1.1,0,2,0.8,2,1.9
		c0,1.1-0.9,1.9-2,1.9C119.2,233.9,118.4,233.2,118.4,232z"/>
	<path fill="#666666" d="M133.2,252.7v4.9h-2.5v-20.7h2l0.2,1.9h0.1c1.3-1.3,3.2-2.2,5-2.2c3.9,0,6,2.9,6,7.4c0,5-3.1,7.9-6.6,7.9
		c-1.4,0-3.1-0.7-4.4-1.9L133.2,252.7z M137.1,249.8c2.6,0,4.5-2.2,4.5-5.8c0-3.2-1.2-5.4-4.1-5.4c-1.3,0-2.8,0.7-4.3,2.2v7.3
		C134.5,249.3,136.1,249.8,137.1,249.8z"/>
	<path fill="#666666" d="M155.4,236.6c4.2,0,6.6,2.7,6.6,6.8c0,0.5,0,1.1-0.1,1.4h-11.4c0.1,3.1,2.4,5.1,5.6,5.1
		c1.7,0,3.1-0.5,4.4-1.3l0.9,1.6c-1.4,0.9-3.3,1.7-5.6,1.7c-4.3,0-7.8-2.9-7.8-7.6S151.6,236.6,155.4,236.6z M159.7,243.1
		c0-2.9-1.6-4.5-4.3-4.5c-2.4,0-4.5,1.7-4.9,4.5H159.7z"/>
	<path fill="#666666" d="M182.2,231.8h2.5l1.6,12.4c0.1,1.7,0.3,3.2,0.4,4.9h0.1c0.4-1.6,0.9-3.2,1.3-4.9l2.1-7.3h1.8l2.1,7.3
		c0.4,1.6,0.8,3.2,1.2,4.9h0.1c0.1-1.6,0.3-3.2,0.4-4.9l1.5-12.4h2.4l-2.9,19.7h-2.8l-2.2-8.2c-0.3-1.2-0.5-2.4-0.7-3.5h-0.1
		c-0.2,1.2-0.5,2.4-0.8,3.5l-2.2,8.2h-2.7L182.2,231.8z"/>
	<path fill="#666666" d="M208.9,246.8c1.4,0,2.4,1,2.4,2.5c0,1.5-1.1,2.5-2.4,2.5c-1.3,0-2.4-1-2.4-2.5
		C206.5,247.8,207.6,246.8,208.9,246.8z"/>
</g>
<circle fill="#3399CC" cx="250.1" cy="239.9" r="15.2"/>
<g>
	<path fill="none" stroke="#3399CC" stroke-width="6" stroke-linecap="round" stroke-miterlimit="10" d="M512.5,474.6h153.9
		c4.7,0,8.4-3.8,8.4-8.4v-36c0-4.7-3.8-8.4-8.4-8.4H512.5c-4.7,0-8.4,3.8-8.4,8.4v36.1C504.1,470.8,507.8,474.6,512.5,474.6z"/>
	<path fill="#3399CC" stroke="#3399CC" stroke-width="6" stroke-linecap="round" stroke-miterlimit="10" d="M621,474.6
		c22.5,0.1,45.4,0,45.4,0c4.7,0,8.4-3.8,8.4-8.4v-36c0-4.7-3.8-8.4-8.4-8.4c0,0-96.6-0.1-112.7-0.1C585,426.7,584.8,468.9,621,474.6
		z"/>
	<g>
		<g>
			<path fill="#666666" d="M524.1,430.3h4.4l2.8,21.8c0.2,2.9,0.5,5.7,0.7,8.6h0.2c0.7-2.9,1.5-5.7,2.2-8.6l3.7-12.8h3.1l3.7,12.8
				c0.6,2.8,1.4,5.7,2.2,8.6h0.2c0.2-2.9,0.5-5.7,0.7-8.6l2.6-21.8h4.2l-5.1,34.8h-4.9l-4-14.6c-0.5-2.1-0.9-4.2-1.3-6.2h-0.2
				c-0.4,2.1-0.8,4.2-1.4,6.2l-3.8,14.6h-4.8L524.1,430.3z"/>
		</g>
	</g>
	<g>
		<g>
			<path fill="#FFFFFF" d="M646.6,466.5l-8.4-14.7h-6.2v14.7h-4.4v-34.7h10.8c7,0,12.1,2.5,12.1,9.7c0,5.4-3.1,8.6-7.8,9.8l8.8,15.1
				H646.6z M632.1,448.3h5.8c5.4,0,8.4-2.2,8.4-6.7c0-4.6-3-6.2-8.4-6.2h-5.8V448.3z"/>
		</g>
	</g>
</g>
<g>
	<path fill="none" stroke="#3399CC" stroke-width="6" stroke-linecap="round" stroke-miterlimit="10" d="M322.5,474.5h153.9
		c4.7,0,8.4-3.8,8.4-8.4v-36c0-4.7-3.8-8.4-8.4-8.4H322.5c-4.7,0-8.4,3.8-8.4,8.4v36.1C314.1,470.7,317.8,474.5,322.5,474.5z"/>
	<path fill="#3399CC" stroke="#3399CC" stroke-width="6" stroke-linecap="round" stroke-miterlimit="10" d="M431,474.5
		c22.5,0.1,45.4,0,45.4,0c4.7,0,8.4-3.8,8.4-8.4v-36c0-4.7-3.8-8.4-8.4-8.4c0,0-96.6-0.1-112.7-0.1C395,426.7,394.8,468.8,431,474.5
		z"/>
	<g>
		<g>
			<path fill="#666666" d="M334.1,430.3h4.4l2.8,21.8c0.2,2.9,0.5,5.7,0.7,8.6h0.2c0.7-2.9,1.5-5.7,2.2-8.6l3.7-12.8h3.1l3.7,12.8
				c0.6,2.8,1.4,5.7,2.2,8.6h0.2c0.2-2.9,0.5-5.7,0.7-8.6l2.6-21.8h4.2l-5.1,34.8h-4.9l-4-14.6c-0.5-2.1-0.9-4.2-1.3-6.2h-0.2
				c-0.4,2.1-0.8,4.2-1.4,6.2l-3.8,14.6h-4.8L334.1,430.3z"/>
		</g>
	</g>
	<g>
		<g>
			<path fill="#FFFFFF" d="M456.6,466.5l-8.4-14.7h-6.2v14.7h-4.4v-34.7h10.8c7,0,12.1,2.5,12.1,9.7c0,5.4-3.1,8.6-7.8,9.8l8.8,15.1
				H456.6z M442.1,448.2h5.8c5.4,0,8.4-2.2,8.4-6.7c0-4.6-3-6.2-8.4-6.2h-5.8V448.2z"/>
		</g>
	</g>
</g>
<line fill="none" stroke="#3399CC" stroke-width="6" stroke-linecap="round" stroke-miterlimit="10" x1="250" y1="305" x2="450" y2="305"/>
<line fill="none" stroke="#3399CC" stroke-width="6" stroke-linecap="round" stroke-miterlimit="10" x1="250" y1="240" x2="540" y2="240"/>
<line fill="none" stroke="#3399CC" stroke-width="6" stroke-linecap="round" stroke-miterlimit="10" x1="540" y1="240" x2="540" y2="412"/>
<line fill="none" stroke="#3399CC" stroke-width="6" stroke-linecap="round" stroke-miterlimit="10" x1="450" y1="305" x2="450" y2="412"/>
<path fill="#3399CC" stroke="#3399CC" stroke-width="4" stroke-miterlimit="10" d="M161.8,437C149.2,437,5,437,5,437v43.6
	c0,0,196,0,211.8,0C195.5,480.6,194.2,437,161.8,437z"/>
<rect x="5" y="480.6" fill="none" stroke="#3399CC" stroke-width="4" stroke-miterlimit="10" width="296.8" height="366.5"/>
<g>
	<path fill="#FFFFFF" d="M15.5,447.1h7c4.2,0,7.6,1.9,7.6,7.6c0,5.5-3.5,8-7.6,8h-2.7v8h-4.4V447.1z M22.3,458.4
		c2.4,0,3.5-1.3,3.5-3.7c0-2.5-1.2-3.4-3.5-3.4h-2.4v7.1H22.3z"/>
	<path fill="#FFFFFF" d="M34.5,452.7h3.6l0.4,3.9h0.1c1.5-2.9,3.6-4.3,6-4.3c1.3,0,2,0.3,2.8,0.7l-0.9,4.4c-0.9-0.3-1.5-0.5-2.6-0.5
		c-1.8,0-3.7,1.2-4.9,4.4v9.3h-4.4V452.7z"/>
	<path fill="#FFFFFF" d="M57.8,452.3c3.9,0,7.5,3.4,7.5,9.4s-3.6,9.4-7.5,9.4s-7.5-3.4-7.5-9.4S53.9,452.3,57.8,452.3z M57.8,466.8
		c2,0,3-2,3-5.1s-1-5.1-3-5.1s-3,2-3,5.1S55.7,466.8,57.8,466.8z"/>
	<path fill="#FFFFFF" d="M77.1,452.3c2.3,0,4.3,1,5.5,2.4l-2,3.3c-1.1-1-2.2-1.4-3.3-1.4c-2.5,0-4.3,2-4.3,5.1s1.7,5.1,4.1,5.1
		c1.5,0,2.8-0.8,3.9-1.7l1.8,3.4c-1.8,1.8-4.1,2.6-6.1,2.6c-4.6,0-8.2-3.4-8.2-9.4S72.6,452.3,77.1,452.3z"/>
	<path fill="#FFFFFF" d="M93.7,452.3c4.5,0,6.9,3.7,6.9,8.6c0,0.9-0.1,1.9-0.2,2.3h-9.9c0.3,2.7,2.1,3.8,4.3,3.8
		c1.3,0,2.5-0.4,3.8-1.2l1.4,3.2c-1.7,1.3-3.9,2.1-5.8,2.1c-4.6,0-8.1-3.5-8.1-9.4C86,455.8,89.8,452.3,93.7,452.3z M96.6,459.7
		c0-2-0.9-3.4-2.9-3.4c-1.6,0-2.9,1.1-3.3,3.4H96.6z"/>
	<path fill="#FFFFFF" d="M105.7,465c1.7,1.3,3.4,2.1,5.3,2.1c2,0,2.8-0.6,2.8-1.5c0-1.1-1.6-1.7-3.9-2.5c-2.6-0.9-5.2-2.4-5.2-5.2
		c0-3.3,2.6-5.6,6.8-5.6c2.6,0,4.8,1.3,6.3,2.5l-2,3.2c-1.3-1-2.8-1.7-4.3-1.7c-1.8,0-2.5,0.5-2.5,1.4c0,1.1,1.7,1.6,3.8,2.3
		c2.9,0.9,5.4,2.3,5.4,5.4c0,3.2-2.5,5.8-7.2,5.8c-2.6,0-5.3-1.2-7.2-2.7L105.7,465z"/>
	<path fill="#FFFFFF" d="M123.5,465c1.7,1.3,3.4,2.1,5.3,2.1c2,0,2.8-0.6,2.8-1.5c0-1.1-1.6-1.7-3.9-2.5c-2.6-0.9-5.2-2.4-5.2-5.2
		c0-3.3,2.6-5.6,6.8-5.6c2.6,0,4.8,1.3,6.3,2.5l-2,3.2c-1.3-1-2.8-1.7-4.3-1.7c-1.8,0-2.5,0.5-2.5,1.4c0,1.1,1.7,1.6,3.8,2.3
		c2.9,0.9,5.4,2.3,5.4,5.4c0,3.2-2.5,5.8-7.2,5.8c-2.6,0-5.3-1.2-7.2-2.7L123.5,465z"/>
	<path fill="#FFFFFF" d="M167.2,465h-5.8l-1.2,5.6h-4.4l6-23.5h5.2l6,23.5h-4.6L167.2,465z M166.3,460.9l-0.4-2.2
		c-0.5-2.3-1-5.1-1.5-7.6h-0.1c-0.5,2.5-1,5.2-1.5,7.6l-0.4,2.2H166.3z"/>
</g>
<path fill="#3399CC" stroke="#3399CC" stroke-width="4" stroke-miterlimit="10" d="M216,491.8c-12.6,0-199.5,0-199.5,0v28.1
	c0,0,238.6,0,254.4,0C249.7,519.9,248.4,491.8,216,491.8z"/>
<rect x="16.6" y="519.9" fill="none" stroke="#3399CC" stroke-width="4" stroke-miterlimit="10" width="269.6" height="310"/>
<g>
	<path fill="#FFFFFF" d="M23.6,499.7h9.6v2.8h-6.3v3.4h5.4v2.8h-5.4v5.6h-3.3V499.7z"/>
	<path fill="#FFFFFF" d="M36.3,503.1H44v11h-3.3v-8.5h-4.4V503.1z M40,499.5c0-1.2,0.9-2,2.2-2c1.3,0,2.2,0.8,2.2,2s-0.9,2-2.2,2
		C40.9,501.5,40,500.7,40,499.5z"/>
	<path fill="#FFFFFF" d="M49.3,498.6h6.5V510c0,1.4,0.9,1.8,1.8,1.8c0.5,0,1-0.1,1.7-0.4l0.7,2.4c-1.2,0.4-1.9,0.6-3.3,0.6
		c-2.8,0-4.2-1.8-4.2-4.6v-8.7h-3.2V498.6z"/>
	<path fill="#FFFFFF" d="M68.2,502.9c3.4,0,5.2,2.3,5.2,5.3c0,0.6-0.1,1.2-0.1,1.4h-7.4c0.2,1.6,1.6,2.3,3.2,2.3
		c1,0,1.9-0.3,2.8-0.8l1.1,2c-1.2,0.8-2.9,1.3-4.4,1.3c-3.4,0-6.1-2.1-6.1-5.8C62.4,505,65.2,502.9,68.2,502.9z M70.4,507.4
		c0-1.2-0.7-2.1-2.2-2.1c-1.2,0-2.2,0.7-2.5,2.1H70.4z"/>
	<path fill="#FFFFFF" d="M89.3,499.7h3.9c4.2,0,7,2.2,7,7.2s-2.8,7.3-6.8,7.3h-4.1V499.7z M93.1,511.5c2.3,0,3.8-1.2,3.8-4.7
		c0-3.5-1.5-4.5-3.8-4.5h-0.5v9.2H93.1z"/>
	<path fill="#FFFFFF" d="M108.1,502.9c3.4,0,5.2,2.3,5.2,5.3c0,0.6-0.1,1.2-0.1,1.4h-7.4c0.2,1.6,1.6,2.3,3.2,2.3
		c1,0,1.9-0.3,2.8-0.8l1.1,2c-1.2,0.8-2.9,1.3-4.4,1.3c-3.4,0-6.1-2.1-6.1-5.8C102.4,505,105.2,502.9,108.1,502.9z M110.4,507.4
		c0-1.2-0.7-2.1-2.2-2.1c-1.2,0-2.2,0.7-2.5,2.1H110.4z"/>
	<path fill="#FFFFFF" d="M117.2,510.7c1.3,0.8,2.5,1.3,4,1.3c1.5,0,2.1-0.4,2.1-0.9c0-0.7-1.2-1-3-1.5c-1.9-0.5-3.9-1.5-3.9-3.2
		c0-2,1.9-3.4,5.1-3.4c2,0,3.6,0.8,4.8,1.5l-1.5,2c-1-0.6-2.1-1-3.2-1c-1.4,0-1.9,0.3-1.9,0.9c0,0.7,1.3,1,2.8,1.4
		c2.2,0.6,4.1,1.4,4.1,3.3c0,2-1.9,3.6-5.4,3.6c-2,0-4-0.8-5.4-1.7L117.2,510.7z"/>
	<path fill="#FFFFFF" d="M135.7,502.9c1.7,0,3.2,0.6,4.1,1.5l-1.5,2c-0.8-0.6-1.6-0.9-2.4-0.9c-1.9,0-3.2,1.2-3.2,3.1
		c0,1.9,1.3,3.1,3.1,3.1c1.2,0,2.1-0.5,2.9-1l1.3,2.1c-1.3,1.1-3,1.6-4.6,1.6c-3.5,0-6.1-2.1-6.1-5.8
		C129.3,505,132.3,502.9,135.7,502.9z"/>
	<path fill="#FFFFFF" d="M147.8,509.2c1.5,0,2.6,1.2,2.6,2.6c0,1.5-1,2.6-2.6,2.6s-2.6-1.1-2.6-2.6
		C145.3,510.4,146.3,509.2,147.8,509.2z"/>
	<path fill="#FFFFFF" d="M172.8,502.4h-4.3v-2.8h12v2.8h-4.3v11.7h-3.3V502.4z"/>
	<path fill="#FFFFFF" d="M189.8,507.1c-0.1-1-0.9-1.6-2.4-1.6c-1.1,0-2.1,0.4-3.4,1l-1.2-2.1c1.5-0.9,3.3-1.5,5.2-1.5
		c3.1,0,5,1.6,5,5v6.3h-2.7l-0.2-1.2H190c-1.1,0.8-2.5,1.5-3.9,1.5c-2.2,0-3.6-1.5-3.6-3.3C182.5,508.6,184.6,507.4,189.8,507.1z
		 M187.2,511.9c1,0,1.8-0.4,2.6-1V509c-3.2,0.2-4.1,0.9-4.1,1.8C185.6,511.6,186.2,511.9,187.2,511.9z"/>
	<path fill="#FFFFFF" d="M196.1,498.6h3.3v3.8l-0.1,1.7c0.9-0.8,2-1.3,3.1-1.3c2.8,0,4.4,2.2,4.4,5.6c0,3.8-2.3,6-4.8,6
		c-1,0-2.1-0.5-3-1.5h-0.1l-0.3,1.2h-2.6V498.6z M201.3,511.8c1.2,0,2.2-1,2.2-3.2c0-2-0.6-3-2-3c-0.7,0-1.4,0.3-2,1v4.5
		C200,511.6,200.7,511.8,201.3,511.8z"/>
	<path fill="#FFFFFF" d="M209.2,498.6h6.5V510c0,1.4,0.9,1.8,1.8,1.8c0.5,0,1-0.1,1.7-0.4l0.7,2.4c-1.2,0.4-1.9,0.6-3.3,0.6
		c-2.8,0-4.2-1.8-4.2-4.6v-8.7h-3.2V498.6z"/>
	<path fill="#FFFFFF" d="M228.1,502.9c3.4,0,5.2,2.3,5.2,5.3c0,0.6-0.1,1.2-0.1,1.4h-7.4c0.2,1.6,1.6,2.3,3.2,2.3
		c1,0,1.9-0.3,2.8-0.8l1.1,2c-1.2,0.8-2.9,1.3-4.4,1.3c-3.4,0-6.1-2.1-6.1-5.8C222.4,505,225.2,502.9,228.1,502.9z M230.3,507.4
		c0-1.2-0.7-2.1-2.2-2.1c-1.2,0-2.2,0.7-2.5,2.1H230.3z"/>
</g>
<line fill="none" stroke="#3399CC" stroke-width="2" stroke-miterlimit="10" x1="86" y1="830" x2="86" y2="520"/>
<line fill="none" stroke="#3399CC" stroke-width="2" stroke-miterlimit="10" x1="16" y1="582" x2="286" y2="582"/>
<line fill="none" stroke="#3399CC" stroke-width="2" stroke-miterlimit="10" x1="16" y1="643" x2="286" y2="643"/>
<line fill="none" stroke="#3399CC" stroke-width="2" stroke-miterlimit="10" x1="16" y1="705" x2="286" y2="705"/>
<g>
	<path fill="#666666" d="M43.3,744.9c1.7,1.5,3.8,2.9,7.2,2.9c3.6,0,6.5-2.3,6.5-5.8c0-3.5-2.5-5.6-6.3-5.6c-2.1,0-3.4,0.6-5.2,1.6
		l-1.8-1.1l0.8-12.3h14.4v2.8H47.5l-0.7,7.6c1.5-0.6,2.8-1,4.7-1c4.9,0,8.8,2.5,8.8,8c0,5.5-4.6,8.6-9.4,8.6c-4.6,0-7.2-1.7-9.2-3.5
		L43.3,744.9z"/>
</g>
<g>
	<path fill="#666666" d="M100.9,556.1c1.4,0,2.4,1,2.4,2.5c0,1.5-1.1,2.5-2.4,2.5c-1.3,0-2.4-1-2.4-2.5
		C98.5,557.1,99.6,556.1,100.9,556.1z"/>
	<path fill="#666666" d="M118.9,556.1c1.4,0,2.4,1,2.4,2.5c0,1.5-1.1,2.5-2.4,2.5c-1.3,0-2.4-1-2.4-2.5
		C116.5,557.1,117.6,556.1,118.9,556.1z"/>
	<path fill="#666666" d="M136.9,556.1c1.4,0,2.4,1,2.4,2.5c0,1.5-1.1,2.5-2.4,2.5c-1.3,0-2.4-1-2.4-2.5
		C134.5,557.1,135.6,556.1,136.9,556.1z"/>
</g>
<line fill="none" stroke="#3399CC" stroke-width="2" stroke-miterlimit="10" x1="16" y1="767" x2="286" y2="767"/>
<g>
	<path fill="#666666" d="M58.5,790.8c-1.3-1.2-3.2-2-5.1-2c-4.1,0-7.7,2.8-7.8,11c2-2,4.7-3.3,7.2-3.3c4.7,0,8,2.6,8,7.9
		c0,4.9-4,8.2-8.5,8.2c-5.6,0-9.8-4.1-9.8-12.3c0-10.2,5.1-14.2,10.7-14.2c3.1,0,5.4,1.2,7.1,2.7L58.5,790.8z M57.7,804.4
		c0-3.5-1.9-5.4-5.4-5.4c-2,0-4.4,1-6.5,3.4c0.5,4.9,2.8,7.6,6.6,7.6C55.3,809.9,57.7,807.7,57.7,804.4z"/>
</g>
<g>
	<path fill="#666666" d="M95,727.8h6c4.3,0,7.3,1.5,7.3,5.8c0,4.1-2.9,6.1-7.3,6.1h-3.5v7.8H95V727.8z M100.7,737.7
		c3.4,0,5.1-1.3,5.1-4c0-2.8-1.7-3.8-5.1-3.8h-3.2v7.8H100.7z"/>
	<path fill="#666666" d="M112.6,732.9h9.2v14.6h-2.5v-12.6h-6.8V732.9z M118.4,728c0-1.2,0.8-1.9,2-1.9c1.1,0,2,0.8,2,1.9
		c0,1.1-0.9,1.9-2,1.9C119.2,729.9,118.4,729.2,118.4,728z"/>
	<path fill="#666666" d="M133.2,748.7v4.9h-2.5v-20.7h2l0.2,1.9h0.1c1.3-1.3,3.2-2.2,5-2.2c3.9,0,6,2.9,6,7.4c0,5-3.1,7.9-6.6,7.9
		c-1.4,0-3.1-0.7-4.4-1.9L133.2,748.7z M137.1,745.8c2.6,0,4.5-2.2,4.5-5.8c0-3.2-1.2-5.4-4.1-5.4c-1.3,0-2.8,0.7-4.3,2.2v7.3
		C134.5,745.3,136.1,745.8,137.1,745.8z"/>
	<path fill="#666666" d="M155.4,732.6c4.2,0,6.6,2.7,6.6,6.8c0,0.5,0,1.1-0.1,1.4h-11.4c0.1,3.1,2.4,5.1,5.6,5.1
		c1.7,0,3.1-0.5,4.4-1.3l0.9,1.6c-1.4,0.9-3.3,1.7-5.6,1.7c-4.3,0-7.8-2.9-7.8-7.6S151.6,732.6,155.4,732.6z M159.7,739.1
		c0-2.9-1.6-4.5-4.3-4.5c-2.4,0-4.5,1.7-4.9,4.5H159.7z"/>
	<path fill="#666666" d="M195.7,747.5l-4.7-8.3h-3.5v8.3h-2.5v-19.7h6.1c4,0,6.9,1.4,6.9,5.5c0,3.1-1.7,4.9-4.4,5.6l5,8.6H195.7z
		 M187.4,737.2h3.3c3.1,0,4.7-1.3,4.7-3.8c0-2.6-1.7-3.5-4.7-3.5h-3.3V737.2z"/>
	<path fill="#666666" d="M208.9,742.8c1.4,0,2.4,1,2.4,2.5c0,1.5-1.1,2.5-2.4,2.5c-1.3,0-2.4-1-2.4-2.5
		C206.5,743.8,207.6,742.8,208.9,742.8z"/>
</g>
<g>
	<path fill="#666666" d="M95,788.8h6c4.3,0,7.3,1.5,7.3,5.8c0,4.1-2.9,6.1-7.3,6.1h-3.5v7.8H95V788.8z M100.7,798.7
		c3.4,0,5.1-1.3,5.1-4c0-2.8-1.7-3.8-5.1-3.8h-3.2v7.8H100.7z"/>
	<path fill="#666666" d="M112.6,793.9h9.2v14.6h-2.5v-12.6h-6.8V793.9z M118.4,789c0-1.2,0.8-1.9,2-1.9c1.1,0,2,0.8,2,1.9
		c0,1.1-0.9,1.9-2,1.9C119.2,790.9,118.4,790.2,118.4,789z"/>
	<path fill="#666666" d="M133.2,809.7v4.9h-2.5v-20.7h2l0.2,1.9h0.1c1.3-1.3,3.2-2.2,5-2.2c3.9,0,6,2.9,6,7.4c0,5-3.1,7.9-6.6,7.9
		c-1.4,0-3.1-0.7-4.4-1.9L133.2,809.7z M137.1,806.8c2.6,0,4.5-2.2,4.5-5.8c0-3.2-1.2-5.4-4.1-5.4c-1.3,0-2.8,0.7-4.3,2.2v7.3
		C134.5,806.3,136.1,806.8,137.1,806.8z"/>
	<path fill="#666666" d="M155.4,793.6c4.2,0,6.6,2.7,6.6,6.8c0,0.5,0,1.1-0.1,1.4h-11.4c0.1,3.1,2.4,5.1,5.6,5.1
		c1.7,0,3.1-0.5,4.4-1.3l0.9,1.6c-1.4,0.9-3.3,1.7-5.6,1.7c-4.3,0-7.8-2.9-7.8-7.6S151.6,793.6,155.4,793.6z M159.7,800.1
		c0-2.9-1.6-4.5-4.3-4.5c-2.4,0-4.5,1.7-4.9,4.5H159.7z"/>
	<path fill="#666666" d="M182.2,788.8h2.5l1.6,12.4c0.1,1.7,0.3,3.2,0.4,4.9h0.1c0.4-1.6,0.9-3.2,1.3-4.9l2.1-7.3h1.8l2.1,7.3
		c0.4,1.6,0.8,3.2,1.2,4.9h0.1c0.1-1.6,0.3-3.2,0.4-4.9l1.5-12.4h2.4l-2.9,19.7h-2.8l-2.2-8.2c-0.3-1.2-0.5-2.4-0.7-3.5h-0.1
		c-0.2,1.2-0.5,2.4-0.8,3.5l-2.2,8.2h-2.7L182.2,788.8z"/>
	<path fill="#666666" d="M208.9,803.8c1.4,0,2.4,1,2.4,2.5c0,1.5-1.1,2.5-2.4,2.5c-1.3,0-2.4-1-2.4-2.5
		C206.5,804.8,207.6,803.8,208.9,803.8z"/>
</g>
<circle fill="#3399CC" cx="250.1" cy="796.9" r="15.2"/>
<g>
	<path fill="#666666" d="M43.4,620.8c1.7,1.6,4,3,7.3,3c3.5,0,6.1-1.8,6.1-4.7c0-3-2.6-5.1-9.3-5.1v-2.5c6,0,8.4-2.1,8.4-4.8
		c0-2.5-2.1-4-5.2-4c-2.4,0-4.6,1.1-6.3,2.6l-1.8-2.1c2.1-1.8,4.9-3.2,8.2-3.2c4.8,0,8.4,2.4,8.4,6.5c0,3.1-2.3,5-5.4,6.1v0.2
		c3.4,0.7,6.3,3,6.3,6.5c0,4.5-4.2,7.3-9.2,7.3c-4.4,0-7.3-1.7-9.2-3.6L43.4,620.8z"/>
</g>
<g>
	<path fill="#666666" d="M61.3,681h-4v7h-3.1v-7H41v-2.2l12.8-16.3h3.5v15.8h4V681z M54.2,678.4v-7.9c0-1.4,0.1-3.1,0.2-4.5h-0.2
		c-0.8,1.2-1.8,2.5-2.6,3.7l-6.9,8.7H54.2z"/>
</g>
<g>
	<path fill="#666666" d="M95,603.8h6c4.3,0,7.3,1.5,7.3,5.8c0,4.1-2.9,6.1-7.3,6.1h-3.5v7.8H95V603.8z M100.7,613.7
		c3.4,0,5.1-1.3,5.1-4c0-2.8-1.7-3.8-5.1-3.8h-3.2v7.8H100.7z"/>
	<path fill="#666666" d="M112.6,608.9h9.2v14.6h-2.5v-12.6h-6.8V608.9z M118.4,604c0-1.2,0.8-1.9,2-1.9c1.1,0,2,0.8,2,1.9
		c0,1.1-0.9,1.9-2,1.9C119.2,605.9,118.4,605.2,118.4,604z"/>
	<path fill="#666666" d="M133.2,624.7v4.9h-2.5v-20.7h2l0.2,1.9h0.1c1.3-1.3,3.2-2.2,5-2.2c3.9,0,6,2.9,6,7.4c0,5-3.1,7.9-6.6,7.9
		c-1.4,0-3.1-0.7-4.4-1.9L133.2,624.7z M137.1,621.8c2.6,0,4.5-2.2,4.5-5.8c0-3.2-1.2-5.4-4.1-5.4c-1.3,0-2.8,0.7-4.3,2.2v7.3
		C134.5,621.3,136.1,621.8,137.1,621.8z"/>
	<path fill="#666666" d="M155.4,608.6c4.2,0,6.6,2.7,6.6,6.8c0,0.5,0,1.1-0.1,1.4h-11.4c0.1,3.1,2.4,5.1,5.6,5.1
		c1.7,0,3.1-0.5,4.4-1.3l0.9,1.6c-1.4,0.9-3.3,1.7-5.6,1.7c-4.3,0-7.8-2.9-7.8-7.6S151.6,608.6,155.4,608.6z M159.7,615.1
		c0-2.9-1.6-4.5-4.3-4.5c-2.4,0-4.5,1.7-4.9,4.5H159.7z"/>
	<path fill="#666666" d="M195.7,623.5l-4.7-8.3h-3.5v8.3h-2.5v-19.7h6.1c4,0,6.9,1.4,6.9,5.5c0,3.1-1.7,4.9-4.4,5.6l5,8.6H195.7z
		 M187.4,613.2h3.3c3.1,0,4.7-1.3,4.7-3.8c0-2.6-1.7-3.5-4.7-3.5h-3.3V613.2z"/>
	<path fill="#666666" d="M208.9,618.8c1.4,0,2.4,1,2.4,2.5c0,1.5-1.1,2.5-2.4,2.5c-1.3,0-2.4-1-2.4-2.5
		C206.5,619.8,207.6,618.8,208.9,618.8z"/>
</g>
<g>
	<path fill="#666666" d="M95,664.8h6c4.3,0,7.3,1.5,7.3,5.8c0,4.1-2.9,6.1-7.3,6.1h-3.5v7.8H95V664.8z M100.7,674.7
		c3.4,0,5.1-1.3,5.1-4c0-2.8-1.7-3.8-5.1-3.8h-3.2v7.8H100.7z"/>
	<path fill="#666666" d="M112.6,669.9h9.2v14.6h-2.5v-12.6h-6.8V669.9z M118.4,665c0-1.2,0.8-1.9,2-1.9c1.1,0,2,0.8,2,1.9
		c0,1.1-0.9,1.9-2,1.9C119.2,666.9,118.4,666.2,118.4,665z"/>
	<path fill="#666666" d="M133.2,685.7v4.9h-2.5v-20.7h2l0.2,1.9h0.1c1.3-1.3,3.2-2.2,5-2.2c3.9,0,6,2.9,6,7.4c0,5-3.1,7.9-6.6,7.9
		c-1.4,0-3.1-0.7-4.4-1.9L133.2,685.7z M137.1,682.8c2.6,0,4.5-2.2,4.5-5.8c0-3.2-1.2-5.4-4.1-5.4c-1.3,0-2.8,0.7-4.3,2.2v7.3
		C134.5,682.3,136.1,682.8,137.1,682.8z"/>
	<path fill="#666666" d="M155.4,669.6c4.2,0,6.6,2.7,6.6,6.8c0,0.5,0,1.1-0.1,1.4h-11.4c0.1,3.1,2.4,5.1,5.6,5.1
		c1.7,0,3.1-0.5,4.4-1.3l0.9,1.6c-1.4,0.9-3.3,1.7-5.6,1.7c-4.3,0-7.8-2.9-7.8-7.6S151.6,669.6,155.4,669.6z M159.7,676.1
		c0-2.9-1.6-4.5-4.3-4.5c-2.4,0-4.5,1.7-4.9,4.5H159.7z"/>
	<path fill="#666666" d="M182.2,664.8h2.5l1.6,12.4c0.1,1.7,0.3,3.2,0.4,4.9h0.1c0.4-1.6,0.9-3.2,1.3-4.9l2.1-7.3h1.8l2.1,7.3
		c0.4,1.6,0.8,3.2,1.2,4.9h0.1c0.1-1.6,0.3-3.2,0.4-4.9l1.5-12.4h2.4l-2.9,19.7h-2.8l-2.2-8.2c-0.3-1.2-0.5-2.4-0.7-3.5h-0.1
		c-0.2,1.2-0.5,2.4-0.8,3.5l-2.2,8.2h-2.7L182.2,664.8z"/>
	<path fill="#666666" d="M208.9,679.8c1.4,0,2.4,1,2.4,2.5c0,1.5-1.1,2.5-2.4,2.5c-1.3,0-2.4-1-2.4-2.5
		C206.5,680.8,207.6,679.8,208.9,679.8z"/>
</g>
<circle fill="#3399CC" cx="250.1" cy="613.9" r="15.2"/>
<line fill="none" stroke="#3399CC" stroke-width="6" stroke-linecap="round" stroke-miterlimit="10" x1="250" y1="614" x2="640" y2="614"/>
<line fill="none" stroke="#3399CC" stroke-width="6" stroke-linecap="round" stroke-miterlimit="10" x1="250" y1="797" x2="347" y2="797"/>
<rect x="365.7" y="474.5" fill="#3399CC" stroke="#3399CC" stroke-width="6" stroke-linecap="round" stroke-linejoin="round" stroke-miterlimit="10" width="67.5" height="22"/>
<g>
	<path fill="#FFFFFF" d="M370.5,479.5h4.8c3.6,0,6,1,6,3.5c0,1.4-1,2.7-3.1,3.1v0.1c2.6,0.3,4,1.5,4,3.5c0,2.8-2.7,4.2-6.6,4.2h-5.2
		V479.5z M374.9,485.6c3,0,4.2-0.9,4.2-2.5c0-1.6-1.4-2.2-4.1-2.2h-2.3v4.7H374.9z M375.4,492.5c3,0,4.7-0.9,4.7-2.9
		c0-1.8-1.7-2.6-4.7-2.6h-2.6v5.5H375.4z"/>
</g>
<g>
	<g>
		<path fill="#FFFFFF" d="M426.4,489.5H420l-1.7,4.4h-2.3l5.9-14.4h2.5l5.9,14.4H428L426.4,489.5z M425.8,488l-0.8-2.2
			c-0.6-1.6-1.2-3.2-1.7-4.9h-0.1c-0.6,1.7-1.1,3.3-1.7,4.9l-0.8,2.2H425.8z"/>
	</g>
</g>
<g>
	<g>
		
			<line fill="none" stroke="#FFFFFF" stroke-width="4" stroke-linecap="round" stroke-miterlimit="10" x1="389" y1="487" x2="406" y2="487"/>
		<g>
			<polygon fill="#FFFFFF" points="405,492 413.6,487 405,482.1 			"/>
		</g>
	</g>
</g>
<rect x="556.7" y="474.5" fill="#3399CC" stroke="#3399CC" stroke-width="6" stroke-linecap="round" stroke-linejoin="round" stroke-miterlimit="10" width="67.5" height="22"/>
<g>
	<path fill="#FFFFFF" d="M569.9,489.5h-6.3l-1.7,4.4h-2.3l5.9-14.4h2.5l5.9,14.4h-2.3L569.9,489.5z M569.3,488l-0.8-2.2
		c-0.6-1.6-1.2-3.2-1.7-4.9h-0.1c-0.6,1.7-1.1,3.3-1.7,4.9l-0.8,2.2H569.3z"/>
</g>
<g>
	<g>
		<path fill="#FFFFFF" d="M609,479.5h4.8c3.6,0,6,1,6,3.5c0,1.4-1,2.7-3.1,3.1v0.1c2.6,0.3,4,1.5,4,3.5c0,2.8-2.7,4.2-6.6,4.2H609
			V479.5z M613.4,485.6c3,0,4.2-0.9,4.2-2.5c0-1.6-1.4-2.2-4.1-2.2h-2.3v4.7H613.4z M613.9,492.5c3,0,4.7-0.9,4.7-2.9
			c0-1.8-1.7-2.6-4.7-2.6h-2.6v5.5H613.9z"/>
	</g>
</g>
<g>
	<g>
		
			<line fill="none" stroke="#FFFFFF" stroke-width="4" stroke-linecap="round" stroke-miterlimit="10" x1="580" y1="487" x2="597" y2="487"/>
		<g>
			<polygon fill="#FFFFFF" points="596,492 604.6,487 596,482.1 			"/>
		</g>
	</g>
</g>
<line fill="none" stroke="#3399CC" stroke-width="6" stroke-linecap="round" stroke-miterlimit="10" x1="640" y1="614" x2="640" y2="485"/>
<line fill="none" stroke="#3399CC" stroke-width="6" stroke-linecap="round" stroke-miterlimit="10" x1="347" y1="797" x2="347" y2="485"/>
<g>
	
		<line fill="none" stroke="#DB713B" stroke-width="6" stroke-linecap="round" stroke-miterlimit="10" x1="235.1" y1="689.3" x2="264.4" y2="660"/>
	
		<line fill="none" stroke="#DB713B" stroke-width="6" stroke-linecap="round" stroke-miterlimit="10" x1="264.4" y1="689.8" x2="235.1" y2="660.5"/>
</g>
<g>
	
		<line fill="none" stroke="#DB713B" stroke-width="6" stroke-linecap="round" stroke-miterlimit="10" x1="235.1" y1="749.3" x2="264.4" y2="720"/>
	
		<line fill="none" stroke="#DB713B" stroke-width="6" stroke-linecap="round" stroke-miterlimit="10" x1="264.4" y1="749.8" x2="235.1" y2="720.5"/>
</g>
<g>
	
		<line fill="none" stroke="#DB713B" stroke-width="6" stroke-linecap="round" stroke-miterlimit="10" x1="235.1" y1="192.3" x2="264.4" y2="163"/>
	
		<line fill="none" stroke="#DB713B" stroke-width="6" stroke-linecap="round" stroke-miterlimit="10" x1="264.4" y1="192.8" x2="235.1" y2="163.5"/>
</g>
<g>
	
		<line fill="none" stroke="#DB713B" stroke-width="6" stroke-linecap="round" stroke-miterlimit="10" x1="235.1" y1="378.3" x2="264.4" y2="349"/>
	
		<line fill="none" stroke="#DB713B" stroke-width="6" stroke-linecap="round" stroke-miterlimit="10" x1="264.4" y1="378.8" x2="235.1" y2="349.5"/>
</g>
</svg>
